<?xml version="1.0" encoding="utf-8" standalone="no"?>
<!DOCTYPE svg PUBLIC "-//W3C//DTD SVG 1.1//EN"
  "http://www.w3.org/Graphics/SVG/1.1/DTD/svg11.dtd">
<svg xmlns:xlink="http://www.w3.org/1999/xlink" width="360pt" height="360pt" viewBox="0 0 360 360" xmlns="http://www.w3.org/2000/svg" version="1.1">
 <metadata>
  <rdf:RDF xmlns:dc="http://purl.org/dc/elements/1.1/" xmlns:cc="http://creativecommons.org/ns#" xmlns:rdf="http://www.w3.org/1999/02/22-rdf-syntax-ns#">
   <cc:Work>
    <dc:type rdf:resource="http://purl.org/dc/dcmitype/StillImage"/>
    <dc:date>2023-07-09T12:57:46.645879</dc:date>
    <dc:format>image/svg+xml</dc:format>
    <dc:creator>
     <cc:Agent>
      <dc:title>Matplotlib v3.7.2, https://matplotlib.org/</dc:title>
     </cc:Agent>
    </dc:creator>
   </cc:Work>
  </rdf:RDF>
 </metadata>
 <defs>
  <style type="text/css">*{stroke-linejoin: round; stroke-linecap: butt}</style>
 </defs>
 <g id="figure_1">
  <g id="patch_1">
   <path d="M 0 360 
L 360 360 
L 360 0 
L 0 0 
z
" style="fill: #ffffff"/>
  </g>
  <g id="axes_1">
   <g id="patch_2">
    <path d="M 50.87 318.04 
L 81.104 318.04 
L 81.104 26.88 
L 50.87 26.88 
z
" style="fill: #ffffff"/>
   </g>
   <g id="patch_3">
    <path d="M 52.244273 318.04 
L 54.992818 318.04 
L 54.992818 40.744762 
L 52.244273 40.744762 
z
" clip-path="url(#pd7537c9f7a)"/>
   </g>
   <g id="patch_4">
    <path d="M 54.992818 318.04 
L 57.741364 318.04 
L 57.741364 285.198388 
L 54.992818 285.198388 
z
" clip-path="url(#pd7537c9f7a)" style="fill: #0074d9"/>
   </g>
   <g id="patch_5">
    <path d="M 57.741364 318.04 
L 60.489909 318.04 
L 60.489909 293.237963 
L 57.741364 293.237963 
z
" clip-path="url(#pd7537c9f7a)" style="fill: #ff4136"/>
   </g>
   <g id="patch_6">
    <path d="M 60.489909 318.04 
L 63.238455 318.04 
L 63.238455 295.162755 
L 60.489909 295.162755 
z
" clip-path="url(#pd7537c9f7a)" style="fill: #2ecc40"/>
   </g>
   <g id="patch_7">
    <path d="M 63.238455 318.04 
L 65.987 318.04 
L 65.987 301.169909 
L 63.238455 301.169909 
z
" clip-path="url(#pd7537c9f7a)" style="fill: #ffdc00"/>
   </g>
   <g id="patch_8">
    <path d="M 65.987 318.04 
L 68.735545 318.04 
L 68.735545 296.013768 
L 65.987 296.013768 
z
" clip-path="url(#pd7537c9f7a)" style="fill: #aaaaaa"/>
   </g>
   <g id="patch_9">
    <path d="M 68.735545 318.04 
L 71.484091 318.04 
L 71.484091 308.683858 
L 68.735545 308.683858 
z
" clip-path="url(#pd7537c9f7a)" style="fill: #f012be"/>
   </g>
   <g id="patch_10">
    <path d="M 71.484091 318.04 
L 74.232636 318.04 
L 74.232636 312.173013 
L 71.484091 312.173013 
z
" clip-path="url(#pd7537c9f7a)" style="fill: #ff851b"/>
   </g>
   <g id="patch_11">
    <path d="M 74.232636 318.04 
L 76.981182 318.04 
L 76.981182 287.518651 
L 74.232636 287.518651 
z
" clip-path="url(#pd7537c9f7a)" style="fill: #7fdbff"/>
   </g>
   <g id="patch_12">
    <path d="M 76.981182 318.04 
L 79.729727 318.04 
L 79.729727 313.014014 
L 76.981182 313.014014 
z
" clip-path="url(#pd7537c9f7a)" style="fill: #870c25"/>
   </g>
   <g id="matplotlib.axis_1">
    <g id="xtick_1">
     <g id="line2d_1">
      <defs>
       <path id="m606b52c099" d="M 0 0 
L 0 3.5 
" style="stroke: #000000; stroke-width: 0.8"/>
      </defs>
      <g>
       <use xlink:href="#m606b52c099" x="52.244273" y="318.04" style="stroke: #000000; stroke-width: 0.8"/>
      </g>
     </g>
     <g id="text_1">
      <!-- 0 -->
      <g transform="translate(49.063023 332.638438) scale(0.1 -0.1)">
       <defs>
        <path id="DejaVuSans-30" d="M 2034 4250 
Q 1547 4250 1301 3770 
Q 1056 3291 1056 2328 
Q 1056 1369 1301 889 
Q 1547 409 2034 409 
Q 2525 409 2770 889 
Q 3016 1369 3016 2328 
Q 3016 3291 2770 3770 
Q 2525 4250 2034 4250 
z
M 2034 4750 
Q 2819 4750 3233 4129 
Q 3647 3509 3647 2328 
Q 3647 1150 3233 529 
Q 2819 -91 2034 -91 
Q 1250 -91 836 529 
Q 422 1150 422 2328 
Q 422 3509 836 4129 
Q 1250 4750 2034 4750 
z
" transform="scale(0.015625)"/>
       </defs>
       <use xlink:href="#DejaVuSans-30"/>
      </g>
     </g>
    </g>
    <g id="xtick_2">
     <g id="line2d_2">
      <g>
       <use xlink:href="#m606b52c099" x="67.51397" y="318.04" style="stroke: #000000; stroke-width: 0.8"/>
      </g>
     </g>
     <g id="text_2">
      <!-- 5 -->
      <g transform="translate(64.33272 332.638438) scale(0.1 -0.1)">
       <defs>
        <path id="DejaVuSans-35" d="M 691 4666 
L 3169 4666 
L 3169 4134 
L 1269 4134 
L 1269 2991 
Q 1406 3038 1543 3061 
Q 1681 3084 1819 3084 
Q 2600 3084 3056 2656 
Q 3513 2228 3513 1497 
Q 3513 744 3044 326 
Q 2575 -91 1722 -91 
Q 1428 -91 1123 -41 
Q 819 9 494 109 
L 494 744 
Q 775 591 1075 516 
Q 1375 441 1709 441 
Q 2250 441 2565 725 
Q 2881 1009 2881 1497 
Q 2881 1984 2565 2268 
Q 2250 2553 1709 2553 
Q 1456 2553 1204 2497 
Q 953 2441 691 2322 
L 691 4666 
z
" transform="scale(0.015625)"/>
       </defs>
       <use xlink:href="#DejaVuSans-35"/>
      </g>
     </g>
    </g>
   </g>
   <g id="matplotlib.axis_2">
    <g id="ytick_1">
     <g id="line2d_3">
      <defs>
       <path id="m1244674504" d="M 0 0 
L -3.5 0 
" style="stroke: #000000; stroke-width: 0.8"/>
      </defs>
      <g>
       <use xlink:href="#m1244674504" x="50.87" y="318.04" style="stroke: #000000; stroke-width: 0.8"/>
      </g>
     </g>
     <g id="text_3">
      <!-- 0 -->
      <g transform="translate(37.5075 321.839219) scale(0.1 -0.1)">
       <use xlink:href="#DejaVuSans-30"/>
      </g>
     </g>
    </g>
    <g id="ytick_2">
     <g id="line2d_4">
      <g>
       <use xlink:href="#m1244674504" x="50.87" y="267.980383" style="stroke: #000000; stroke-width: 0.8"/>
      </g>
     </g>
     <g id="text_4">
      <!-- 20 -->
      <g transform="translate(31.145 271.779601) scale(0.1 -0.1)">
       <defs>
        <path id="DejaVuSans-32" d="M 1228 531 
L 3431 531 
L 3431 0 
L 469 0 
L 469 531 
Q 828 903 1448 1529 
Q 2069 2156 2228 2338 
Q 2531 2678 2651 2914 
Q 2772 3150 2772 3378 
Q 2772 3750 2511 3984 
Q 2250 4219 1831 4219 
Q 1534 4219 1204 4116 
Q 875 4013 500 3803 
L 500 4441 
Q 881 4594 1212 4672 
Q 1544 4750 1819 4750 
Q 2544 4750 2975 4387 
Q 3406 4025 3406 3419 
Q 3406 3131 3298 2873 
Q 3191 2616 2906 2266 
Q 2828 2175 2409 1742 
Q 1991 1309 1228 531 
z
" transform="scale(0.015625)"/>
       </defs>
       <use xlink:href="#DejaVuSans-32"/>
       <use xlink:href="#DejaVuSans-30" x="63.623047"/>
      </g>
     </g>
    </g>
    <g id="ytick_3">
     <g id="line2d_5">
      <g>
       <use xlink:href="#m1244674504" x="50.87" y="217.920765" style="stroke: #000000; stroke-width: 0.8"/>
      </g>
     </g>
     <g id="text_5">
      <!-- 40 -->
      <g transform="translate(31.145 221.719984) scale(0.1 -0.1)">
       <defs>
        <path id="DejaVuSans-34" d="M 2419 4116 
L 825 1625 
L 2419 1625 
L 2419 4116 
z
M 2253 4666 
L 3047 4666 
L 3047 1625 
L 3713 1625 
L 3713 1100 
L 3047 1100 
L 3047 0 
L 2419 0 
L 2419 1100 
L 313 1100 
L 313 1709 
L 2253 4666 
z
" transform="scale(0.015625)"/>
       </defs>
       <use xlink:href="#DejaVuSans-34"/>
       <use xlink:href="#DejaVuSans-30" x="63.623047"/>
      </g>
     </g>
    </g>
    <g id="ytick_4">
     <g id="line2d_6">
      <g>
       <use xlink:href="#m1244674504" x="50.87" y="167.861148" style="stroke: #000000; stroke-width: 0.8"/>
      </g>
     </g>
     <g id="text_6">
      <!-- 60 -->
      <g transform="translate(31.145 171.660367) scale(0.1 -0.1)">
       <defs>
        <path id="DejaVuSans-36" d="M 2113 2584 
Q 1688 2584 1439 2293 
Q 1191 2003 1191 1497 
Q 1191 994 1439 701 
Q 1688 409 2113 409 
Q 2538 409 2786 701 
Q 3034 994 3034 1497 
Q 3034 2003 2786 2293 
Q 2538 2584 2113 2584 
z
M 3366 4563 
L 3366 3988 
Q 3128 4100 2886 4159 
Q 2644 4219 2406 4219 
Q 1781 4219 1451 3797 
Q 1122 3375 1075 2522 
Q 1259 2794 1537 2939 
Q 1816 3084 2150 3084 
Q 2853 3084 3261 2657 
Q 3669 2231 3669 1497 
Q 3669 778 3244 343 
Q 2819 -91 2113 -91 
Q 1303 -91 875 529 
Q 447 1150 447 2328 
Q 447 3434 972 4092 
Q 1497 4750 2381 4750 
Q 2619 4750 2861 4703 
Q 3103 4656 3366 4563 
z
" transform="scale(0.015625)"/>
       </defs>
       <use xlink:href="#DejaVuSans-36"/>
       <use xlink:href="#DejaVuSans-30" x="63.623047"/>
      </g>
     </g>
    </g>
    <g id="ytick_5">
     <g id="line2d_7">
      <g>
       <use xlink:href="#m1244674504" x="50.87" y="117.801531" style="stroke: #000000; stroke-width: 0.8"/>
      </g>
     </g>
     <g id="text_7">
      <!-- 80 -->
      <g transform="translate(31.145 121.60075) scale(0.1 -0.1)">
       <defs>
        <path id="DejaVuSans-38" d="M 2034 2216 
Q 1584 2216 1326 1975 
Q 1069 1734 1069 1313 
Q 1069 891 1326 650 
Q 1584 409 2034 409 
Q 2484 409 2743 651 
Q 3003 894 3003 1313 
Q 3003 1734 2745 1975 
Q 2488 2216 2034 2216 
z
M 1403 2484 
Q 997 2584 770 2862 
Q 544 3141 544 3541 
Q 544 4100 942 4425 
Q 1341 4750 2034 4750 
Q 2731 4750 3128 4425 
Q 3525 4100 3525 3541 
Q 3525 3141 3298 2862 
Q 3072 2584 2669 2484 
Q 3125 2378 3379 2068 
Q 3634 1759 3634 1313 
Q 3634 634 3220 271 
Q 2806 -91 2034 -91 
Q 1263 -91 848 271 
Q 434 634 434 1313 
Q 434 1759 690 2068 
Q 947 2378 1403 2484 
z
M 1172 3481 
Q 1172 3119 1398 2916 
Q 1625 2713 2034 2713 
Q 2441 2713 2670 2916 
Q 2900 3119 2900 3481 
Q 2900 3844 2670 4047 
Q 2441 4250 2034 4250 
Q 1625 4250 1398 4047 
Q 1172 3844 1172 3481 
z
" transform="scale(0.015625)"/>
       </defs>
       <use xlink:href="#DejaVuSans-38"/>
       <use xlink:href="#DejaVuSans-30" x="63.623047"/>
      </g>
     </g>
    </g>
    <g id="ytick_6">
     <g id="line2d_8">
      <g>
       <use xlink:href="#m1244674504" x="50.87" y="67.741914" style="stroke: #000000; stroke-width: 0.8"/>
      </g>
     </g>
     <g id="text_8">
      <!-- 100 -->
      <g transform="translate(24.7825 71.541132) scale(0.1 -0.1)">
       <defs>
        <path id="DejaVuSans-31" d="M 794 531 
L 1825 531 
L 1825 4091 
L 703 3866 
L 703 4441 
L 1819 4666 
L 2450 4666 
L 2450 531 
L 3481 531 
L 3481 0 
L 794 0 
L 794 531 
z
" transform="scale(0.015625)"/>
       </defs>
       <use xlink:href="#DejaVuSans-31"/>
       <use xlink:href="#DejaVuSans-30" x="63.623047"/>
       <use xlink:href="#DejaVuSans-30" x="127.246094"/>
      </g>
     </g>
    </g>
    <g id="text_9">
     <!-- Count (in 1000) -->
     <g transform="translate(18.702813 211.670938) rotate(-90) scale(0.1 -0.1)">
      <defs>
       <path id="DejaVuSans-43" d="M 4122 4306 
L 4122 3641 
Q 3803 3938 3442 4084 
Q 3081 4231 2675 4231 
Q 1875 4231 1450 3742 
Q 1025 3253 1025 2328 
Q 1025 1406 1450 917 
Q 1875 428 2675 428 
Q 3081 428 3442 575 
Q 3803 722 4122 1019 
L 4122 359 
Q 3791 134 3420 21 
Q 3050 -91 2638 -91 
Q 1578 -91 968 557 
Q 359 1206 359 2328 
Q 359 3453 968 4101 
Q 1578 4750 2638 4750 
Q 3056 4750 3426 4639 
Q 3797 4528 4122 4306 
z
" transform="scale(0.015625)"/>
       <path id="DejaVuSans-6f" d="M 1959 3097 
Q 1497 3097 1228 2736 
Q 959 2375 959 1747 
Q 959 1119 1226 758 
Q 1494 397 1959 397 
Q 2419 397 2687 759 
Q 2956 1122 2956 1747 
Q 2956 2369 2687 2733 
Q 2419 3097 1959 3097 
z
M 1959 3584 
Q 2709 3584 3137 3096 
Q 3566 2609 3566 1747 
Q 3566 888 3137 398 
Q 2709 -91 1959 -91 
Q 1206 -91 779 398 
Q 353 888 353 1747 
Q 353 2609 779 3096 
Q 1206 3584 1959 3584 
z
" transform="scale(0.015625)"/>
       <path id="DejaVuSans-75" d="M 544 1381 
L 544 3500 
L 1119 3500 
L 1119 1403 
Q 1119 906 1312 657 
Q 1506 409 1894 409 
Q 2359 409 2629 706 
Q 2900 1003 2900 1516 
L 2900 3500 
L 3475 3500 
L 3475 0 
L 2900 0 
L 2900 538 
Q 2691 219 2414 64 
Q 2138 -91 1772 -91 
Q 1169 -91 856 284 
Q 544 659 544 1381 
z
M 1991 3584 
L 1991 3584 
z
" transform="scale(0.015625)"/>
       <path id="DejaVuSans-6e" d="M 3513 2113 
L 3513 0 
L 2938 0 
L 2938 2094 
Q 2938 2591 2744 2837 
Q 2550 3084 2163 3084 
Q 1697 3084 1428 2787 
Q 1159 2491 1159 1978 
L 1159 0 
L 581 0 
L 581 3500 
L 1159 3500 
L 1159 2956 
Q 1366 3272 1645 3428 
Q 1925 3584 2291 3584 
Q 2894 3584 3203 3211 
Q 3513 2838 3513 2113 
z
" transform="scale(0.015625)"/>
       <path id="DejaVuSans-74" d="M 1172 4494 
L 1172 3500 
L 2356 3500 
L 2356 3053 
L 1172 3053 
L 1172 1153 
Q 1172 725 1289 603 
Q 1406 481 1766 481 
L 2356 481 
L 2356 0 
L 1766 0 
Q 1100 0 847 248 
Q 594 497 594 1153 
L 594 3053 
L 172 3053 
L 172 3500 
L 594 3500 
L 594 4494 
L 1172 4494 
z
" transform="scale(0.015625)"/>
       <path id="DejaVuSans-20" transform="scale(0.015625)"/>
       <path id="DejaVuSans-28" d="M 1984 4856 
Q 1566 4138 1362 3434 
Q 1159 2731 1159 2009 
Q 1159 1288 1364 580 
Q 1569 -128 1984 -844 
L 1484 -844 
Q 1016 -109 783 600 
Q 550 1309 550 2009 
Q 550 2706 781 3412 
Q 1013 4119 1484 4856 
L 1984 4856 
z
" transform="scale(0.015625)"/>
       <path id="DejaVuSans-69" d="M 603 3500 
L 1178 3500 
L 1178 0 
L 603 0 
L 603 3500 
z
M 603 4863 
L 1178 4863 
L 1178 4134 
L 603 4134 
L 603 4863 
z
" transform="scale(0.015625)"/>
       <path id="DejaVuSans-29" d="M 513 4856 
L 1013 4856 
Q 1481 4119 1714 3412 
Q 1947 2706 1947 2009 
Q 1947 1309 1714 600 
Q 1481 -109 1013 -844 
L 513 -844 
Q 928 -128 1133 580 
Q 1338 1288 1338 2009 
Q 1338 2731 1133 3434 
Q 928 4138 513 4856 
z
" transform="scale(0.015625)"/>
      </defs>
      <use xlink:href="#DejaVuSans-43"/>
      <use xlink:href="#DejaVuSans-6f" x="69.824219"/>
      <use xlink:href="#DejaVuSans-75" x="131.005859"/>
      <use xlink:href="#DejaVuSans-6e" x="194.384766"/>
      <use xlink:href="#DejaVuSans-74" x="257.763672"/>
      <use xlink:href="#DejaVuSans-20" x="296.972656"/>
      <use xlink:href="#DejaVuSans-28" x="328.759766"/>
      <use xlink:href="#DejaVuSans-69" x="367.773438"/>
      <use xlink:href="#DejaVuSans-6e" x="395.556641"/>
      <use xlink:href="#DejaVuSans-20" x="458.935547"/>
      <use xlink:href="#DejaVuSans-31" x="490.722656"/>
      <use xlink:href="#DejaVuSans-30" x="554.345703"/>
      <use xlink:href="#DejaVuSans-30" x="617.96875"/>
      <use xlink:href="#DejaVuSans-30" x="681.591797"/>
      <use xlink:href="#DejaVuSans-29" x="745.214844"/>
     </g>
    </g>
   </g>
   <g id="patch_13">
    <path d="M 50.87 318.04 
L 50.87 26.88 
" style="fill: none; stroke: #000000; stroke-width: 0.8; stroke-linejoin: miter; stroke-linecap: square"/>
   </g>
   <g id="patch_14">
    <path d="M 81.104 318.04 
L 81.104 26.88 
" style="fill: none; stroke: #000000; stroke-width: 0.8; stroke-linejoin: miter; stroke-linecap: square"/>
   </g>
   <g id="patch_15">
    <path d="M 50.87 318.04 
L 81.104 318.04 
" style="fill: none; stroke: #000000; stroke-width: 0.8; stroke-linejoin: miter; stroke-linecap: square"/>
   </g>
   <g id="patch_16">
    <path d="M 50.87 26.88 
L 81.104 26.88 
" style="fill: none; stroke: #000000; stroke-width: 0.8; stroke-linejoin: miter; stroke-linecap: square"/>
   </g>
   <g id="text_10">
    <!-- Train In -->
    <g transform="translate(44.115125 20.88) scale(0.12 -0.12)">
     <defs>
      <path id="DejaVuSans-54" d="M -19 4666 
L 3928 4666 
L 3928 4134 
L 2272 4134 
L 2272 0 
L 1638 0 
L 1638 4134 
L -19 4134 
L -19 4666 
z
" transform="scale(0.015625)"/>
      <path id="DejaVuSans-72" d="M 2631 2963 
Q 2534 3019 2420 3045 
Q 2306 3072 2169 3072 
Q 1681 3072 1420 2755 
Q 1159 2438 1159 1844 
L 1159 0 
L 581 0 
L 581 3500 
L 1159 3500 
L 1159 2956 
Q 1341 3275 1631 3429 
Q 1922 3584 2338 3584 
Q 2397 3584 2469 3576 
Q 2541 3569 2628 3553 
L 2631 2963 
z
" transform="scale(0.015625)"/>
      <path id="DejaVuSans-61" d="M 2194 1759 
Q 1497 1759 1228 1600 
Q 959 1441 959 1056 
Q 959 750 1161 570 
Q 1363 391 1709 391 
Q 2188 391 2477 730 
Q 2766 1069 2766 1631 
L 2766 1759 
L 2194 1759 
z
M 3341 1997 
L 3341 0 
L 2766 0 
L 2766 531 
Q 2569 213 2275 61 
Q 1981 -91 1556 -91 
Q 1019 -91 701 211 
Q 384 513 384 1019 
Q 384 1609 779 1909 
Q 1175 2209 1959 2209 
L 2766 2209 
L 2766 2266 
Q 2766 2663 2505 2880 
Q 2244 3097 1772 3097 
Q 1472 3097 1187 3025 
Q 903 2953 641 2809 
L 641 3341 
Q 956 3463 1253 3523 
Q 1550 3584 1831 3584 
Q 2591 3584 2966 3190 
Q 3341 2797 3341 1997 
z
" transform="scale(0.015625)"/>
      <path id="DejaVuSans-49" d="M 628 4666 
L 1259 4666 
L 1259 0 
L 628 0 
L 628 4666 
z
" transform="scale(0.015625)"/>
     </defs>
     <use xlink:href="#DejaVuSans-54"/>
     <use xlink:href="#DejaVuSans-72" x="46.333984"/>
     <use xlink:href="#DejaVuSans-61" x="87.447266"/>
     <use xlink:href="#DejaVuSans-69" x="148.726562"/>
     <use xlink:href="#DejaVuSans-6e" x="176.509766"/>
     <use xlink:href="#DejaVuSans-20" x="239.888672"/>
     <use xlink:href="#DejaVuSans-49" x="271.675781"/>
     <use xlink:href="#DejaVuSans-6e" x="301.167969"/>
    </g>
   </g>
  </g>
  <g id="axes_2">
   <g id="patch_17">
    <path d="M 117.894 318.04 
L 148.128 318.04 
L 148.128 26.88 
L 117.894 26.88 
z
" style="fill: #ffffff"/>
   </g>
   <g id="patch_18">
    <path d="M 119.268273 318.04 
L 122.016818 318.04 
L 122.016818 40.744762 
L 119.268273 40.744762 
z
" clip-path="url(#p48c4ecd9f2)"/>
   </g>
   <g id="patch_19">
    <path d="M 122.016818 318.04 
L 124.765364 318.04 
L 124.765364 276.323444 
L 122.016818 276.323444 
z
" clip-path="url(#p48c4ecd9f2)" style="fill: #0074d9"/>
   </g>
   <g id="patch_20">
    <path d="M 124.765364 318.04 
L 127.513909 318.04 
L 127.513909 280.832641 
L 124.765364 280.832641 
z
" clip-path="url(#p48c4ecd9f2)" style="fill: #ff4136"/>
   </g>
   <g id="patch_21">
    <path d="M 127.513909 318.04 
L 130.262455 318.04 
L 130.262455 276.404957 
L 127.513909 276.404957 
z
" clip-path="url(#p48c4ecd9f2)" style="fill: #2ecc40"/>
   </g>
   <g id="patch_22">
    <path d="M 130.262455 318.04 
L 133.011 318.04 
L 133.011 292.552107 
L 130.262455 292.552107 
z
" clip-path="url(#p48c4ecd9f2)" style="fill: #ffdc00"/>
   </g>
   <g id="patch_23">
    <path d="M 133.011 318.04 
L 135.759545 318.04 
L 135.759545 293.763699 
L 133.011 293.763699 
z
" clip-path="url(#p48c4ecd9f2)" style="fill: #aaaaaa"/>
   </g>
   <g id="patch_24">
    <path d="M 135.759545 318.04 
L 138.508091 318.04 
L 138.508091 305.127468 
L 135.759545 305.127468 
z
" clip-path="url(#p48c4ecd9f2)" style="fill: #f012be"/>
   </g>
   <g id="patch_25">
    <path d="M 138.508091 318.04 
L 141.256636 318.04 
L 141.256636 309.384713 
L 138.508091 309.384713 
z
" clip-path="url(#p48c4ecd9f2)" style="fill: #ff851b"/>
   </g>
   <g id="patch_26">
    <path d="M 141.256636 318.04 
L 144.005182 318.04 
L 144.005182 283.066861 
L 141.256636 283.066861 
z
" clip-path="url(#p48c4ecd9f2)" style="fill: #7fdbff"/>
   </g>
   <g id="patch_27">
    <path d="M 144.005182 318.04 
L 146.753727 318.04 
L 146.753727 312.782358 
L 144.005182 312.782358 
z
" clip-path="url(#p48c4ecd9f2)" style="fill: #870c25"/>
   </g>
   <g id="matplotlib.axis_3">
    <g id="xtick_3">
     <g id="line2d_9">
      <g>
       <use xlink:href="#m606b52c099" x="119.268273" y="318.04" style="stroke: #000000; stroke-width: 0.8"/>
      </g>
     </g>
     <g id="text_11">
      <!-- 0 -->
      <g transform="translate(116.087023 332.638438) scale(0.1 -0.1)">
       <use xlink:href="#DejaVuSans-30"/>
      </g>
     </g>
    </g>
    <g id="xtick_4">
     <g id="line2d_10">
      <g>
       <use xlink:href="#m606b52c099" x="134.53797" y="318.04" style="stroke: #000000; stroke-width: 0.8"/>
      </g>
     </g>
     <g id="text_12">
      <!-- 5 -->
      <g transform="translate(131.35672 332.638438) scale(0.1 -0.1)">
       <use xlink:href="#DejaVuSans-35"/>
      </g>
     </g>
    </g>
   </g>
   <g id="matplotlib.axis_4">
    <g id="ytick_7">
     <g id="line2d_11">
      <g>
       <use xlink:href="#m1244674504" x="117.894" y="318.04" style="stroke: #000000; stroke-width: 0.8"/>
      </g>
     </g>
     <g id="text_13">
      <!-- 0 -->
      <g transform="translate(104.5315 321.839219) scale(0.1 -0.1)">
       <use xlink:href="#DejaVuSans-30"/>
      </g>
     </g>
    </g>
    <g id="ytick_8">
     <g id="line2d_12">
      <g>
       <use xlink:href="#m1244674504" x="117.894" y="280.988258" style="stroke: #000000; stroke-width: 0.8"/>
      </g>
     </g>
     <g id="text_14">
      <!-- 10 -->
      <g transform="translate(98.169 284.787477) scale(0.1 -0.1)">
       <use xlink:href="#DejaVuSans-31"/>
       <use xlink:href="#DejaVuSans-30" x="63.623047"/>
      </g>
     </g>
    </g>
    <g id="ytick_9">
     <g id="line2d_13">
      <g>
       <use xlink:href="#m1244674504" x="117.894" y="243.936516" style="stroke: #000000; stroke-width: 0.8"/>
      </g>
     </g>
     <g id="text_15">
      <!-- 20 -->
      <g transform="translate(98.169 247.735734) scale(0.1 -0.1)">
       <use xlink:href="#DejaVuSans-32"/>
       <use xlink:href="#DejaVuSans-30" x="63.623047"/>
      </g>
     </g>
    </g>
    <g id="ytick_10">
     <g id="line2d_14">
      <g>
       <use xlink:href="#m1244674504" x="117.894" y="206.884774" style="stroke: #000000; stroke-width: 0.8"/>
      </g>
     </g>
     <g id="text_16">
      <!-- 30 -->
      <g transform="translate(98.169 210.683992) scale(0.1 -0.1)">
       <defs>
        <path id="DejaVuSans-33" d="M 2597 2516 
Q 3050 2419 3304 2112 
Q 3559 1806 3559 1356 
Q 3559 666 3084 287 
Q 2609 -91 1734 -91 
Q 1441 -91 1130 -33 
Q 819 25 488 141 
L 488 750 
Q 750 597 1062 519 
Q 1375 441 1716 441 
Q 2309 441 2620 675 
Q 2931 909 2931 1356 
Q 2931 1769 2642 2001 
Q 2353 2234 1838 2234 
L 1294 2234 
L 1294 2753 
L 1863 2753 
Q 2328 2753 2575 2939 
Q 2822 3125 2822 3475 
Q 2822 3834 2567 4026 
Q 2313 4219 1838 4219 
Q 1578 4219 1281 4162 
Q 984 4106 628 3988 
L 628 4550 
Q 988 4650 1302 4700 
Q 1616 4750 1894 4750 
Q 2613 4750 3031 4423 
Q 3450 4097 3450 3541 
Q 3450 3153 3228 2886 
Q 3006 2619 2597 2516 
z
" transform="scale(0.015625)"/>
       </defs>
       <use xlink:href="#DejaVuSans-33"/>
       <use xlink:href="#DejaVuSans-30" x="63.623047"/>
      </g>
     </g>
    </g>
    <g id="ytick_11">
     <g id="line2d_15">
      <g>
       <use xlink:href="#m1244674504" x="117.894" y="169.833031" style="stroke: #000000; stroke-width: 0.8"/>
      </g>
     </g>
     <g id="text_17">
      <!-- 40 -->
      <g transform="translate(98.169 173.63225) scale(0.1 -0.1)">
       <use xlink:href="#DejaVuSans-34"/>
       <use xlink:href="#DejaVuSans-30" x="63.623047"/>
      </g>
     </g>
    </g>
    <g id="ytick_12">
     <g id="line2d_16">
      <g>
       <use xlink:href="#m1244674504" x="117.894" y="132.781289" style="stroke: #000000; stroke-width: 0.8"/>
      </g>
     </g>
     <g id="text_18">
      <!-- 50 -->
      <g transform="translate(98.169 136.580508) scale(0.1 -0.1)">
       <use xlink:href="#DejaVuSans-35"/>
       <use xlink:href="#DejaVuSans-30" x="63.623047"/>
      </g>
     </g>
    </g>
    <g id="ytick_13">
     <g id="line2d_17">
      <g>
       <use xlink:href="#m1244674504" x="117.894" y="95.729547" style="stroke: #000000; stroke-width: 0.8"/>
      </g>
     </g>
     <g id="text_19">
      <!-- 60 -->
      <g transform="translate(98.169 99.528766) scale(0.1 -0.1)">
       <use xlink:href="#DejaVuSans-36"/>
       <use xlink:href="#DejaVuSans-30" x="63.623047"/>
      </g>
     </g>
    </g>
    <g id="ytick_14">
     <g id="line2d_18">
      <g>
       <use xlink:href="#m1244674504" x="117.894" y="58.677805" style="stroke: #000000; stroke-width: 0.8"/>
      </g>
     </g>
     <g id="text_20">
      <!-- 70 -->
      <g transform="translate(98.169 62.477024) scale(0.1 -0.1)">
       <defs>
        <path id="DejaVuSans-37" d="M 525 4666 
L 3525 4666 
L 3525 4397 
L 1831 0 
L 1172 0 
L 2766 4134 
L 525 4134 
L 525 4666 
z
" transform="scale(0.015625)"/>
       </defs>
       <use xlink:href="#DejaVuSans-37"/>
       <use xlink:href="#DejaVuSans-30" x="63.623047"/>
      </g>
     </g>
    </g>
   </g>
   <g id="patch_28">
    <path d="M 117.894 318.04 
L 117.894 26.88 
" style="fill: none; stroke: #000000; stroke-width: 0.8; stroke-linejoin: miter; stroke-linecap: square"/>
   </g>
   <g id="patch_29">
    <path d="M 148.128 318.04 
L 148.128 26.88 
" style="fill: none; stroke: #000000; stroke-width: 0.8; stroke-linejoin: miter; stroke-linecap: square"/>
   </g>
   <g id="patch_30">
    <path d="M 117.894 318.04 
L 148.128 318.04 
" style="fill: none; stroke: #000000; stroke-width: 0.8; stroke-linejoin: miter; stroke-linecap: square"/>
   </g>
   <g id="patch_31">
    <path d="M 117.894 26.88 
L 148.128 26.88 
" style="fill: none; stroke: #000000; stroke-width: 0.8; stroke-linejoin: miter; stroke-linecap: square"/>
   </g>
   <g id="text_21">
    <!-- Train Out -->
    <g transform="translate(105.833812 20.88) scale(0.12 -0.12)">
     <defs>
      <path id="DejaVuSans-4f" d="M 2522 4238 
Q 1834 4238 1429 3725 
Q 1025 3213 1025 2328 
Q 1025 1447 1429 934 
Q 1834 422 2522 422 
Q 3209 422 3611 934 
Q 4013 1447 4013 2328 
Q 4013 3213 3611 3725 
Q 3209 4238 2522 4238 
z
M 2522 4750 
Q 3503 4750 4090 4092 
Q 4678 3434 4678 2328 
Q 4678 1225 4090 567 
Q 3503 -91 2522 -91 
Q 1538 -91 948 565 
Q 359 1222 359 2328 
Q 359 3434 948 4092 
Q 1538 4750 2522 4750 
z
" transform="scale(0.015625)"/>
     </defs>
     <use xlink:href="#DejaVuSans-54"/>
     <use xlink:href="#DejaVuSans-72" x="46.333984"/>
     <use xlink:href="#DejaVuSans-61" x="87.447266"/>
     <use xlink:href="#DejaVuSans-69" x="148.726562"/>
     <use xlink:href="#DejaVuSans-6e" x="176.509766"/>
     <use xlink:href="#DejaVuSans-20" x="239.888672"/>
     <use xlink:href="#DejaVuSans-4f" x="271.675781"/>
     <use xlink:href="#DejaVuSans-75" x="350.386719"/>
     <use xlink:href="#DejaVuSans-74" x="413.765625"/>
    </g>
   </g>
  </g>
  <g id="axes_3">
   <g id="patch_32">
    <path d="M 184.918 318.04 
L 215.152 318.04 
L 215.152 26.88 
L 184.918 26.88 
z
" style="fill: #ffffff"/>
   </g>
   <g id="patch_33">
    <path d="M 186.292273 318.04 
L 189.040818 318.04 
L 189.040818 40.744762 
L 186.292273 40.744762 
z
" clip-path="url(#p649771b7c0)"/>
   </g>
   <g id="patch_34">
    <path d="M 189.040818 318.04 
L 191.789364 318.04 
L 191.789364 287.188245 
L 189.040818 287.188245 
z
" clip-path="url(#p649771b7c0)" style="fill: #0074d9"/>
   </g>
   <g id="patch_35">
    <path d="M 191.789364 318.04 
L 194.537909 318.04 
L 194.537909 293.180986 
L 191.789364 293.180986 
z
" clip-path="url(#p649771b7c0)" style="fill: #ff4136"/>
   </g>
   <g id="patch_36">
    <path d="M 194.537909 318.04 
L 197.286455 318.04 
L 197.286455 292.312103 
L 194.537909 292.312103 
z
" clip-path="url(#p649771b7c0)" style="fill: #2ecc40"/>
   </g>
   <g id="patch_37">
    <path d="M 197.286455 318.04 
L 200.035 318.04 
L 200.035 291.321831 
L 197.286455 291.321831 
z
" clip-path="url(#p649771b7c0)" style="fill: #ffdc00"/>
   </g>
   <g id="patch_38">
    <path d="M 200.035 318.04 
L 202.783545 318.04 
L 202.783545 297.889568 
L 200.035 297.889568 
z
" clip-path="url(#p649771b7c0)" style="fill: #aaaaaa"/>
   </g>
   <g id="patch_39">
    <path d="M 202.783545 318.04 
L 205.532091 318.04 
L 205.532091 311.497818 
L 202.783545 311.497818 
z
" clip-path="url(#p649771b7c0)" style="fill: #f012be"/>
   </g>
   <g id="patch_40">
    <path d="M 205.532091 318.04 
L 208.280636 318.04 
L 208.280636 313.555028 
L 205.532091 313.555028 
z
" clip-path="url(#p649771b7c0)" style="fill: #ff851b"/>
   </g>
   <g id="patch_41">
    <path d="M 208.280636 318.04 
L 211.029182 318.04 
L 211.029182 293.232097 
L 208.280636 293.232097 
z
" clip-path="url(#p649771b7c0)" style="fill: #7fdbff"/>
   </g>
   <g id="patch_42">
    <path d="M 211.029182 318.04 
L 213.777727 318.04 
L 213.777727 311.65115 
L 211.029182 311.65115 
z
" clip-path="url(#p649771b7c0)" style="fill: #870c25"/>
   </g>
   <g id="matplotlib.axis_5">
    <g id="xtick_5">
     <g id="line2d_19">
      <g>
       <use xlink:href="#m606b52c099" x="186.292273" y="318.04" style="stroke: #000000; stroke-width: 0.8"/>
      </g>
     </g>
     <g id="text_22">
      <!-- 0 -->
      <g transform="translate(183.111023 332.638438) scale(0.1 -0.1)">
       <use xlink:href="#DejaVuSans-30"/>
      </g>
     </g>
    </g>
    <g id="xtick_6">
     <g id="line2d_20">
      <g>
       <use xlink:href="#m606b52c099" x="201.56197" y="318.04" style="stroke: #000000; stroke-width: 0.8"/>
      </g>
     </g>
     <g id="text_23">
      <!-- 5 -->
      <g transform="translate(198.38072 332.638438) scale(0.1 -0.1)">
       <use xlink:href="#DejaVuSans-35"/>
      </g>
     </g>
    </g>
    <g id="text_24">
     <!-- Color -->
     <g transform="translate(186.980312 346.316563) scale(0.1 -0.1)">
      <defs>
       <path id="DejaVuSans-6c" d="M 603 4863 
L 1178 4863 
L 1178 0 
L 603 0 
L 603 4863 
z
" transform="scale(0.015625)"/>
      </defs>
      <use xlink:href="#DejaVuSans-43"/>
      <use xlink:href="#DejaVuSans-6f" x="69.824219"/>
      <use xlink:href="#DejaVuSans-6c" x="131.005859"/>
      <use xlink:href="#DejaVuSans-6f" x="158.789062"/>
      <use xlink:href="#DejaVuSans-72" x="219.970703"/>
     </g>
    </g>
   </g>
   <g id="matplotlib.axis_6">
    <g id="ytick_15">
     <g id="line2d_21">
      <g>
       <use xlink:href="#m1244674504" x="184.918" y="318.04" style="stroke: #000000; stroke-width: 0.8"/>
      </g>
     </g>
     <g id="text_25">
      <!-- 0 -->
      <g transform="translate(171.5555 321.839219) scale(0.1 -0.1)">
       <use xlink:href="#DejaVuSans-30"/>
      </g>
     </g>
    </g>
    <g id="ytick_16">
     <g id="line2d_22">
      <g>
       <use xlink:href="#m1244674504" x="184.918" y="254.151504" style="stroke: #000000; stroke-width: 0.8"/>
      </g>
     </g>
     <g id="text_26">
      <!-- 10 -->
      <g transform="translate(165.193 257.950723) scale(0.1 -0.1)">
       <use xlink:href="#DejaVuSans-31"/>
       <use xlink:href="#DejaVuSans-30" x="63.623047"/>
      </g>
     </g>
    </g>
    <g id="ytick_17">
     <g id="line2d_23">
      <g>
       <use xlink:href="#m1244674504" x="184.918" y="190.263009" style="stroke: #000000; stroke-width: 0.8"/>
      </g>
     </g>
     <g id="text_27">
      <!-- 20 -->
      <g transform="translate(165.193 194.062227) scale(0.1 -0.1)">
       <use xlink:href="#DejaVuSans-32"/>
       <use xlink:href="#DejaVuSans-30" x="63.623047"/>
      </g>
     </g>
    </g>
    <g id="ytick_18">
     <g id="line2d_24">
      <g>
       <use xlink:href="#m1244674504" x="184.918" y="126.374513" style="stroke: #000000; stroke-width: 0.8"/>
      </g>
     </g>
     <g id="text_28">
      <!-- 30 -->
      <g transform="translate(165.193 130.173732) scale(0.1 -0.1)">
       <use xlink:href="#DejaVuSans-33"/>
       <use xlink:href="#DejaVuSans-30" x="63.623047"/>
      </g>
     </g>
    </g>
    <g id="ytick_19">
     <g id="line2d_25">
      <g>
       <use xlink:href="#m1244674504" x="184.918" y="62.486017" style="stroke: #000000; stroke-width: 0.8"/>
      </g>
     </g>
     <g id="text_29">
      <!-- 40 -->
      <g transform="translate(165.193 66.285236) scale(0.1 -0.1)">
       <use xlink:href="#DejaVuSans-34"/>
       <use xlink:href="#DejaVuSans-30" x="63.623047"/>
      </g>
     </g>
    </g>
   </g>
   <g id="patch_43">
    <path d="M 184.918 318.04 
L 184.918 26.88 
" style="fill: none; stroke: #000000; stroke-width: 0.8; stroke-linejoin: miter; stroke-linecap: square"/>
   </g>
   <g id="patch_44">
    <path d="M 215.152 318.04 
L 215.152 26.88 
" style="fill: none; stroke: #000000; stroke-width: 0.8; stroke-linejoin: miter; stroke-linecap: square"/>
   </g>
   <g id="patch_45">
    <path d="M 184.918 318.04 
L 215.152 318.04 
" style="fill: none; stroke: #000000; stroke-width: 0.8; stroke-linejoin: miter; stroke-linecap: square"/>
   </g>
   <g id="patch_46">
    <path d="M 184.918 26.88 
L 215.152 26.88 
" style="fill: none; stroke: #000000; stroke-width: 0.8; stroke-linejoin: miter; stroke-linecap: square"/>
   </g>
   <g id="text_30">
    <!-- Test In -->
    <g transform="translate(180.74125 20.88) scale(0.12 -0.12)">
     <defs>
      <path id="DejaVuSans-65" d="M 3597 1894 
L 3597 1613 
L 953 1613 
Q 991 1019 1311 708 
Q 1631 397 2203 397 
Q 2534 397 2845 478 
Q 3156 559 3463 722 
L 3463 178 
Q 3153 47 2828 -22 
Q 2503 -91 2169 -91 
Q 1331 -91 842 396 
Q 353 884 353 1716 
Q 353 2575 817 3079 
Q 1281 3584 2069 3584 
Q 2775 3584 3186 3129 
Q 3597 2675 3597 1894 
z
M 3022 2063 
Q 3016 2534 2758 2815 
Q 2500 3097 2075 3097 
Q 1594 3097 1305 2825 
Q 1016 2553 972 2059 
L 3022 2063 
z
" transform="scale(0.015625)"/>
      <path id="DejaVuSans-73" d="M 2834 3397 
L 2834 2853 
Q 2591 2978 2328 3040 
Q 2066 3103 1784 3103 
Q 1356 3103 1142 2972 
Q 928 2841 928 2578 
Q 928 2378 1081 2264 
Q 1234 2150 1697 2047 
L 1894 2003 
Q 2506 1872 2764 1633 
Q 3022 1394 3022 966 
Q 3022 478 2636 193 
Q 2250 -91 1575 -91 
Q 1294 -91 989 -36 
Q 684 19 347 128 
L 347 722 
Q 666 556 975 473 
Q 1284 391 1588 391 
Q 1994 391 2212 530 
Q 2431 669 2431 922 
Q 2431 1156 2273 1281 
Q 2116 1406 1581 1522 
L 1381 1569 
Q 847 1681 609 1914 
Q 372 2147 372 2553 
Q 372 3047 722 3315 
Q 1072 3584 1716 3584 
Q 2034 3584 2315 3537 
Q 2597 3491 2834 3397 
z
" transform="scale(0.015625)"/>
     </defs>
     <use xlink:href="#DejaVuSans-54"/>
     <use xlink:href="#DejaVuSans-65" x="44.083984"/>
     <use xlink:href="#DejaVuSans-73" x="105.607422"/>
     <use xlink:href="#DejaVuSans-74" x="157.707031"/>
     <use xlink:href="#DejaVuSans-20" x="196.916016"/>
     <use xlink:href="#DejaVuSans-49" x="228.703125"/>
     <use xlink:href="#DejaVuSans-6e" x="258.195312"/>
    </g>
   </g>
  </g>
  <g id="axes_4">
   <g id="patch_47">
    <path d="M 251.942 318.04 
L 282.176 318.04 
L 282.176 26.88 
L 251.942 26.88 
z
" style="fill: #ffffff"/>
   </g>
   <g id="patch_48">
    <path d="M 253.316273 318.04 
L 256.064818 318.04 
L 256.064818 40.744762 
L 253.316273 40.744762 
z
" clip-path="url(#pfd94ab6b36)"/>
   </g>
   <g id="patch_49">
    <path d="M 256.064818 318.04 
L 258.813364 318.04 
L 258.813364 279.935521 
L 256.064818 279.935521 
z
" clip-path="url(#pfd94ab6b36)" style="fill: #0074d9"/>
   </g>
   <g id="patch_50">
    <path d="M 258.813364 318.04 
L 261.561909 318.04 
L 261.561909 287.293001 
L 258.813364 287.293001 
z
" clip-path="url(#pfd94ab6b36)" style="fill: #ff4136"/>
   </g>
   <g id="patch_51">
    <path d="M 261.561909 318.04 
L 264.310455 318.04 
L 264.310455 275.166784 
L 261.561909 275.166784 
z
" clip-path="url(#pfd94ab6b36)" style="fill: #2ecc40"/>
   </g>
   <g id="patch_52">
    <path d="M 264.310455 318.04 
L 267.059 318.04 
L 267.059 276.256781 
L 264.310455 276.256781 
z
" clip-path="url(#pfd94ab6b36)" style="fill: #ffdc00"/>
   </g>
   <g id="patch_53">
    <path d="M 267.059 318.04 
L 269.807545 318.04 
L 269.807545 294.786731 
L 267.059 294.786731 
z
" clip-path="url(#pfd94ab6b36)" style="fill: #aaaaaa"/>
   </g>
   <g id="patch_54">
    <path d="M 269.807545 318.04 
L 272.556091 318.04 
L 272.556091 304.551287 
L 269.807545 304.551287 
z
" clip-path="url(#pfd94ab6b36)" style="fill: #f012be"/>
   </g>
   <g id="patch_55">
    <path d="M 272.556091 318.04 
L 275.304636 318.04 
L 275.304636 309.483524 
L 272.556091 309.483524 
z
" clip-path="url(#pfd94ab6b36)" style="fill: #ff851b"/>
   </g>
   <g id="patch_56">
    <path d="M 275.304636 318.04 
L 278.053182 318.04 
L 278.053182 287.946999 
L 275.304636 287.946999 
z
" clip-path="url(#pfd94ab6b36)" style="fill: #7fdbff"/>
   </g>
   <g id="patch_57">
    <path d="M 278.053182 318.04 
L 280.801727 318.04 
L 280.801727 309.465357 
L 278.053182 309.465357 
z
" clip-path="url(#pfd94ab6b36)" style="fill: #870c25"/>
   </g>
   <g id="matplotlib.axis_7">
    <g id="xtick_7">
     <g id="line2d_26">
      <g>
       <use xlink:href="#m606b52c099" x="253.316273" y="318.04" style="stroke: #000000; stroke-width: 0.8"/>
      </g>
     </g>
     <g id="text_31">
      <!-- 0 -->
      <g transform="translate(250.135023 332.638438) scale(0.1 -0.1)">
       <use xlink:href="#DejaVuSans-30"/>
      </g>
     </g>
    </g>
    <g id="xtick_8">
     <g id="line2d_27">
      <g>
       <use xlink:href="#m606b52c099" x="268.58597" y="318.04" style="stroke: #000000; stroke-width: 0.8"/>
      </g>
     </g>
     <g id="text_32">
      <!-- 5 -->
      <g transform="translate(265.40472 332.638438) scale(0.1 -0.1)">
       <use xlink:href="#DejaVuSans-35"/>
      </g>
     </g>
    </g>
   </g>
   <g id="matplotlib.axis_8">
    <g id="ytick_20">
     <g id="line2d_28">
      <g>
       <use xlink:href="#m1244674504" x="251.942" y="318.04" style="stroke: #000000; stroke-width: 0.8"/>
      </g>
     </g>
     <g id="text_33">
      <!-- 0 -->
      <g transform="translate(238.5795 321.839219) scale(0.1 -0.1)">
       <use xlink:href="#DejaVuSans-30"/>
      </g>
     </g>
    </g>
    <g id="ytick_21">
     <g id="line2d_29">
      <g>
       <use xlink:href="#m1244674504" x="251.942" y="272.623458" style="stroke: #000000; stroke-width: 0.8"/>
      </g>
     </g>
     <g id="text_34">
      <!-- 5 -->
      <g transform="translate(238.5795 276.422677) scale(0.1 -0.1)">
       <use xlink:href="#DejaVuSans-35"/>
      </g>
     </g>
    </g>
    <g id="ytick_22">
     <g id="line2d_30">
      <g>
       <use xlink:href="#m1244674504" x="251.942" y="227.206916" style="stroke: #000000; stroke-width: 0.8"/>
      </g>
     </g>
     <g id="text_35">
      <!-- 10 -->
      <g transform="translate(232.217 231.006135) scale(0.1 -0.1)">
       <use xlink:href="#DejaVuSans-31"/>
       <use xlink:href="#DejaVuSans-30" x="63.623047"/>
      </g>
     </g>
    </g>
    <g id="ytick_23">
     <g id="line2d_31">
      <g>
       <use xlink:href="#m1244674504" x="251.942" y="181.790374" style="stroke: #000000; stroke-width: 0.8"/>
      </g>
     </g>
     <g id="text_36">
      <!-- 15 -->
      <g transform="translate(232.217 185.589593) scale(0.1 -0.1)">
       <use xlink:href="#DejaVuSans-31"/>
       <use xlink:href="#DejaVuSans-35" x="63.623047"/>
      </g>
     </g>
    </g>
    <g id="ytick_24">
     <g id="line2d_32">
      <g>
       <use xlink:href="#m1244674504" x="251.942" y="136.373832" style="stroke: #000000; stroke-width: 0.8"/>
      </g>
     </g>
     <g id="text_37">
      <!-- 20 -->
      <g transform="translate(232.217 140.173051) scale(0.1 -0.1)">
       <use xlink:href="#DejaVuSans-32"/>
       <use xlink:href="#DejaVuSans-30" x="63.623047"/>
      </g>
     </g>
    </g>
    <g id="ytick_25">
     <g id="line2d_33">
      <g>
       <use xlink:href="#m1244674504" x="251.942" y="90.957291" style="stroke: #000000; stroke-width: 0.8"/>
      </g>
     </g>
     <g id="text_38">
      <!-- 25 -->
      <g transform="translate(232.217 94.756509) scale(0.1 -0.1)">
       <use xlink:href="#DejaVuSans-32"/>
       <use xlink:href="#DejaVuSans-35" x="63.623047"/>
      </g>
     </g>
    </g>
    <g id="ytick_26">
     <g id="line2d_34">
      <g>
       <use xlink:href="#m1244674504" x="251.942" y="45.540749" style="stroke: #000000; stroke-width: 0.8"/>
      </g>
     </g>
     <g id="text_39">
      <!-- 30 -->
      <g transform="translate(232.217 49.339967) scale(0.1 -0.1)">
       <use xlink:href="#DejaVuSans-33"/>
       <use xlink:href="#DejaVuSans-30" x="63.623047"/>
      </g>
     </g>
    </g>
   </g>
   <g id="patch_58">
    <path d="M 251.942 318.04 
L 251.942 26.88 
" style="fill: none; stroke: #000000; stroke-width: 0.8; stroke-linejoin: miter; stroke-linecap: square"/>
   </g>
   <g id="patch_59">
    <path d="M 282.176 318.04 
L 282.176 26.88 
" style="fill: none; stroke: #000000; stroke-width: 0.8; stroke-linejoin: miter; stroke-linecap: square"/>
   </g>
   <g id="patch_60">
    <path d="M 251.942 318.04 
L 282.176 318.04 
" style="fill: none; stroke: #000000; stroke-width: 0.8; stroke-linejoin: miter; stroke-linecap: square"/>
   </g>
   <g id="patch_61">
    <path d="M 251.942 26.88 
L 282.176 26.88 
" style="fill: none; stroke: #000000; stroke-width: 0.8; stroke-linejoin: miter; stroke-linecap: square"/>
   </g>
   <g id="text_40">
    <!-- Test Out -->
    <g transform="translate(242.459937 20.88) scale(0.12 -0.12)">
     <use xlink:href="#DejaVuSans-54"/>
     <use xlink:href="#DejaVuSans-65" x="44.083984"/>
     <use xlink:href="#DejaVuSans-73" x="105.607422"/>
     <use xlink:href="#DejaVuSans-74" x="157.707031"/>
     <use xlink:href="#DejaVuSans-20" x="196.916016"/>
     <use xlink:href="#DejaVuSans-4f" x="228.703125"/>
     <use xlink:href="#DejaVuSans-75" x="307.414062"/>
     <use xlink:href="#DejaVuSans-74" x="370.792969"/>
    </g>
   </g>
  </g>
  <g id="axes_5">
   <g id="patch_62">
    <path d="M 318.966 318.04 
L 349.2 318.04 
L 349.2 26.88 
L 318.966 26.88 
z
" style="fill: #ffffff"/>
   </g>
   <g id="patch_63">
    <path d="M 320.340273 318.04 
L 323.088818 318.04 
L 323.088818 40.744762 
L 320.340273 40.744762 
z
" clip-path="url(#pf78886072c)"/>
   </g>
   <g id="patch_64">
    <path d="M 323.088818 318.04 
L 325.837364 318.04 
L 325.837364 282.353156 
L 323.088818 282.353156 
z
" clip-path="url(#pf78886072c)" style="fill: #0074d9"/>
   </g>
   <g id="patch_65">
    <path d="M 325.837364 318.04 
L 328.585909 318.04 
L 328.585909 288.952295 
L 325.837364 288.952295 
z
" clip-path="url(#pf78886072c)" style="fill: #ff4136"/>
   </g>
   <g id="patch_66">
    <path d="M 328.585909 318.04 
L 331.334455 318.04 
L 331.334455 286.925653 
L 328.585909 286.925653 
z
" clip-path="url(#pf78886072c)" style="fill: #2ecc40"/>
   </g>
   <g id="patch_67">
    <path d="M 331.334455 318.04 
L 334.083 318.04 
L 334.083 294.108106 
L 331.334455 294.108106 
z
" clip-path="url(#pf78886072c)" style="fill: #ffdc00"/>
   </g>
   <g id="patch_68">
    <path d="M 334.083 318.04 
L 336.831545 318.04 
L 336.831545 295.53434 
L 334.083 295.53434 
z
" clip-path="url(#pf78886072c)" style="fill: #aaaaaa"/>
   </g>
   <g id="patch_69">
    <path d="M 336.831545 318.04 
L 339.580091 318.04 
L 339.580091 307.642911 
L 336.831545 307.642911 
z
" clip-path="url(#pf78886072c)" style="fill: #f012be"/>
   </g>
   <g id="patch_70">
    <path d="M 339.580091 318.04 
L 342.328636 318.04 
L 342.328636 311.283815 
L 339.580091 311.283815 
z
" clip-path="url(#pf78886072c)" style="fill: #ff851b"/>
   </g>
   <g id="patch_71">
    <path d="M 342.328636 318.04 
L 345.077182 318.04 
L 345.077182 287.240814 
L 342.328636 287.240814 
z
" clip-path="url(#pf78886072c)" style="fill: #7fdbff"/>
   </g>
   <g id="patch_72">
    <path d="M 345.077182 318.04 
L 347.825727 318.04 
L 347.825727 312.301944 
L 345.077182 312.301944 
z
" clip-path="url(#pf78886072c)" style="fill: #870c25"/>
   </g>
   <g id="matplotlib.axis_9">
    <g id="xtick_9">
     <g id="line2d_35">
      <g>
       <use xlink:href="#m606b52c099" x="320.340273" y="318.04" style="stroke: #000000; stroke-width: 0.8"/>
      </g>
     </g>
     <g id="text_41">
      <!-- 0 -->
      <g transform="translate(317.159023 332.638438) scale(0.1 -0.1)">
       <use xlink:href="#DejaVuSans-30"/>
      </g>
     </g>
    </g>
    <g id="xtick_10">
     <g id="line2d_36">
      <g>
       <use xlink:href="#m606b52c099" x="335.60997" y="318.04" style="stroke: #000000; stroke-width: 0.8"/>
      </g>
     </g>
     <g id="text_42">
      <!-- 5 -->
      <g transform="translate(332.42872 332.638438) scale(0.1 -0.1)">
       <use xlink:href="#DejaVuSans-35"/>
      </g>
     </g>
    </g>
   </g>
   <g id="matplotlib.axis_10">
    <g id="ytick_27">
     <g id="line2d_37">
      <g>
       <use xlink:href="#m1244674504" x="318.966" y="318.04" style="stroke: #000000; stroke-width: 0.8"/>
      </g>
     </g>
     <g id="text_43">
      <!-- 0 -->
      <g transform="translate(305.6035 321.839219) scale(0.1 -0.1)">
       <use xlink:href="#DejaVuSans-30"/>
      </g>
     </g>
    </g>
    <g id="ytick_28">
     <g id="line2d_38">
      <g>
       <use xlink:href="#m1244674504" x="318.966" y="264.622978" style="stroke: #000000; stroke-width: 0.8"/>
      </g>
     </g>
     <g id="text_44">
      <!-- 50 -->
      <g transform="translate(299.241 268.422197) scale(0.1 -0.1)">
       <use xlink:href="#DejaVuSans-35"/>
       <use xlink:href="#DejaVuSans-30" x="63.623047"/>
      </g>
     </g>
    </g>
    <g id="ytick_29">
     <g id="line2d_39">
      <g>
       <use xlink:href="#m1244674504" x="318.966" y="211.205957" style="stroke: #000000; stroke-width: 0.8"/>
      </g>
     </g>
     <g id="text_45">
      <!-- 100 -->
      <g transform="translate(292.8785 215.005175) scale(0.1 -0.1)">
       <use xlink:href="#DejaVuSans-31"/>
       <use xlink:href="#DejaVuSans-30" x="63.623047"/>
       <use xlink:href="#DejaVuSans-30" x="127.246094"/>
      </g>
     </g>
    </g>
    <g id="ytick_30">
     <g id="line2d_40">
      <g>
       <use xlink:href="#m1244674504" x="318.966" y="157.788935" style="stroke: #000000; stroke-width: 0.8"/>
      </g>
     </g>
     <g id="text_46">
      <!-- 150 -->
      <g transform="translate(292.8785 161.588154) scale(0.1 -0.1)">
       <use xlink:href="#DejaVuSans-31"/>
       <use xlink:href="#DejaVuSans-35" x="63.623047"/>
       <use xlink:href="#DejaVuSans-30" x="127.246094"/>
      </g>
     </g>
    </g>
    <g id="ytick_31">
     <g id="line2d_41">
      <g>
       <use xlink:href="#m1244674504" x="318.966" y="104.371913" style="stroke: #000000; stroke-width: 0.8"/>
      </g>
     </g>
     <g id="text_47">
      <!-- 200 -->
      <g transform="translate(292.8785 108.171132) scale(0.1 -0.1)">
       <use xlink:href="#DejaVuSans-32"/>
       <use xlink:href="#DejaVuSans-30" x="63.623047"/>
       <use xlink:href="#DejaVuSans-30" x="127.246094"/>
      </g>
     </g>
    </g>
    <g id="ytick_32">
     <g id="line2d_42">
      <g>
       <use xlink:href="#m1244674504" x="318.966" y="50.954891" style="stroke: #000000; stroke-width: 0.8"/>
      </g>
     </g>
     <g id="text_48">
      <!-- 250 -->
      <g transform="translate(292.8785 54.75411) scale(0.1 -0.1)">
       <use xlink:href="#DejaVuSans-32"/>
       <use xlink:href="#DejaVuSans-35" x="63.623047"/>
       <use xlink:href="#DejaVuSans-30" x="127.246094"/>
      </g>
     </g>
    </g>
   </g>
   <g id="patch_73">
    <path d="M 318.966 318.04 
L 318.966 26.88 
" style="fill: none; stroke: #000000; stroke-width: 0.8; stroke-linejoin: miter; stroke-linecap: square"/>
   </g>
   <g id="patch_74">
    <path d="M 349.2 318.04 
L 349.2 26.88 
" style="fill: none; stroke: #000000; stroke-width: 0.8; stroke-linejoin: miter; stroke-linecap: square"/>
   </g>
   <g id="patch_75">
    <path d="M 318.966 318.04 
L 349.2 318.04 
" style="fill: none; stroke: #000000; stroke-width: 0.8; stroke-linejoin: miter; stroke-linecap: square"/>
   </g>
   <g id="patch_76">
    <path d="M 318.966 26.88 
L 349.2 26.88 
" style="fill: none; stroke: #000000; stroke-width: 0.8; stroke-linejoin: miter; stroke-linecap: square"/>
   </g>
   <g id="text_49">
    <!-- Overall -->
    <g transform="translate(312.639562 20.88) scale(0.12 -0.12)">
     <defs>
      <path id="DejaVuSans-76" d="M 191 3500 
L 800 3500 
L 1894 563 
L 2988 3500 
L 3597 3500 
L 2284 0 
L 1503 0 
L 191 3500 
z
" transform="scale(0.015625)"/>
     </defs>
     <use xlink:href="#DejaVuSans-4f"/>
     <use xlink:href="#DejaVuSans-76" x="78.710938"/>
     <use xlink:href="#DejaVuSans-65" x="137.890625"/>
     <use xlink:href="#DejaVuSans-72" x="199.414062"/>
     <use xlink:href="#DejaVuSans-61" x="240.527344"/>
     <use xlink:href="#DejaVuSans-6c" x="301.806641"/>
     <use xlink:href="#DejaVuSans-6c" x="329.589844"/>
    </g>
   </g>
  </g>
 </g>
 <defs>
  <clipPath id="pd7537c9f7a">
   <rect x="50.87" y="26.88" width="30.234" height="291.16"/>
  </clipPath>
  <clipPath id="p48c4ecd9f2">
   <rect x="117.894" y="26.88" width="30.234" height="291.16"/>
  </clipPath>
  <clipPath id="p649771b7c0">
   <rect x="184.918" y="26.88" width="30.234" height="291.16"/>
  </clipPath>
  <clipPath id="pfd94ab6b36">
   <rect x="251.942" y="26.88" width="30.234" height="291.16"/>
  </clipPath>
  <clipPath id="pf78886072c">
   <rect x="318.966" y="26.88" width="30.234" height="291.16"/>
  </clipPath>
 </defs>
</svg>
