<?xml version="1.0" encoding="utf-8" standalone="no"?>
<!DOCTYPE svg PUBLIC "-//W3C//DTD SVG 1.1//EN"
  "http://www.w3.org/Graphics/SVG/1.1/DTD/svg11.dtd">
<svg xmlns:xlink="http://www.w3.org/1999/xlink" width="396pt" height="504pt" viewBox="0 0 396 504" xmlns="http://www.w3.org/2000/svg" version="1.1">
 <metadata>
  <rdf:RDF xmlns:dc="http://purl.org/dc/elements/1.1/" xmlns:cc="http://creativecommons.org/ns#" xmlns:rdf="http://www.w3.org/1999/02/22-rdf-syntax-ns#">
   <cc:Work>
    <dc:type rdf:resource="http://purl.org/dc/dcmitype/StillImage"/>
    <dc:date>2023-05-26T20:21:37.090707</dc:date>
    <dc:format>image/svg+xml</dc:format>
    <dc:creator>
     <cc:Agent>
      <dc:title>Matplotlib v3.7.1, https://matplotlib.org/</dc:title>
     </cc:Agent>
    </dc:creator>
   </cc:Work>
  </rdf:RDF>
 </metadata>
 <defs>
  <style type="text/css">*{stroke-linejoin: round; stroke-linecap: butt}</style>
 </defs>
 <g id="figure_1">
  <g id="patch_1">
   <path d="M 0 504 
L 396 504 
L 396 0 
L 0 0 
z
" style="fill: #ffffff"/>
  </g>
  <g id="axes_1">
   <g id="patch_2">
    <path d="M 44.66 462.04 
L 88.304 462.04 
L 88.304 25.44 
L 44.66 25.44 
z
" style="fill: #ffffff"/>
   </g>
   <g id="patch_3">
    <path d="M 46.643818 462.04 
L 50.611455 462.04 
L 50.611455 462.04 
L 46.643818 462.04 
z
" clip-path="url(#p220f109c28)"/>
   </g>
   <g id="patch_4">
    <path d="M 50.611455 462.04 
L 54.579091 462.04 
L 54.579091 137.480787 
L 50.611455 137.480787 
z
" clip-path="url(#p220f109c28)" style="fill: #0074d9"/>
   </g>
   <g id="patch_5">
    <path d="M 54.579091 462.04 
L 58.546727 462.04 
L 58.546727 129.024106 
L 54.579091 129.024106 
z
" clip-path="url(#p220f109c28)" style="fill: #ff4136"/>
   </g>
   <g id="patch_6">
    <path d="M 58.546727 462.04 
L 62.514364 462.04 
L 62.514364 150.745499 
L 58.546727 150.745499 
z
" clip-path="url(#p220f109c28)" style="fill: #2ecc40"/>
   </g>
   <g id="patch_7">
    <path d="M 62.514364 462.04 
L 66.482 462.04 
L 66.482 232.482044 
L 62.514364 232.482044 
z
" clip-path="url(#p220f109c28)" style="fill: #ffdc00"/>
   </g>
   <g id="patch_8">
    <path d="M 66.482 462.04 
L 70.449636 462.04 
L 70.449636 161.964241 
L 66.482 161.964241 
z
" clip-path="url(#p220f109c28)" style="fill: #aaaaaa"/>
   </g>
   <g id="patch_9">
    <path d="M 70.449636 462.04 
L 74.417273 462.04 
L 74.417273 338.054152 
L 70.449636 338.054152 
z
" clip-path="url(#p220f109c28)" style="fill: #f012be"/>
   </g>
   <g id="patch_10">
    <path d="M 74.417273 462.04 
L 78.384909 462.04 
L 78.384909 382.11073 
L 74.417273 382.11073 
z
" clip-path="url(#p220f109c28)" style="fill: #ff851b"/>
   </g>
   <g id="patch_11">
    <path d="M 78.384909 462.04 
L 82.352545 462.04 
L 82.352545 46.230476 
L 78.384909 46.230476 
z
" clip-path="url(#p220f109c28)" style="fill: #7fdbff"/>
   </g>
   <g id="patch_12">
    <path d="M 82.352545 462.04 
L 86.320182 462.04 
L 86.320182 393.568168 
L 82.352545 393.568168 
z
" clip-path="url(#p220f109c28)" style="fill: #870c25"/>
   </g>
   <g id="matplotlib.axis_1">
    <g id="xtick_1">
     <g id="line2d_1">
      <defs>
       <path id="mbd64cdbd01" d="M 0 0 
L 0 3.5 
" style="stroke: #000000; stroke-width: 0.8"/>
      </defs>
      <g>
       <use xlink:href="#mbd64cdbd01" x="46.643818" y="462.04" style="stroke: #000000; stroke-width: 0.8"/>
      </g>
     </g>
     <g id="text_1">
      <!-- 0 -->
      <g transform="translate(43.462568 476.638438) scale(0.1 -0.1)">
       <defs>
        <path id="DejaVuSans-30" d="M 2034 4250 
Q 1547 4250 1301 3770 
Q 1056 3291 1056 2328 
Q 1056 1369 1301 889 
Q 1547 409 2034 409 
Q 2525 409 2770 889 
Q 3016 1369 3016 2328 
Q 3016 3291 2770 3770 
Q 2525 4250 2034 4250 
z
M 2034 4750 
Q 2819 4750 3233 4129 
Q 3647 3509 3647 2328 
Q 3647 1150 3233 529 
Q 2819 -91 2034 -91 
Q 1250 -91 836 529 
Q 422 1150 422 2328 
Q 422 3509 836 4129 
Q 1250 4750 2034 4750 
z
" transform="scale(0.015625)"/>
       </defs>
       <use xlink:href="#DejaVuSans-30"/>
      </g>
     </g>
    </g>
    <g id="xtick_2">
     <g id="line2d_2">
      <g>
       <use xlink:href="#mbd64cdbd01" x="68.686242" y="462.04" style="stroke: #000000; stroke-width: 0.8"/>
      </g>
     </g>
     <g id="text_2">
      <!-- 5 -->
      <g transform="translate(65.504992 476.638438) scale(0.1 -0.1)">
       <defs>
        <path id="DejaVuSans-35" d="M 691 4666 
L 3169 4666 
L 3169 4134 
L 1269 4134 
L 1269 2991 
Q 1406 3038 1543 3061 
Q 1681 3084 1819 3084 
Q 2600 3084 3056 2656 
Q 3513 2228 3513 1497 
Q 3513 744 3044 326 
Q 2575 -91 1722 -91 
Q 1428 -91 1123 -41 
Q 819 9 494 109 
L 494 744 
Q 775 591 1075 516 
Q 1375 441 1709 441 
Q 2250 441 2565 725 
Q 2881 1009 2881 1497 
Q 2881 1984 2565 2268 
Q 2250 2553 1709 2553 
Q 1456 2553 1204 2497 
Q 953 2441 691 2322 
L 691 4666 
z
" transform="scale(0.015625)"/>
       </defs>
       <use xlink:href="#DejaVuSans-35"/>
      </g>
     </g>
    </g>
   </g>
   <g id="matplotlib.axis_2">
    <g id="ytick_1">
     <g id="line2d_3">
      <defs>
       <path id="m19d67b5c4f" d="M 0 0 
L -3.5 0 
" style="stroke: #000000; stroke-width: 0.8"/>
      </defs>
      <g>
       <use xlink:href="#m19d67b5c4f" x="44.66" y="462.04" style="stroke: #000000; stroke-width: 0.8"/>
      </g>
     </g>
     <g id="text_3">
      <!-- 0 -->
      <g transform="translate(31.2975 465.839219) scale(0.1 -0.1)">
       <use xlink:href="#DejaVuSans-30"/>
      </g>
     </g>
    </g>
    <g id="ytick_2">
     <g id="line2d_4">
      <g>
       <use xlink:href="#m19d67b5c4f" x="44.66" y="393.840964" style="stroke: #000000; stroke-width: 0.8"/>
      </g>
     </g>
     <g id="text_4">
      <!-- 2 -->
      <g transform="translate(31.2975 397.640183) scale(0.1 -0.1)">
       <defs>
        <path id="DejaVuSans-32" d="M 1228 531 
L 3431 531 
L 3431 0 
L 469 0 
L 469 531 
Q 828 903 1448 1529 
Q 2069 2156 2228 2338 
Q 2531 2678 2651 2914 
Q 2772 3150 2772 3378 
Q 2772 3750 2511 3984 
Q 2250 4219 1831 4219 
Q 1534 4219 1204 4116 
Q 875 4013 500 3803 
L 500 4441 
Q 881 4594 1212 4672 
Q 1544 4750 1819 4750 
Q 2544 4750 2975 4387 
Q 3406 4025 3406 3419 
Q 3406 3131 3298 2873 
Q 3191 2616 2906 2266 
Q 2828 2175 2409 1742 
Q 1991 1309 1228 531 
z
" transform="scale(0.015625)"/>
       </defs>
       <use xlink:href="#DejaVuSans-32"/>
      </g>
     </g>
    </g>
    <g id="ytick_3">
     <g id="line2d_5">
      <g>
       <use xlink:href="#m19d67b5c4f" x="44.66" y="325.641928" style="stroke: #000000; stroke-width: 0.8"/>
      </g>
     </g>
     <g id="text_5">
      <!-- 4 -->
      <g transform="translate(31.2975 329.441146) scale(0.1 -0.1)">
       <defs>
        <path id="DejaVuSans-34" d="M 2419 4116 
L 825 1625 
L 2419 1625 
L 2419 4116 
z
M 2253 4666 
L 3047 4666 
L 3047 1625 
L 3713 1625 
L 3713 1100 
L 3047 1100 
L 3047 0 
L 2419 0 
L 2419 1100 
L 313 1100 
L 313 1709 
L 2253 4666 
z
" transform="scale(0.015625)"/>
       </defs>
       <use xlink:href="#DejaVuSans-34"/>
      </g>
     </g>
    </g>
    <g id="ytick_4">
     <g id="line2d_6">
      <g>
       <use xlink:href="#m19d67b5c4f" x="44.66" y="257.442891" style="stroke: #000000; stroke-width: 0.8"/>
      </g>
     </g>
     <g id="text_6">
      <!-- 6 -->
      <g transform="translate(31.2975 261.24211) scale(0.1 -0.1)">
       <defs>
        <path id="DejaVuSans-36" d="M 2113 2584 
Q 1688 2584 1439 2293 
Q 1191 2003 1191 1497 
Q 1191 994 1439 701 
Q 1688 409 2113 409 
Q 2538 409 2786 701 
Q 3034 994 3034 1497 
Q 3034 2003 2786 2293 
Q 2538 2584 2113 2584 
z
M 3366 4563 
L 3366 3988 
Q 3128 4100 2886 4159 
Q 2644 4219 2406 4219 
Q 1781 4219 1451 3797 
Q 1122 3375 1075 2522 
Q 1259 2794 1537 2939 
Q 1816 3084 2150 3084 
Q 2853 3084 3261 2657 
Q 3669 2231 3669 1497 
Q 3669 778 3244 343 
Q 2819 -91 2113 -91 
Q 1303 -91 875 529 
Q 447 1150 447 2328 
Q 447 3434 972 4092 
Q 1497 4750 2381 4750 
Q 2619 4750 2861 4703 
Q 3103 4656 3366 4563 
z
" transform="scale(0.015625)"/>
       </defs>
       <use xlink:href="#DejaVuSans-36"/>
      </g>
     </g>
    </g>
    <g id="ytick_5">
     <g id="line2d_7">
      <g>
       <use xlink:href="#m19d67b5c4f" x="44.66" y="189.243855" style="stroke: #000000; stroke-width: 0.8"/>
      </g>
     </g>
     <g id="text_7">
      <!-- 8 -->
      <g transform="translate(31.2975 193.043074) scale(0.1 -0.1)">
       <defs>
        <path id="DejaVuSans-38" d="M 2034 2216 
Q 1584 2216 1326 1975 
Q 1069 1734 1069 1313 
Q 1069 891 1326 650 
Q 1584 409 2034 409 
Q 2484 409 2743 651 
Q 3003 894 3003 1313 
Q 3003 1734 2745 1975 
Q 2488 2216 2034 2216 
z
M 1403 2484 
Q 997 2584 770 2862 
Q 544 3141 544 3541 
Q 544 4100 942 4425 
Q 1341 4750 2034 4750 
Q 2731 4750 3128 4425 
Q 3525 4100 3525 3541 
Q 3525 3141 3298 2862 
Q 3072 2584 2669 2484 
Q 3125 2378 3379 2068 
Q 3634 1759 3634 1313 
Q 3634 634 3220 271 
Q 2806 -91 2034 -91 
Q 1263 -91 848 271 
Q 434 634 434 1313 
Q 434 1759 690 2068 
Q 947 2378 1403 2484 
z
M 1172 3481 
Q 1172 3119 1398 2916 
Q 1625 2713 2034 2713 
Q 2441 2713 2670 2916 
Q 2900 3119 2900 3481 
Q 2900 3844 2670 4047 
Q 2441 4250 2034 4250 
Q 1625 4250 1398 4047 
Q 1172 3844 1172 3481 
z
" transform="scale(0.015625)"/>
       </defs>
       <use xlink:href="#DejaVuSans-38"/>
      </g>
     </g>
    </g>
    <g id="ytick_6">
     <g id="line2d_8">
      <g>
       <use xlink:href="#m19d67b5c4f" x="44.66" y="121.044819" style="stroke: #000000; stroke-width: 0.8"/>
      </g>
     </g>
     <g id="text_8">
      <!-- 10 -->
      <g transform="translate(24.935 124.844038) scale(0.1 -0.1)">
       <defs>
        <path id="DejaVuSans-31" d="M 794 531 
L 1825 531 
L 1825 4091 
L 703 3866 
L 703 4441 
L 1819 4666 
L 2450 4666 
L 2450 531 
L 3481 531 
L 3481 0 
L 794 0 
L 794 531 
z
" transform="scale(0.015625)"/>
       </defs>
       <use xlink:href="#DejaVuSans-31"/>
       <use xlink:href="#DejaVuSans-30" x="63.623047"/>
      </g>
     </g>
    </g>
    <g id="ytick_7">
     <g id="line2d_9">
      <g>
       <use xlink:href="#m19d67b5c4f" x="44.66" y="52.845783" style="stroke: #000000; stroke-width: 0.8"/>
      </g>
     </g>
     <g id="text_9">
      <!-- 12 -->
      <g transform="translate(24.935 56.645001) scale(0.1 -0.1)">
       <use xlink:href="#DejaVuSans-31"/>
       <use xlink:href="#DejaVuSans-32" x="63.623047"/>
      </g>
     </g>
    </g>
    <g id="text_10">
     <!-- Count (in 1000) -->
     <g transform="translate(18.855313 282.950938) rotate(-90) scale(0.1 -0.1)">
      <defs>
       <path id="DejaVuSans-43" d="M 4122 4306 
L 4122 3641 
Q 3803 3938 3442 4084 
Q 3081 4231 2675 4231 
Q 1875 4231 1450 3742 
Q 1025 3253 1025 2328 
Q 1025 1406 1450 917 
Q 1875 428 2675 428 
Q 3081 428 3442 575 
Q 3803 722 4122 1019 
L 4122 359 
Q 3791 134 3420 21 
Q 3050 -91 2638 -91 
Q 1578 -91 968 557 
Q 359 1206 359 2328 
Q 359 3453 968 4101 
Q 1578 4750 2638 4750 
Q 3056 4750 3426 4639 
Q 3797 4528 4122 4306 
z
" transform="scale(0.015625)"/>
       <path id="DejaVuSans-6f" d="M 1959 3097 
Q 1497 3097 1228 2736 
Q 959 2375 959 1747 
Q 959 1119 1226 758 
Q 1494 397 1959 397 
Q 2419 397 2687 759 
Q 2956 1122 2956 1747 
Q 2956 2369 2687 2733 
Q 2419 3097 1959 3097 
z
M 1959 3584 
Q 2709 3584 3137 3096 
Q 3566 2609 3566 1747 
Q 3566 888 3137 398 
Q 2709 -91 1959 -91 
Q 1206 -91 779 398 
Q 353 888 353 1747 
Q 353 2609 779 3096 
Q 1206 3584 1959 3584 
z
" transform="scale(0.015625)"/>
       <path id="DejaVuSans-75" d="M 544 1381 
L 544 3500 
L 1119 3500 
L 1119 1403 
Q 1119 906 1312 657 
Q 1506 409 1894 409 
Q 2359 409 2629 706 
Q 2900 1003 2900 1516 
L 2900 3500 
L 3475 3500 
L 3475 0 
L 2900 0 
L 2900 538 
Q 2691 219 2414 64 
Q 2138 -91 1772 -91 
Q 1169 -91 856 284 
Q 544 659 544 1381 
z
M 1991 3584 
L 1991 3584 
z
" transform="scale(0.015625)"/>
       <path id="DejaVuSans-6e" d="M 3513 2113 
L 3513 0 
L 2938 0 
L 2938 2094 
Q 2938 2591 2744 2837 
Q 2550 3084 2163 3084 
Q 1697 3084 1428 2787 
Q 1159 2491 1159 1978 
L 1159 0 
L 581 0 
L 581 3500 
L 1159 3500 
L 1159 2956 
Q 1366 3272 1645 3428 
Q 1925 3584 2291 3584 
Q 2894 3584 3203 3211 
Q 3513 2838 3513 2113 
z
" transform="scale(0.015625)"/>
       <path id="DejaVuSans-74" d="M 1172 4494 
L 1172 3500 
L 2356 3500 
L 2356 3053 
L 1172 3053 
L 1172 1153 
Q 1172 725 1289 603 
Q 1406 481 1766 481 
L 2356 481 
L 2356 0 
L 1766 0 
Q 1100 0 847 248 
Q 594 497 594 1153 
L 594 3053 
L 172 3053 
L 172 3500 
L 594 3500 
L 594 4494 
L 1172 4494 
z
" transform="scale(0.015625)"/>
       <path id="DejaVuSans-20" transform="scale(0.015625)"/>
       <path id="DejaVuSans-28" d="M 1984 4856 
Q 1566 4138 1362 3434 
Q 1159 2731 1159 2009 
Q 1159 1288 1364 580 
Q 1569 -128 1984 -844 
L 1484 -844 
Q 1016 -109 783 600 
Q 550 1309 550 2009 
Q 550 2706 781 3412 
Q 1013 4119 1484 4856 
L 1984 4856 
z
" transform="scale(0.015625)"/>
       <path id="DejaVuSans-69" d="M 603 3500 
L 1178 3500 
L 1178 0 
L 603 0 
L 603 3500 
z
M 603 4863 
L 1178 4863 
L 1178 4134 
L 603 4134 
L 603 4863 
z
" transform="scale(0.015625)"/>
       <path id="DejaVuSans-29" d="M 513 4856 
L 1013 4856 
Q 1481 4119 1714 3412 
Q 1947 2706 1947 2009 
Q 1947 1309 1714 600 
Q 1481 -109 1013 -844 
L 513 -844 
Q 928 -128 1133 580 
Q 1338 1288 1338 2009 
Q 1338 2731 1133 3434 
Q 928 4138 513 4856 
z
" transform="scale(0.015625)"/>
      </defs>
      <use xlink:href="#DejaVuSans-43"/>
      <use xlink:href="#DejaVuSans-6f" x="69.824219"/>
      <use xlink:href="#DejaVuSans-75" x="131.005859"/>
      <use xlink:href="#DejaVuSans-6e" x="194.384766"/>
      <use xlink:href="#DejaVuSans-74" x="257.763672"/>
      <use xlink:href="#DejaVuSans-20" x="296.972656"/>
      <use xlink:href="#DejaVuSans-28" x="328.759766"/>
      <use xlink:href="#DejaVuSans-69" x="367.773438"/>
      <use xlink:href="#DejaVuSans-6e" x="395.556641"/>
      <use xlink:href="#DejaVuSans-20" x="458.935547"/>
      <use xlink:href="#DejaVuSans-31" x="490.722656"/>
      <use xlink:href="#DejaVuSans-30" x="554.345703"/>
      <use xlink:href="#DejaVuSans-30" x="617.96875"/>
      <use xlink:href="#DejaVuSans-30" x="681.591797"/>
      <use xlink:href="#DejaVuSans-29" x="745.214844"/>
     </g>
    </g>
   </g>
   <g id="patch_13">
    <path d="M 44.66 462.04 
L 44.66 25.44 
" style="fill: none; stroke: #000000; stroke-width: 0.8; stroke-linejoin: miter; stroke-linecap: square"/>
   </g>
   <g id="patch_14">
    <path d="M 88.304 462.04 
L 88.304 25.44 
" style="fill: none; stroke: #000000; stroke-width: 0.8; stroke-linejoin: miter; stroke-linecap: square"/>
   </g>
   <g id="patch_15">
    <path d="M 44.66 462.04 
L 88.304 462.04 
" style="fill: none; stroke: #000000; stroke-width: 0.8; stroke-linejoin: miter; stroke-linecap: square"/>
   </g>
   <g id="patch_16">
    <path d="M 44.66 25.44 
L 88.304 25.44 
" style="fill: none; stroke: #000000; stroke-width: 0.8; stroke-linejoin: miter; stroke-linecap: square"/>
   </g>
   <g id="text_11">
    <!-- Train Inputs -->
    <g transform="translate(31.52075 19.44) scale(0.12 -0.12)">
     <defs>
      <path id="DejaVuSans-54" d="M -19 4666 
L 3928 4666 
L 3928 4134 
L 2272 4134 
L 2272 0 
L 1638 0 
L 1638 4134 
L -19 4134 
L -19 4666 
z
" transform="scale(0.015625)"/>
      <path id="DejaVuSans-72" d="M 2631 2963 
Q 2534 3019 2420 3045 
Q 2306 3072 2169 3072 
Q 1681 3072 1420 2755 
Q 1159 2438 1159 1844 
L 1159 0 
L 581 0 
L 581 3500 
L 1159 3500 
L 1159 2956 
Q 1341 3275 1631 3429 
Q 1922 3584 2338 3584 
Q 2397 3584 2469 3576 
Q 2541 3569 2628 3553 
L 2631 2963 
z
" transform="scale(0.015625)"/>
      <path id="DejaVuSans-61" d="M 2194 1759 
Q 1497 1759 1228 1600 
Q 959 1441 959 1056 
Q 959 750 1161 570 
Q 1363 391 1709 391 
Q 2188 391 2477 730 
Q 2766 1069 2766 1631 
L 2766 1759 
L 2194 1759 
z
M 3341 1997 
L 3341 0 
L 2766 0 
L 2766 531 
Q 2569 213 2275 61 
Q 1981 -91 1556 -91 
Q 1019 -91 701 211 
Q 384 513 384 1019 
Q 384 1609 779 1909 
Q 1175 2209 1959 2209 
L 2766 2209 
L 2766 2266 
Q 2766 2663 2505 2880 
Q 2244 3097 1772 3097 
Q 1472 3097 1187 3025 
Q 903 2953 641 2809 
L 641 3341 
Q 956 3463 1253 3523 
Q 1550 3584 1831 3584 
Q 2591 3584 2966 3190 
Q 3341 2797 3341 1997 
z
" transform="scale(0.015625)"/>
      <path id="DejaVuSans-49" d="M 628 4666 
L 1259 4666 
L 1259 0 
L 628 0 
L 628 4666 
z
" transform="scale(0.015625)"/>
      <path id="DejaVuSans-70" d="M 1159 525 
L 1159 -1331 
L 581 -1331 
L 581 3500 
L 1159 3500 
L 1159 2969 
Q 1341 3281 1617 3432 
Q 1894 3584 2278 3584 
Q 2916 3584 3314 3078 
Q 3713 2572 3713 1747 
Q 3713 922 3314 415 
Q 2916 -91 2278 -91 
Q 1894 -91 1617 61 
Q 1341 213 1159 525 
z
M 3116 1747 
Q 3116 2381 2855 2742 
Q 2594 3103 2138 3103 
Q 1681 3103 1420 2742 
Q 1159 2381 1159 1747 
Q 1159 1113 1420 752 
Q 1681 391 2138 391 
Q 2594 391 2855 752 
Q 3116 1113 3116 1747 
z
" transform="scale(0.015625)"/>
      <path id="DejaVuSans-73" d="M 2834 3397 
L 2834 2853 
Q 2591 2978 2328 3040 
Q 2066 3103 1784 3103 
Q 1356 3103 1142 2972 
Q 928 2841 928 2578 
Q 928 2378 1081 2264 
Q 1234 2150 1697 2047 
L 1894 2003 
Q 2506 1872 2764 1633 
Q 3022 1394 3022 966 
Q 3022 478 2636 193 
Q 2250 -91 1575 -91 
Q 1294 -91 989 -36 
Q 684 19 347 128 
L 347 722 
Q 666 556 975 473 
Q 1284 391 1588 391 
Q 1994 391 2212 530 
Q 2431 669 2431 922 
Q 2431 1156 2273 1281 
Q 2116 1406 1581 1522 
L 1381 1569 
Q 847 1681 609 1914 
Q 372 2147 372 2553 
Q 372 3047 722 3315 
Q 1072 3584 1716 3584 
Q 2034 3584 2315 3537 
Q 2597 3491 2834 3397 
z
" transform="scale(0.015625)"/>
     </defs>
     <use xlink:href="#DejaVuSans-54"/>
     <use xlink:href="#DejaVuSans-72" x="46.333984"/>
     <use xlink:href="#DejaVuSans-61" x="87.447266"/>
     <use xlink:href="#DejaVuSans-69" x="148.726562"/>
     <use xlink:href="#DejaVuSans-6e" x="176.509766"/>
     <use xlink:href="#DejaVuSans-20" x="239.888672"/>
     <use xlink:href="#DejaVuSans-49" x="271.675781"/>
     <use xlink:href="#DejaVuSans-6e" x="301.167969"/>
     <use xlink:href="#DejaVuSans-70" x="364.546875"/>
     <use xlink:href="#DejaVuSans-75" x="428.023438"/>
     <use xlink:href="#DejaVuSans-74" x="491.402344"/>
     <use xlink:href="#DejaVuSans-73" x="530.611328"/>
    </g>
   </g>
  </g>
  <g id="axes_2">
   <g id="patch_17">
    <path d="M 118.884 462.04 
L 162.528 462.04 
L 162.528 25.44 
L 118.884 25.44 
z
" style="fill: #ffffff"/>
   </g>
   <g id="patch_18">
    <path d="M 120.867818 462.04 
L 124.835455 462.04 
L 124.835455 462.04 
L 120.867818 462.04 
z
" clip-path="url(#p5c435a3740)"/>
   </g>
   <g id="patch_19">
    <path d="M 124.835455 462.04 
L 128.803091 462.04 
L 128.803091 215.270727 
L 124.835455 215.270727 
z
" clip-path="url(#p5c435a3740)" style="fill: #0074d9"/>
   </g>
   <g id="patch_20">
    <path d="M 128.803091 462.04 
L 132.770727 462.04 
L 132.770727 74.442658 
L 128.803091 74.442658 
z
" clip-path="url(#p5c435a3740)" style="fill: #ff4136"/>
   </g>
   <g id="patch_21">
    <path d="M 132.770727 462.04 
L 136.738364 462.04 
L 136.738364 46.230476 
L 132.770727 46.230476 
z
" clip-path="url(#p5c435a3740)" style="fill: #2ecc40"/>
   </g>
   <g id="patch_22">
    <path d="M 136.738364 462.04 
L 140.706 462.04 
L 140.706 196.216833 
L 136.738364 196.216833 
z
" clip-path="url(#p5c435a3740)" style="fill: #ffdc00"/>
   </g>
   <g id="patch_23">
    <path d="M 140.706 462.04 
L 144.673636 462.04 
L 144.673636 209.372169 
L 140.706 209.372169 
z
" clip-path="url(#p5c435a3740)" style="fill: #aaaaaa"/>
   </g>
   <g id="patch_24">
    <path d="M 144.673636 462.04 
L 148.641273 462.04 
L 148.641273 326.800038 
L 144.673636 326.800038 
z
" clip-path="url(#p5c435a3740)" style="fill: #f012be"/>
   </g>
   <g id="patch_25">
    <path d="M 148.641273 462.04 
L 152.608909 462.04 
L 152.608909 371.388479 
L 148.641273 371.388479 
z
" clip-path="url(#p5c435a3740)" style="fill: #ff851b"/>
   </g>
   <g id="patch_26">
    <path d="M 152.608909 462.04 
L 156.576545 462.04 
L 156.576545 95.747317 
L 152.608909 95.747317 
z
" clip-path="url(#p5c435a3740)" style="fill: #7fdbff"/>
   </g>
   <g id="patch_27">
    <path d="M 156.576545 462.04 
L 160.544182 462.04 
L 160.544182 406.973858 
L 156.576545 406.973858 
z
" clip-path="url(#p5c435a3740)" style="fill: #870c25"/>
   </g>
   <g id="matplotlib.axis_3">
    <g id="xtick_3">
     <g id="line2d_10">
      <g>
       <use xlink:href="#mbd64cdbd01" x="120.867818" y="462.04" style="stroke: #000000; stroke-width: 0.8"/>
      </g>
     </g>
     <g id="text_12">
      <!-- 0 -->
      <g transform="translate(117.686568 476.638438) scale(0.1 -0.1)">
       <use xlink:href="#DejaVuSans-30"/>
      </g>
     </g>
    </g>
    <g id="xtick_4">
     <g id="line2d_11">
      <g>
       <use xlink:href="#mbd64cdbd01" x="142.910242" y="462.04" style="stroke: #000000; stroke-width: 0.8"/>
      </g>
     </g>
     <g id="text_13">
      <!-- 5 -->
      <g transform="translate(139.728992 476.638438) scale(0.1 -0.1)">
       <use xlink:href="#DejaVuSans-35"/>
      </g>
     </g>
    </g>
   </g>
   <g id="matplotlib.axis_4">
    <g id="ytick_8">
     <g id="line2d_12">
      <g>
       <use xlink:href="#m19d67b5c4f" x="118.884" y="462.04" style="stroke: #000000; stroke-width: 0.8"/>
      </g>
     </g>
     <g id="text_14">
      <!-- 0 -->
      <g transform="translate(105.5215 465.839219) scale(0.1 -0.1)">
       <use xlink:href="#DejaVuSans-30"/>
      </g>
     </g>
    </g>
    <g id="ytick_9">
     <g id="line2d_13">
      <g>
       <use xlink:href="#m19d67b5c4f" x="118.884" y="384.427396" style="stroke: #000000; stroke-width: 0.8"/>
      </g>
     </g>
     <g id="text_15">
      <!-- 2 -->
      <g transform="translate(105.5215 388.226615) scale(0.1 -0.1)">
       <use xlink:href="#DejaVuSans-32"/>
      </g>
     </g>
    </g>
    <g id="ytick_10">
     <g id="line2d_14">
      <g>
       <use xlink:href="#m19d67b5c4f" x="118.884" y="306.814793" style="stroke: #000000; stroke-width: 0.8"/>
      </g>
     </g>
     <g id="text_16">
      <!-- 4 -->
      <g transform="translate(105.5215 310.614012) scale(0.1 -0.1)">
       <use xlink:href="#DejaVuSans-34"/>
      </g>
     </g>
    </g>
    <g id="ytick_11">
     <g id="line2d_15">
      <g>
       <use xlink:href="#m19d67b5c4f" x="118.884" y="229.202189" style="stroke: #000000; stroke-width: 0.8"/>
      </g>
     </g>
     <g id="text_17">
      <!-- 6 -->
      <g transform="translate(105.5215 233.001408) scale(0.1 -0.1)">
       <use xlink:href="#DejaVuSans-36"/>
      </g>
     </g>
    </g>
    <g id="ytick_12">
     <g id="line2d_16">
      <g>
       <use xlink:href="#m19d67b5c4f" x="118.884" y="151.589586" style="stroke: #000000; stroke-width: 0.8"/>
      </g>
     </g>
     <g id="text_18">
      <!-- 8 -->
      <g transform="translate(105.5215 155.388804) scale(0.1 -0.1)">
       <use xlink:href="#DejaVuSans-38"/>
      </g>
     </g>
    </g>
    <g id="ytick_13">
     <g id="line2d_17">
      <g>
       <use xlink:href="#m19d67b5c4f" x="118.884" y="73.976982" style="stroke: #000000; stroke-width: 0.8"/>
      </g>
     </g>
     <g id="text_19">
      <!-- 10 -->
      <g transform="translate(99.159 77.776201) scale(0.1 -0.1)">
       <use xlink:href="#DejaVuSans-31"/>
       <use xlink:href="#DejaVuSans-30" x="63.623047"/>
      </g>
     </g>
    </g>
   </g>
   <g id="patch_28">
    <path d="M 118.884 462.04 
L 118.884 25.44 
" style="fill: none; stroke: #000000; stroke-width: 0.8; stroke-linejoin: miter; stroke-linecap: square"/>
   </g>
   <g id="patch_29">
    <path d="M 162.528 462.04 
L 162.528 25.44 
" style="fill: none; stroke: #000000; stroke-width: 0.8; stroke-linejoin: miter; stroke-linecap: square"/>
   </g>
   <g id="patch_30">
    <path d="M 118.884 462.04 
L 162.528 462.04 
" style="fill: none; stroke: #000000; stroke-width: 0.8; stroke-linejoin: miter; stroke-linecap: square"/>
   </g>
   <g id="patch_31">
    <path d="M 118.884 25.44 
L 162.528 25.44 
" style="fill: none; stroke: #000000; stroke-width: 0.8; stroke-linejoin: miter; stroke-linecap: square"/>
   </g>
   <g id="text_20">
    <!-- Train Outputs -->
    <g transform="translate(100.439438 19.44) scale(0.12 -0.12)">
     <defs>
      <path id="DejaVuSans-4f" d="M 2522 4238 
Q 1834 4238 1429 3725 
Q 1025 3213 1025 2328 
Q 1025 1447 1429 934 
Q 1834 422 2522 422 
Q 3209 422 3611 934 
Q 4013 1447 4013 2328 
Q 4013 3213 3611 3725 
Q 3209 4238 2522 4238 
z
M 2522 4750 
Q 3503 4750 4090 4092 
Q 4678 3434 4678 2328 
Q 4678 1225 4090 567 
Q 3503 -91 2522 -91 
Q 1538 -91 948 565 
Q 359 1222 359 2328 
Q 359 3434 948 4092 
Q 1538 4750 2522 4750 
z
" transform="scale(0.015625)"/>
     </defs>
     <use xlink:href="#DejaVuSans-54"/>
     <use xlink:href="#DejaVuSans-72" x="46.333984"/>
     <use xlink:href="#DejaVuSans-61" x="87.447266"/>
     <use xlink:href="#DejaVuSans-69" x="148.726562"/>
     <use xlink:href="#DejaVuSans-6e" x="176.509766"/>
     <use xlink:href="#DejaVuSans-20" x="239.888672"/>
     <use xlink:href="#DejaVuSans-4f" x="271.675781"/>
     <use xlink:href="#DejaVuSans-75" x="350.386719"/>
     <use xlink:href="#DejaVuSans-74" x="413.765625"/>
     <use xlink:href="#DejaVuSans-70" x="452.974609"/>
     <use xlink:href="#DejaVuSans-75" x="516.451172"/>
     <use xlink:href="#DejaVuSans-74" x="579.830078"/>
     <use xlink:href="#DejaVuSans-73" x="619.039062"/>
    </g>
   </g>
  </g>
  <g id="axes_3">
   <g id="patch_32">
    <path d="M 193.108 462.04 
L 236.752 462.04 
L 236.752 25.44 
L 193.108 25.44 
z
" style="fill: #ffffff"/>
   </g>
   <g id="patch_33">
    <path d="M 195.091818 462.04 
L 199.059455 462.04 
L 199.059455 462.04 
L 195.091818 462.04 
z
" clip-path="url(#p5070eb99c5)"/>
   </g>
   <g id="patch_34">
    <path d="M 199.059455 462.04 
L 203.027091 462.04 
L 203.027091 143.551842 
L 199.059455 143.551842 
z
" clip-path="url(#p5070eb99c5)" style="fill: #0074d9"/>
   </g>
   <g id="patch_35">
    <path d="M 203.027091 462.04 
L 206.994727 462.04 
L 206.994727 89.406861 
L 203.027091 89.406861 
z
" clip-path="url(#p5070eb99c5)" style="fill: #ff4136"/>
   </g>
   <g id="patch_36">
    <path d="M 206.994727 462.04 
L 210.962364 462.04 
L 210.962364 80.233125 
L 206.994727 80.233125 
z
" clip-path="url(#p5070eb99c5)" style="fill: #2ecc40"/>
   </g>
   <g id="patch_37">
    <path d="M 210.962364 462.04 
L 214.93 462.04 
L 214.93 46.230476 
L 210.962364 46.230476 
z
" clip-path="url(#p5070eb99c5)" style="fill: #ffdc00"/>
   </g>
   <g id="patch_38">
    <path d="M 214.93 462.04 
L 218.897636 462.04 
L 218.897636 147.540423 
L 214.93 147.540423 
z
" clip-path="url(#p5070eb99c5)" style="fill: #aaaaaa"/>
   </g>
   <g id="patch_39">
    <path d="M 218.897636 462.04 
L 222.865273 462.04 
L 222.865273 365.217207 
L 218.897636 365.217207 
z
" clip-path="url(#p5070eb99c5)" style="fill: #f012be"/>
   </g>
   <g id="patch_40">
    <path d="M 222.865273 462.04 
L 226.832909 462.04 
L 226.832909 392.040411 
L 222.865273 392.040411 
z
" clip-path="url(#p5070eb99c5)" style="fill: #ff851b"/>
   </g>
   <g id="patch_41">
    <path d="M 226.832909 462.04 
L 230.800545 462.04 
L 230.800545 74.848542 
L 226.832909 74.848542 
z
" clip-path="url(#p5070eb99c5)" style="fill: #7fdbff"/>
   </g>
   <g id="patch_42">
    <path d="M 230.800545 462.04 
L 234.768182 462.04 
L 234.768182 362.325486 
L 230.800545 362.325486 
z
" clip-path="url(#p5070eb99c5)" style="fill: #870c25"/>
   </g>
   <g id="matplotlib.axis_5">
    <g id="xtick_5">
     <g id="line2d_18">
      <g>
       <use xlink:href="#mbd64cdbd01" x="195.091818" y="462.04" style="stroke: #000000; stroke-width: 0.8"/>
      </g>
     </g>
     <g id="text_21">
      <!-- 0 -->
      <g transform="translate(191.910568 476.638438) scale(0.1 -0.1)">
       <use xlink:href="#DejaVuSans-30"/>
      </g>
     </g>
    </g>
    <g id="xtick_6">
     <g id="line2d_19">
      <g>
       <use xlink:href="#mbd64cdbd01" x="217.134242" y="462.04" style="stroke: #000000; stroke-width: 0.8"/>
      </g>
     </g>
     <g id="text_22">
      <!-- 5 -->
      <g transform="translate(213.952992 476.638438) scale(0.1 -0.1)">
       <use xlink:href="#DejaVuSans-35"/>
      </g>
     </g>
    </g>
    <g id="text_23">
     <!-- Color -->
     <g transform="translate(201.875313 490.316563) scale(0.1 -0.1)">
      <defs>
       <path id="DejaVuSans-6c" d="M 603 4863 
L 1178 4863 
L 1178 0 
L 603 0 
L 603 4863 
z
" transform="scale(0.015625)"/>
      </defs>
      <use xlink:href="#DejaVuSans-43"/>
      <use xlink:href="#DejaVuSans-6f" x="69.824219"/>
      <use xlink:href="#DejaVuSans-6c" x="131.005859"/>
      <use xlink:href="#DejaVuSans-6f" x="158.789062"/>
      <use xlink:href="#DejaVuSans-72" x="219.970703"/>
     </g>
    </g>
   </g>
   <g id="matplotlib.axis_6">
    <g id="ytick_14">
     <g id="line2d_20">
      <g>
       <use xlink:href="#m19d67b5c4f" x="193.108" y="462.04" style="stroke: #000000; stroke-width: 0.8"/>
      </g>
     </g>
     <g id="text_24">
      <!-- 0 -->
      <g transform="translate(179.7455 465.839219) scale(0.1 -0.1)">
       <use xlink:href="#DejaVuSans-30"/>
      </g>
     </g>
    </g>
    <g id="ytick_15">
     <g id="line2d_21">
      <g>
       <use xlink:href="#m19d67b5c4f" x="193.108" y="412.182743" style="stroke: #000000; stroke-width: 0.8"/>
      </g>
     </g>
     <g id="text_25">
      <!-- 0 -->
      <g transform="translate(179.7455 415.981962) scale(0.1 -0.1)">
       <use xlink:href="#DejaVuSans-30"/>
      </g>
     </g>
    </g>
    <g id="ytick_16">
     <g id="line2d_22">
      <g>
       <use xlink:href="#m19d67b5c4f" x="193.108" y="362.325486" style="stroke: #000000; stroke-width: 0.8"/>
      </g>
     </g>
     <g id="text_26">
      <!-- 1 -->
      <g transform="translate(179.7455 366.124705) scale(0.1 -0.1)">
       <use xlink:href="#DejaVuSans-31"/>
      </g>
     </g>
    </g>
    <g id="ytick_17">
     <g id="line2d_23">
      <g>
       <use xlink:href="#m19d67b5c4f" x="193.108" y="312.468229" style="stroke: #000000; stroke-width: 0.8"/>
      </g>
     </g>
     <g id="text_27">
      <!-- 1 -->
      <g transform="translate(179.7455 316.267448) scale(0.1 -0.1)">
       <use xlink:href="#DejaVuSans-31"/>
      </g>
     </g>
    </g>
    <g id="ytick_18">
     <g id="line2d_24">
      <g>
       <use xlink:href="#m19d67b5c4f" x="193.108" y="262.610972" style="stroke: #000000; stroke-width: 0.8"/>
      </g>
     </g>
     <g id="text_28">
      <!-- 2 -->
      <g transform="translate(179.7455 266.410191) scale(0.1 -0.1)">
       <use xlink:href="#DejaVuSans-32"/>
      </g>
     </g>
    </g>
    <g id="ytick_19">
     <g id="line2d_25">
      <g>
       <use xlink:href="#m19d67b5c4f" x="193.108" y="212.753715" style="stroke: #000000; stroke-width: 0.8"/>
      </g>
     </g>
     <g id="text_29">
      <!-- 2 -->
      <g transform="translate(179.7455 216.552933) scale(0.1 -0.1)">
       <use xlink:href="#DejaVuSans-32"/>
      </g>
     </g>
    </g>
    <g id="ytick_20">
     <g id="line2d_26">
      <g>
       <use xlink:href="#m19d67b5c4f" x="193.108" y="162.896458" style="stroke: #000000; stroke-width: 0.8"/>
      </g>
     </g>
     <g id="text_30">
      <!-- 3 -->
      <g transform="translate(179.7455 166.695676) scale(0.1 -0.1)">
       <defs>
        <path id="DejaVuSans-33" d="M 2597 2516 
Q 3050 2419 3304 2112 
Q 3559 1806 3559 1356 
Q 3559 666 3084 287 
Q 2609 -91 1734 -91 
Q 1441 -91 1130 -33 
Q 819 25 488 141 
L 488 750 
Q 750 597 1062 519 
Q 1375 441 1716 441 
Q 2309 441 2620 675 
Q 2931 909 2931 1356 
Q 2931 1769 2642 2001 
Q 2353 2234 1838 2234 
L 1294 2234 
L 1294 2753 
L 1863 2753 
Q 2328 2753 2575 2939 
Q 2822 3125 2822 3475 
Q 2822 3834 2567 4026 
Q 2313 4219 1838 4219 
Q 1578 4219 1281 4162 
Q 984 4106 628 3988 
L 628 4550 
Q 988 4650 1302 4700 
Q 1616 4750 1894 4750 
Q 2613 4750 3031 4423 
Q 3450 4097 3450 3541 
Q 3450 3153 3228 2886 
Q 3006 2619 2597 2516 
z
" transform="scale(0.015625)"/>
       </defs>
       <use xlink:href="#DejaVuSans-33"/>
      </g>
     </g>
    </g>
    <g id="ytick_21">
     <g id="line2d_27">
      <g>
       <use xlink:href="#m19d67b5c4f" x="193.108" y="113.039201" style="stroke: #000000; stroke-width: 0.8"/>
      </g>
     </g>
     <g id="text_31">
      <!-- 3 -->
      <g transform="translate(179.7455 116.838419) scale(0.1 -0.1)">
       <use xlink:href="#DejaVuSans-33"/>
      </g>
     </g>
    </g>
    <g id="ytick_22">
     <g id="line2d_28">
      <g>
       <use xlink:href="#m19d67b5c4f" x="193.108" y="63.181944" style="stroke: #000000; stroke-width: 0.8"/>
      </g>
     </g>
     <g id="text_32">
      <!-- 4 -->
      <g transform="translate(179.7455 66.981162) scale(0.1 -0.1)">
       <use xlink:href="#DejaVuSans-34"/>
      </g>
     </g>
    </g>
   </g>
   <g id="patch_43">
    <path d="M 193.108 462.04 
L 193.108 25.44 
" style="fill: none; stroke: #000000; stroke-width: 0.8; stroke-linejoin: miter; stroke-linecap: square"/>
   </g>
   <g id="patch_44">
    <path d="M 236.752 462.04 
L 236.752 25.44 
" style="fill: none; stroke: #000000; stroke-width: 0.8; stroke-linejoin: miter; stroke-linecap: square"/>
   </g>
   <g id="patch_45">
    <path d="M 193.108 462.04 
L 236.752 462.04 
" style="fill: none; stroke: #000000; stroke-width: 0.8; stroke-linejoin: miter; stroke-linecap: square"/>
   </g>
   <g id="patch_46">
    <path d="M 193.108 25.44 
L 236.752 25.44 
" style="fill: none; stroke: #000000; stroke-width: 0.8; stroke-linejoin: miter; stroke-linecap: square"/>
   </g>
   <g id="text_33">
    <!-- Test Inputs -->
    <g transform="translate(182.546875 19.44) scale(0.12 -0.12)">
     <defs>
      <path id="DejaVuSans-65" d="M 3597 1894 
L 3597 1613 
L 953 1613 
Q 991 1019 1311 708 
Q 1631 397 2203 397 
Q 2534 397 2845 478 
Q 3156 559 3463 722 
L 3463 178 
Q 3153 47 2828 -22 
Q 2503 -91 2169 -91 
Q 1331 -91 842 396 
Q 353 884 353 1716 
Q 353 2575 817 3079 
Q 1281 3584 2069 3584 
Q 2775 3584 3186 3129 
Q 3597 2675 3597 1894 
z
M 3022 2063 
Q 3016 2534 2758 2815 
Q 2500 3097 2075 3097 
Q 1594 3097 1305 2825 
Q 1016 2553 972 2059 
L 3022 2063 
z
" transform="scale(0.015625)"/>
     </defs>
     <use xlink:href="#DejaVuSans-54"/>
     <use xlink:href="#DejaVuSans-65" x="44.083984"/>
     <use xlink:href="#DejaVuSans-73" x="105.607422"/>
     <use xlink:href="#DejaVuSans-74" x="157.707031"/>
     <use xlink:href="#DejaVuSans-20" x="196.916016"/>
     <use xlink:href="#DejaVuSans-49" x="228.703125"/>
     <use xlink:href="#DejaVuSans-6e" x="258.195312"/>
     <use xlink:href="#DejaVuSans-70" x="321.574219"/>
     <use xlink:href="#DejaVuSans-75" x="385.050781"/>
     <use xlink:href="#DejaVuSans-74" x="448.429688"/>
     <use xlink:href="#DejaVuSans-73" x="487.638672"/>
    </g>
   </g>
  </g>
  <g id="axes_4">
   <g id="patch_47">
    <path d="M 267.332 462.04 
L 310.976 462.04 
L 310.976 25.44 
L 267.332 25.44 
z
" style="fill: #ffffff"/>
   </g>
   <g id="patch_48">
    <path d="M 269.315818 462.04 
L 273.283455 462.04 
L 273.283455 462.04 
L 269.315818 462.04 
z
" clip-path="url(#p225facb224)"/>
   </g>
   <g id="patch_49">
    <path d="M 273.283455 462.04 
L 277.251091 462.04 
L 277.251091 204.318978 
L 273.283455 204.318978 
z
" clip-path="url(#p225facb224)" style="fill: #0074d9"/>
   </g>
   <g id="patch_50">
    <path d="M 277.251091 462.04 
L 281.218727 462.04 
L 281.218727 169.392448 
L 277.251091 169.392448 
z
" clip-path="url(#p225facb224)" style="fill: #ff4136"/>
   </g>
   <g id="patch_51">
    <path d="M 281.218727 462.04 
L 285.186364 462.04 
L 285.186364 49.447393 
L 281.218727 49.447393 
z
" clip-path="url(#p225facb224)" style="fill: #2ecc40"/>
   </g>
   <g id="patch_52">
    <path d="M 285.186364 462.04 
L 289.154 462.04 
L 289.154 46.230476 
L 285.186364 46.230476 
z
" clip-path="url(#p225facb224)" style="fill: #ffdc00"/>
   </g>
   <g id="patch_53">
    <path d="M 289.154 462.04 
L 293.121636 462.04 
L 293.121636 238.785948 
L 289.154 238.785948 
z
" clip-path="url(#p225facb224)" style="fill: #aaaaaa"/>
   </g>
   <g id="patch_54">
    <path d="M 293.121636 462.04 
L 297.089273 462.04 
L 297.089273 326.378007 
L 293.121636 326.378007 
z
" clip-path="url(#p225facb224)" style="fill: #f012be"/>
   </g>
   <g id="patch_55">
    <path d="M 297.089273 462.04 
L 301.056909 462.04 
L 301.056909 375.550884 
L 297.089273 375.550884 
z
" clip-path="url(#p225facb224)" style="fill: #ff851b"/>
   </g>
   <g id="patch_56">
    <path d="M 301.056909 462.04 
L 305.024545 462.04 
L 305.024545 158.363018 
L 301.056909 158.363018 
z
" clip-path="url(#p225facb224)" style="fill: #7fdbff"/>
   </g>
   <g id="patch_57">
    <path d="M 305.024545 462.04 
L 308.992182 462.04 
L 308.992182 375.275148 
L 305.024545 375.275148 
z
" clip-path="url(#p225facb224)" style="fill: #870c25"/>
   </g>
   <g id="matplotlib.axis_7">
    <g id="xtick_7">
     <g id="line2d_29">
      <g>
       <use xlink:href="#mbd64cdbd01" x="269.315818" y="462.04" style="stroke: #000000; stroke-width: 0.8"/>
      </g>
     </g>
     <g id="text_34">
      <!-- 0 -->
      <g transform="translate(266.134568 476.638438) scale(0.1 -0.1)">
       <use xlink:href="#DejaVuSans-30"/>
      </g>
     </g>
    </g>
    <g id="xtick_8">
     <g id="line2d_30">
      <g>
       <use xlink:href="#mbd64cdbd01" x="291.358242" y="462.04" style="stroke: #000000; stroke-width: 0.8"/>
      </g>
     </g>
     <g id="text_35">
      <!-- 5 -->
      <g transform="translate(288.176992 476.638438) scale(0.1 -0.1)">
       <use xlink:href="#DejaVuSans-35"/>
      </g>
     </g>
    </g>
   </g>
   <g id="matplotlib.axis_8">
    <g id="ytick_23">
     <g id="line2d_31">
      <g>
       <use xlink:href="#m19d67b5c4f" x="267.332" y="462.04" style="stroke: #000000; stroke-width: 0.8"/>
      </g>
     </g>
     <g id="text_36">
      <!-- 0 -->
      <g transform="translate(253.9695 465.839219) scale(0.1 -0.1)">
       <use xlink:href="#DejaVuSans-30"/>
      </g>
     </g>
    </g>
    <g id="ytick_24">
     <g id="line2d_32">
      <g>
       <use xlink:href="#m19d67b5c4f" x="267.332" y="370.128081" style="stroke: #000000; stroke-width: 0.8"/>
      </g>
     </g>
     <g id="text_37">
      <!-- 1 -->
      <g transform="translate(253.9695 373.927299) scale(0.1 -0.1)">
       <use xlink:href="#DejaVuSans-31"/>
      </g>
     </g>
    </g>
    <g id="ytick_25">
     <g id="line2d_33">
      <g>
       <use xlink:href="#m19d67b5c4f" x="267.332" y="278.216161" style="stroke: #000000; stroke-width: 0.8"/>
      </g>
     </g>
     <g id="text_38">
      <!-- 2 -->
      <g transform="translate(253.9695 282.01538) scale(0.1 -0.1)">
       <use xlink:href="#DejaVuSans-32"/>
      </g>
     </g>
    </g>
    <g id="ytick_26">
     <g id="line2d_34">
      <g>
       <use xlink:href="#m19d67b5c4f" x="267.332" y="186.304242" style="stroke: #000000; stroke-width: 0.8"/>
      </g>
     </g>
     <g id="text_39">
      <!-- 3 -->
      <g transform="translate(253.9695 190.10346) scale(0.1 -0.1)">
       <use xlink:href="#DejaVuSans-33"/>
      </g>
     </g>
    </g>
    <g id="ytick_27">
     <g id="line2d_35">
      <g>
       <use xlink:href="#m19d67b5c4f" x="267.332" y="94.392322" style="stroke: #000000; stroke-width: 0.8"/>
      </g>
     </g>
     <g id="text_40">
      <!-- 4 -->
      <g transform="translate(253.9695 98.191541) scale(0.1 -0.1)">
       <use xlink:href="#DejaVuSans-34"/>
      </g>
     </g>
    </g>
   </g>
   <g id="patch_58">
    <path d="M 267.332 462.04 
L 267.332 25.44 
" style="fill: none; stroke: #000000; stroke-width: 0.8; stroke-linejoin: miter; stroke-linecap: square"/>
   </g>
   <g id="patch_59">
    <path d="M 310.976 462.04 
L 310.976 25.44 
" style="fill: none; stroke: #000000; stroke-width: 0.8; stroke-linejoin: miter; stroke-linecap: square"/>
   </g>
   <g id="patch_60">
    <path d="M 267.332 462.04 
L 310.976 462.04 
" style="fill: none; stroke: #000000; stroke-width: 0.8; stroke-linejoin: miter; stroke-linecap: square"/>
   </g>
   <g id="patch_61">
    <path d="M 267.332 25.44 
L 310.976 25.44 
" style="fill: none; stroke: #000000; stroke-width: 0.8; stroke-linejoin: miter; stroke-linecap: square"/>
   </g>
   <g id="text_41">
    <!-- Test Outputs -->
    <g transform="translate(251.465563 19.44) scale(0.12 -0.12)">
     <use xlink:href="#DejaVuSans-54"/>
     <use xlink:href="#DejaVuSans-65" x="44.083984"/>
     <use xlink:href="#DejaVuSans-73" x="105.607422"/>
     <use xlink:href="#DejaVuSans-74" x="157.707031"/>
     <use xlink:href="#DejaVuSans-20" x="196.916016"/>
     <use xlink:href="#DejaVuSans-4f" x="228.703125"/>
     <use xlink:href="#DejaVuSans-75" x="307.414062"/>
     <use xlink:href="#DejaVuSans-74" x="370.792969"/>
     <use xlink:href="#DejaVuSans-70" x="410.001953"/>
     <use xlink:href="#DejaVuSans-75" x="473.478516"/>
     <use xlink:href="#DejaVuSans-74" x="536.857422"/>
     <use xlink:href="#DejaVuSans-73" x="576.066406"/>
    </g>
   </g>
  </g>
  <g id="axes_5">
   <g id="patch_62">
    <path d="M 341.556 462.04 
L 385.2 462.04 
L 385.2 25.44 
L 341.556 25.44 
z
" style="fill: #ffffff"/>
   </g>
   <g id="patch_63">
    <path d="M 343.539818 462.04 
L 347.507455 462.04 
L 347.507455 462.04 
L 343.539818 462.04 
z
" clip-path="url(#pfb5f046d55)"/>
   </g>
   <g id="patch_64">
    <path d="M 347.507455 462.04 
L 351.475091 462.04 
L 351.475091 146.431626 
L 347.507455 146.431626 
z
" clip-path="url(#pfb5f046d55)" style="fill: #0074d9"/>
   </g>
   <g id="patch_65">
    <path d="M 351.475091 462.04 
L 355.442727 462.04 
L 355.442727 77.178132 
L 351.475091 77.178132 
z
" clip-path="url(#pfb5f046d55)" style="fill: #ff4136"/>
   </g>
   <g id="patch_66">
    <path d="M 355.442727 462.04 
L 359.410364 462.04 
L 359.410364 55.723976 
L 355.442727 55.723976 
z
" clip-path="url(#pfb5f046d55)" style="fill: #2ecc40"/>
   </g>
   <g id="patch_67">
    <path d="M 359.410364 462.04 
L 363.378 462.04 
L 363.378 140.646074 
L 359.410364 140.646074 
z
" clip-path="url(#pfb5f046d55)" style="fill: #ffdc00"/>
   </g>
   <g id="patch_68">
    <path d="M 363.378 462.04 
L 367.345636 462.04 
L 367.345636 160.585309 
L 363.378 160.585309 
z
" clip-path="url(#pfb5f046d55)" style="fill: #aaaaaa"/>
   </g>
   <g id="patch_69">
    <path d="M 367.345636 462.04 
L 371.313273 462.04 
L 371.313273 323.994701 
L 367.345636 323.994701 
z
" clip-path="url(#pfb5f046d55)" style="fill: #f012be"/>
   </g>
   <g id="patch_70">
    <path d="M 371.313273 462.04 
L 375.280909 462.04 
L 375.280909 370.812949 
L 371.313273 370.812949 
z
" clip-path="url(#pfb5f046d55)" style="fill: #ff851b"/>
   </g>
   <g id="patch_71">
    <path d="M 375.280909 462.04 
L 379.248545 462.04 
L 379.248545 46.230476 
L 375.280909 46.230476 
z
" clip-path="url(#pfb5f046d55)" style="fill: #7fdbff"/>
   </g>
   <g id="patch_72">
    <path d="M 379.248545 462.04 
L 383.216182 462.04 
L 383.216182 384.548225 
L 379.248545 384.548225 
z
" clip-path="url(#pfb5f046d55)" style="fill: #870c25"/>
   </g>
   <g id="matplotlib.axis_9">
    <g id="xtick_9">
     <g id="line2d_36">
      <g>
       <use xlink:href="#mbd64cdbd01" x="343.539818" y="462.04" style="stroke: #000000; stroke-width: 0.8"/>
      </g>
     </g>
     <g id="text_42">
      <!-- 0 -->
      <g transform="translate(340.358568 476.638438) scale(0.1 -0.1)">
       <use xlink:href="#DejaVuSans-30"/>
      </g>
     </g>
    </g>
    <g id="xtick_10">
     <g id="line2d_37">
      <g>
       <use xlink:href="#mbd64cdbd01" x="365.582242" y="462.04" style="stroke: #000000; stroke-width: 0.8"/>
      </g>
     </g>
     <g id="text_43">
      <!-- 5 -->
      <g transform="translate(362.400992 476.638438) scale(0.1 -0.1)">
       <use xlink:href="#DejaVuSans-35"/>
      </g>
     </g>
    </g>
   </g>
   <g id="matplotlib.axis_10">
    <g id="ytick_28">
     <g id="line2d_38">
      <g>
       <use xlink:href="#m19d67b5c4f" x="341.556" y="462.04" style="stroke: #000000; stroke-width: 0.8"/>
      </g>
     </g>
     <g id="text_44">
      <!-- 0 -->
      <g transform="translate(328.1935 465.839219) scale(0.1 -0.1)">
       <use xlink:href="#DejaVuSans-30"/>
      </g>
     </g>
    </g>
    <g id="ytick_29">
     <g id="line2d_39">
      <g>
       <use xlink:href="#m19d67b5c4f" x="341.556" y="389.900943" style="stroke: #000000; stroke-width: 0.8"/>
      </g>
     </g>
     <g id="text_45">
      <!-- 5 -->
      <g transform="translate(328.1935 393.700162) scale(0.1 -0.1)">
       <use xlink:href="#DejaVuSans-35"/>
      </g>
     </g>
    </g>
    <g id="ytick_30">
     <g id="line2d_40">
      <g>
       <use xlink:href="#m19d67b5c4f" x="341.556" y="317.761886" style="stroke: #000000; stroke-width: 0.8"/>
      </g>
     </g>
     <g id="text_46">
      <!-- 10 -->
      <g transform="translate(321.831 321.561105) scale(0.1 -0.1)">
       <use xlink:href="#DejaVuSans-31"/>
       <use xlink:href="#DejaVuSans-30" x="63.623047"/>
      </g>
     </g>
    </g>
    <g id="ytick_31">
     <g id="line2d_41">
      <g>
       <use xlink:href="#m19d67b5c4f" x="341.556" y="245.622829" style="stroke: #000000; stroke-width: 0.8"/>
      </g>
     </g>
     <g id="text_47">
      <!-- 15 -->
      <g transform="translate(321.831 249.422048) scale(0.1 -0.1)">
       <use xlink:href="#DejaVuSans-31"/>
       <use xlink:href="#DejaVuSans-35" x="63.623047"/>
      </g>
     </g>
    </g>
    <g id="ytick_32">
     <g id="line2d_42">
      <g>
       <use xlink:href="#m19d67b5c4f" x="341.556" y="173.483773" style="stroke: #000000; stroke-width: 0.8"/>
      </g>
     </g>
     <g id="text_48">
      <!-- 20 -->
      <g transform="translate(321.831 177.282991) scale(0.1 -0.1)">
       <use xlink:href="#DejaVuSans-32"/>
       <use xlink:href="#DejaVuSans-30" x="63.623047"/>
      </g>
     </g>
    </g>
    <g id="ytick_33">
     <g id="line2d_43">
      <g>
       <use xlink:href="#m19d67b5c4f" x="341.556" y="101.344716" style="stroke: #000000; stroke-width: 0.8"/>
      </g>
     </g>
     <g id="text_49">
      <!-- 25 -->
      <g transform="translate(321.831 105.143934) scale(0.1 -0.1)">
       <use xlink:href="#DejaVuSans-32"/>
       <use xlink:href="#DejaVuSans-35" x="63.623047"/>
      </g>
     </g>
    </g>
    <g id="ytick_34">
     <g id="line2d_44">
      <g>
       <use xlink:href="#m19d67b5c4f" x="341.556" y="29.205659" style="stroke: #000000; stroke-width: 0.8"/>
      </g>
     </g>
     <g id="text_50">
      <!-- 30 -->
      <g transform="translate(321.831 33.004878) scale(0.1 -0.1)">
       <use xlink:href="#DejaVuSans-33"/>
       <use xlink:href="#DejaVuSans-30" x="63.623047"/>
      </g>
     </g>
    </g>
   </g>
   <g id="patch_73">
    <path d="M 341.556 462.04 
L 341.556 25.44 
" style="fill: none; stroke: #000000; stroke-width: 0.8; stroke-linejoin: miter; stroke-linecap: square"/>
   </g>
   <g id="patch_74">
    <path d="M 385.2 462.04 
L 385.2 25.44 
" style="fill: none; stroke: #000000; stroke-width: 0.8; stroke-linejoin: miter; stroke-linecap: square"/>
   </g>
   <g id="patch_75">
    <path d="M 341.556 462.04 
L 385.2 462.04 
" style="fill: none; stroke: #000000; stroke-width: 0.8; stroke-linejoin: miter; stroke-linecap: square"/>
   </g>
   <g id="patch_76">
    <path d="M 341.556 25.44 
L 385.2 25.44 
" style="fill: none; stroke: #000000; stroke-width: 0.8; stroke-linejoin: miter; stroke-linecap: square"/>
   </g>
   <g id="text_51">
    <!-- Overall -->
    <g transform="translate(341.934563 19.44) scale(0.12 -0.12)">
     <defs>
      <path id="DejaVuSans-76" d="M 191 3500 
L 800 3500 
L 1894 563 
L 2988 3500 
L 3597 3500 
L 2284 0 
L 1503 0 
L 191 3500 
z
" transform="scale(0.015625)"/>
     </defs>
     <use xlink:href="#DejaVuSans-4f"/>
     <use xlink:href="#DejaVuSans-76" x="78.710938"/>
     <use xlink:href="#DejaVuSans-65" x="137.890625"/>
     <use xlink:href="#DejaVuSans-72" x="199.414062"/>
     <use xlink:href="#DejaVuSans-61" x="240.527344"/>
     <use xlink:href="#DejaVuSans-6c" x="301.806641"/>
     <use xlink:href="#DejaVuSans-6c" x="329.589844"/>
    </g>
   </g>
  </g>
 </g>
 <defs>
  <clipPath id="p220f109c28">
   <rect x="44.66" y="25.44" width="43.644" height="436.6"/>
  </clipPath>
  <clipPath id="p5c435a3740">
   <rect x="118.884" y="25.44" width="43.644" height="436.6"/>
  </clipPath>
  <clipPath id="p5070eb99c5">
   <rect x="193.108" y="25.44" width="43.644" height="436.6"/>
  </clipPath>
  <clipPath id="p225facb224">
   <rect x="267.332" y="25.44" width="43.644" height="436.6"/>
  </clipPath>
  <clipPath id="pfb5f046d55">
   <rect x="341.556" y="25.44" width="43.644" height="436.6"/>
  </clipPath>
 </defs>
</svg>
