<?xml version="1.0" encoding="UTF-8"?>
<svg width="360pt" height="189.41pt" version="1.1" viewBox="0 0 360 189.42" xmlns="http://www.w3.org/2000/svg" xmlns:cc="http://creativecommons.org/ns#" xmlns:dc="http://purl.org/dc/elements/1.1/" xmlns:rdf="http://www.w3.org/1999/02/22-rdf-syntax-ns#">
 <metadata>
  <rdf:RDF>
   <cc:Work>
    <dc:type rdf:resource="http://purl.org/dc/dcmitype/StillImage"/>
    <dc:date>2023-05-26T20:21:37.896869</dc:date>
    <dc:format>image/svg+xml</dc:format>
    <dc:creator>
     <cc:Agent>
      <dc:title>Matplotlib v3.7.1, https://matplotlib.org/</dc:title>
     </cc:Agent>
    </dc:creator>
   </cc:Work>
  </rdf:RDF>
 </metadata>
 <defs>
  <style type="text/css">*{stroke-linejoin: round; stroke-linecap: butt}</style>
 </defs>
 <g transform="translate(0 -193.29)">
  <path d="m0 382.71h360v-189.41h-360z" fill="#fff" stroke-width=".57345"/>
  <path d="m36.403 350.64h131.23v-140.53h-131.23z" fill="#fff"/>
  <path d="m36.403 350.64h13.123v-14.053h-13.123v14.053" clip-path="url(#p3991a967b4)" fill="#22a785"/>
  <path d="m49.527 350.64h13.123v-14.053h-13.123v14.053" clip-path="url(#p3991a967b4)" fill="#482677"/>
  <path d="m62.65 350.64h13.123v-14.053h-13.123v14.053" clip-path="url(#p3991a967b4)" fill="#482374"/>
  <path d="m75.773 350.64h13.123v-14.053h-13.123v14.053" clip-path="url(#p3991a967b4)" fill="#450559"/>
  <path d="m88.897 350.64h13.123v-14.053h-13.123v14.053" clip-path="url(#p3991a967b4)" fill="#450559"/>
  <g fill="#440154">
   <path d="m102.02 350.64h13.123v-14.053h-13.123v14.053" clip-path="url(#p3991a967b4)"/>
   <path d="m115.14 350.64h13.123v-14.053h-13.123v14.053" clip-path="url(#p3991a967b4)"/>
   <path d="m128.27 350.64h13.123v-14.053h-13.123v14.053" clip-path="url(#p3991a967b4)"/>
   <path d="m141.39 350.64h13.123v-14.053h-13.123v14.053" clip-path="url(#p3991a967b4)"/>
   <path d="m154.51 350.64h13.123v-14.053h-13.123v14.053" clip-path="url(#p3991a967b4)"/>
  </g>
  <path d="m36.403 336.59h13.123v-14.053h-13.123v14.053" clip-path="url(#p3991a967b4)" fill="#482374"/>
  <path d="m49.527 336.59h13.123v-14.053h-13.123v14.053" clip-path="url(#p3991a967b4)" fill="#375b8d"/>
  <path d="m62.65 336.59h13.123v-14.053h-13.123v14.053" clip-path="url(#p3991a967b4)" fill="#463480"/>
  <path d="m75.773 336.59h13.123v-14.053h-13.123v14.053" clip-path="url(#p3991a967b4)" fill="#481d6f"/>
  <path d="m88.897 336.59h13.123v-14.053h-13.123v14.053" clip-path="url(#p3991a967b4)" fill="#460a5d"/>
  <g fill="#440154">
   <path d="m102.02 336.59h13.123v-14.053h-13.123v14.053" clip-path="url(#p3991a967b4)"/>
   <path d="m115.14 336.59h13.123v-14.053h-13.123v14.053" clip-path="url(#p3991a967b4)"/>
   <path d="m128.27 336.59h13.123v-14.053h-13.123v14.053" clip-path="url(#p3991a967b4)"/>
   <path d="m141.39 336.59h13.123v-14.053h-13.123v14.053" clip-path="url(#p3991a967b4)"/>
   <path d="m154.51 336.59h13.123v-14.053h-13.123v14.053" clip-path="url(#p3991a967b4)"/>
   <path d="m36.403 322.54h13.123v-14.053h-13.123v14.053" clip-path="url(#p3991a967b4)"/>
  </g>
  <path d="m49.527 322.54h13.123v-14.053h-13.123v14.053" clip-path="url(#p3991a967b4)" fill="#481a6c"/>
  <path d="m62.65 322.54h13.123v-14.053h-13.123v14.053" clip-path="url(#p3991a967b4)" fill="#27808e"/>
  <path d="m75.773 322.54h13.123v-14.053h-13.123v14.053" clip-path="url(#p3991a967b4)" fill="#fde725"/>
  <path d="m88.897 322.54h13.123v-14.053h-13.123v14.053" clip-path="url(#p3991a967b4)" fill="#460a5d"/>
  <path d="m102.02 322.54h13.123v-14.053h-13.123v14.053" clip-path="url(#p3991a967b4)" fill="#440154"/>
  <path d="m115.14 322.54h13.123v-14.053h-13.123v14.053" clip-path="url(#p3991a967b4)" fill="#450559"/>
  <g fill="#440154">
   <path d="m128.27 322.54h13.123v-14.053h-13.123v14.053" clip-path="url(#p3991a967b4)"/>
   <path d="m141.39 322.54h13.123v-14.053h-13.123v14.053" clip-path="url(#p3991a967b4)"/>
   <path d="m154.51 322.54h13.123v-14.053h-13.123v14.053" clip-path="url(#p3991a967b4)"/>
  </g>
  <path d="m36.403 308.49h13.123v-14.053h-13.123v14.053" clip-path="url(#p3991a967b4)" fill="#471063"/>
  <path d="m49.527 308.49h13.123v-14.053h-13.123v14.053" clip-path="url(#p3991a967b4)" fill="#460a5d"/>
  <path d="m62.65 308.49h13.123v-14.053h-13.123v14.053" clip-path="url(#p3991a967b4)" fill="#481a6c"/>
  <path d="m75.773 308.49h13.123v-14.053h-13.123v14.053" clip-path="url(#p3991a967b4)" fill="#2d708e"/>
  <path d="m88.897 308.49h13.123v-14.053h-13.123v14.053" clip-path="url(#p3991a967b4)" fill="#3f4889"/>
  <g fill="#450559">
   <path d="m102.02 308.49h13.123v-14.053h-13.123v14.053" clip-path="url(#p3991a967b4)"/>
   <path d="m115.14 308.49h13.123v-14.053h-13.123v14.053" clip-path="url(#p3991a967b4)"/>
   <path d="m128.27 308.49h13.123v-14.053h-13.123v14.053" clip-path="url(#p3991a967b4)"/>
  </g>
  <g fill="#440154">
   <path d="m141.39 308.49h13.123v-14.053h-13.123v14.053" clip-path="url(#p3991a967b4)"/>
   <path d="m154.51 308.49h13.123v-14.053h-13.123v14.053" clip-path="url(#p3991a967b4)"/>
   <path d="m36.403 294.43h13.123v-14.053h-13.123v14.053" clip-path="url(#p3991a967b4)"/>
  </g>
  <path d="m49.527 294.43h13.123v-14.053h-13.123v14.053" clip-path="url(#p3991a967b4)" fill="#481467"/>
  <path d="m62.65 294.43h13.123v-14.053h-13.123v14.053" clip-path="url(#p3991a967b4)" fill="#440154"/>
  <path d="m75.773 294.43h13.123v-14.053h-13.123v14.053" clip-path="url(#p3991a967b4)" fill="#460a5d"/>
  <path d="m88.897 294.43h13.123v-14.053h-13.123v14.053" clip-path="url(#p3991a967b4)" fill="#3c508b"/>
  <path d="m102.02 294.43h13.123v-14.053h-13.123v14.053" clip-path="url(#p3991a967b4)" fill="#482374"/>
  <path d="m115.14 294.43h13.123v-14.053h-13.123v14.053" clip-path="url(#p3991a967b4)" fill="#450559"/>
  <g fill="#440154">
   <path d="m128.27 294.43h13.123v-14.053h-13.123v14.053" clip-path="url(#p3991a967b4)"/>
   <path d="m141.39 294.43h13.123v-14.053h-13.123v14.053" clip-path="url(#p3991a967b4)"/>
   <path d="m154.51 294.43h13.123v-14.053h-13.123v14.053" clip-path="url(#p3991a967b4)"/>
  </g>
  <path d="m36.403 280.38h13.123v-14.053h-13.123v14.053" clip-path="url(#p3991a967b4)" fill="#460a5d"/>
  <path d="m49.527 280.38h13.123v-14.053h-13.123v14.053" clip-path="url(#p3991a967b4)" fill="#460a5d"/>
  <path d="m62.65 280.38h13.123v-14.053h-13.123v14.053" clip-path="url(#p3991a967b4)" fill="#450559"/>
  <path d="m75.773 280.38h13.123v-14.053h-13.123v14.053" clip-path="url(#p3991a967b4)" fill="#471063"/>
  <path d="m88.897 280.38h13.123v-14.053h-13.123v14.053" clip-path="url(#p3991a967b4)" fill="#481467"/>
  <path d="m102.02 280.38h13.123v-14.053h-13.123v14.053" clip-path="url(#p3991a967b4)" fill="#2d708e"/>
  <path d="m115.14 280.38h13.123v-14.053h-13.123v14.053" clip-path="url(#p3991a967b4)" fill="#471063"/>
  <g fill="#440154">
   <path d="m128.27 280.38h13.123v-14.053h-13.123v14.053" clip-path="url(#p3991a967b4)"/>
   <path d="m141.39 280.38h13.123v-14.053h-13.123v14.053" clip-path="url(#p3991a967b4)"/>
   <path d="m154.51 280.38h13.123v-14.053h-13.123v14.053" clip-path="url(#p3991a967b4)"/>
   <path d="m36.403 266.33h13.123v-14.053h-13.123v14.053" clip-path="url(#p3991a967b4)"/>
   <path d="m49.527 266.33h13.123v-14.053h-13.123v14.053" clip-path="url(#p3991a967b4)"/>
   <path d="m62.65 266.33h13.123v-14.053h-13.123v14.053" clip-path="url(#p3991a967b4)"/>
  </g>
  <path d="m75.773 266.33h13.123v-14.053h-13.123v14.053" clip-path="url(#p3991a967b4)" fill="#450559"/>
  <path d="m88.897 266.33h13.123v-14.053h-13.123v14.053" clip-path="url(#p3991a967b4)" fill="#440154"/>
  <path d="m102.02 266.33h13.123v-14.053h-13.123v14.053" clip-path="url(#p3991a967b4)" fill="#472c7a"/>
  <path d="m115.14 266.33h13.123v-14.053h-13.123v14.053" clip-path="url(#p3991a967b4)" fill="#38588c"/>
  <path d="m128.27 266.33h13.123v-14.053h-13.123v14.053" clip-path="url(#p3991a967b4)" fill="#450559"/>
  <g fill="#440154">
   <path d="m141.39 266.33h13.123v-14.053h-13.123v14.053" clip-path="url(#p3991a967b4)"/>
   <path d="m154.51 266.33h13.123v-14.053h-13.123v14.053" clip-path="url(#p3991a967b4)"/>
   <path d="m36.403 252.28h13.123v-14.053h-13.123v14.053" clip-path="url(#p3991a967b4)"/>
  </g>
  <path d="m49.527 252.28h13.123v-14.053h-13.123v14.053" clip-path="url(#p3991a967b4)" fill="#450559"/>
  <g fill="#440154">
   <path d="m62.65 252.28h13.123v-14.053h-13.123v14.053" clip-path="url(#p3991a967b4)"/>
   <path d="m75.773 252.28h13.123v-14.053h-13.123v14.053" clip-path="url(#p3991a967b4)"/>
   <path d="m88.897 252.28h13.123v-14.053h-13.123v14.053" clip-path="url(#p3991a967b4)"/>
   <path d="m102.02 252.28h13.123v-14.053h-13.123v14.053" clip-path="url(#p3991a967b4)"/>
  </g>
  <path d="m115.14 252.28h13.123v-14.053h-13.123v14.053" clip-path="url(#p3991a967b4)" fill="#460a5d"/>
  <path d="m128.27 252.28h13.123v-14.053h-13.123v14.053" clip-path="url(#p3991a967b4)" fill="#482374"/>
  <path d="m141.39 252.28h13.123v-14.053h-13.123v14.053" clip-path="url(#p3991a967b4)" fill="#440154"/>
  <path d="m154.51 252.28h13.123v-14.053h-13.123v14.053" clip-path="url(#p3991a967b4)" fill="#440154"/>
  <path d="m36.403 238.22h13.123v-14.053h-13.123v14.053" clip-path="url(#p3991a967b4)" fill="#450559"/>
  <path d="m49.527 238.22h13.123v-14.053h-13.123v14.053" clip-path="url(#p3991a967b4)" fill="#440154"/>
  <path d="m62.65 238.22h13.123v-14.053h-13.123v14.053" clip-path="url(#p3991a967b4)" fill="#440154"/>
  <path d="m75.773 238.22h13.123v-14.053h-13.123v14.053" clip-path="url(#p3991a967b4)" fill="#450559"/>
  <path d="m88.897 238.22h13.123v-14.053h-13.123v14.053" clip-path="url(#p3991a967b4)" fill="#440154"/>
  <path d="m102.02 238.22h13.123v-14.053h-13.123v14.053" clip-path="url(#p3991a967b4)" fill="#440154"/>
  <path d="m115.14 238.22h13.123v-14.053h-13.123v14.053" clip-path="url(#p3991a967b4)" fill="#450559"/>
  <path d="m128.27 238.22h13.123v-14.053h-13.123v14.053" clip-path="url(#p3991a967b4)" fill="#471063"/>
  <path d="m141.39 238.22h13.123v-14.053h-13.123v14.053" clip-path="url(#p3991a967b4)" fill="#481a6c"/>
  <g fill="#440154">
   <path d="m154.51 238.22h13.123v-14.053h-13.123v14.053" clip-path="url(#p3991a967b4)"/>
   <path d="m36.403 224.17h13.123v-14.053h-13.123v14.053" clip-path="url(#p3991a967b4)"/>
   <path d="m49.527 224.17h13.123v-14.053h-13.123v14.053" clip-path="url(#p3991a967b4)"/>
   <path d="m62.65 224.17h13.123v-14.053h-13.123v14.053" clip-path="url(#p3991a967b4)"/>
   <path d="m75.773 224.17h13.123v-14.053h-13.123v14.053" clip-path="url(#p3991a967b4)"/>
   <path d="m88.897 224.17h13.123v-14.053h-13.123v14.053" clip-path="url(#p3991a967b4)"/>
   <path d="m102.02 224.17h13.123v-14.053h-13.123v14.053" clip-path="url(#p3991a967b4)"/>
  </g>
  <path d="m115.14 224.17h13.123v-14.053h-13.123v14.053" clip-path="url(#p3991a967b4)" fill="#460a5d"/>
  <path d="m128.27 224.17h13.123v-14.053h-13.123v14.053" clip-path="url(#p3991a967b4)" fill="#450559"/>
  <path d="m141.39 224.17h13.123v-14.053h-13.123v14.053" clip-path="url(#p3991a967b4)" fill="#440154"/>
  <path d="m154.51 224.17h13.123v-14.053h-13.123v14.053" clip-path="url(#p3991a967b4)" fill="#472c7a"/>
  <path d="m77.131 350.64v3.5" stroke="#000" stroke-width=".8"/>
  <!-- 10 -->
  <g transform="matrix(.1 0 0 -.1 70.769 365.24)" stroke-width=".015625">
   <path d="m12.406 8.2969h16.109v55.625l-17.531-3.5156v8.9844l17.438 3.5156h9.8594v-64.609h16.109v-8.2969h-41.984z"/>
   <path d="m95.404 66.406q-7.6094 0-11.453-7.5-3.8281-7.4844-3.8281-22.531 0-14.984 3.8281-22.484 3.8438-7.5 11.453-7.5 7.6719 0 11.5 7.5 3.8438 7.5 3.8438 22.484 0 15.047-3.8438 22.531-3.8281 7.5-11.5 7.5zm0 7.8125q12.266 0 18.734-9.7031 6.4688-9.6875 6.4688-28.141 0-18.406-6.4688-28.109-6.4688-9.6875-18.734-9.6875-12.25 0-18.719 9.6875-6.4688 9.7031-6.4688 28.109 0 18.453 6.4688 28.141 6.4688 9.7031 18.719 9.7031z"/>
  </g>
  <path d="m122.38 350.64v3.5" stroke="#000" stroke-width=".8"/>
  <!-- 20 -->
  <g transform="matrix(.1 0 0 -.1 116.02 365.24)" stroke-width=".015625">
   <path d="m19.188 8.2969h34.422v-8.2969h-46.281v8.2969q5.6094 5.8125 15.297 15.594 9.7031 9.7969 12.188 12.641 4.7344 5.3125 6.6094 9 1.8906 3.6875 1.8906 7.25 0 5.8125-4.0781 9.4688-4.0781 3.6719-10.625 3.6719-4.6406 0-9.7969-1.6094-5.1406-1.6094-11-4.8906v9.9688q5.9531 2.3906 11.125 3.6094 5.1875 1.2188 9.4844 1.2188 11.328 0 18.062-5.6719 6.7344-5.6562 6.7344-15.125 0-4.5-1.6875-8.5312-1.6719-4.0156-6.125-9.4844-1.2188-1.4219-7.7656-8.1875-6.5312-6.7656-18.453-18.922z"/>
   <path d="m95.404 66.406q-7.6094 0-11.453-7.5-3.8281-7.4844-3.8281-22.531 0-14.984 3.8281-22.484 3.8438-7.5 11.453-7.5 7.6719 0 11.5 7.5 3.8438 7.5 3.8438 22.484 0 15.047-3.8438 22.531-3.8281 7.5-11.5 7.5zm0 7.8125q12.266 0 18.734-9.7031 6.4688-9.6875 6.4688-28.141 0-18.406-6.4688-28.109-6.4688-9.6875-18.734-9.6875-12.25 0-18.719 9.6875-6.4688 9.7031-6.4688 28.109 0 18.453 6.4688 28.141 6.4688 9.7031 18.719 9.7031z"/>
  </g>
  <path d="m167.64 350.64v3.5" stroke="#000" stroke-width=".8"/>
  <!-- 30 -->
  <g transform="matrix(.1 0 0 -.1 161.27 365.24)" stroke-width=".015625">
   <path d="m40.578 39.312q7.0781-1.5156 11.047-6.3125 3.9844-4.7812 3.9844-11.812 0-10.781-7.4219-16.703-7.4219-5.9062-21.094-5.9062-4.5781 0-9.4375 0.90625t-10.031 2.7188v9.5156q4.0938-2.3906 8.9688-3.6094 4.8906-1.2188 10.219-1.2188 9.2656 0 14.125 3.6562t4.8594 10.641q0 6.4531-4.5156 10.078-4.5156 3.6406-12.562 3.6406h-8.5v8.1094h8.8906q7.2656 0 11.125 2.9062t3.8594 8.375q0 5.6094-3.9844 8.6094-3.9688 3.0156-11.391 3.0156-4.0625 0-8.7031-0.89062-4.6406-0.875-10.203-2.7188v8.7812q5.625 1.5625 10.531 2.3438t9.25 0.78125q11.234 0 17.766-5.1094 6.5469-5.0938 6.5469-13.781 0-6.0625-3.4688-10.234t-9.8594-5.7812z"/>
   <path d="m95.404 66.406q-7.6094 0-11.453-7.5-3.8281-7.4844-3.8281-22.531 0-14.984 3.8281-22.484 3.8438-7.5 11.453-7.5 7.6719 0 11.5 7.5 3.8438 7.5 3.8438 22.484 0 15.047-3.8438 22.531-3.8281 7.5-11.5 7.5zm0 7.8125q12.266 0 18.734-9.7031 6.4688-9.6875 6.4688-28.141 0-18.406-6.4688-28.109-6.4688-9.6875-18.734-9.6875-12.25 0-18.719 9.6875-6.4688 9.7031-6.4688 28.109 0 18.453 6.4688 28.141 6.4688 9.7031 18.719 9.7031z"/>
  </g>
  <!-- Dimension X -->
  <g transform="matrix(.1 0 0 -.1 70.43 378.92)" stroke-width=".015625">
   <path d="m19.672 64.797v-56.688h11.922q15.094 0 22.094 6.8281 7 6.8438 7 21.594 0 14.641-7 21.453t-22.094 6.8125zm-9.8594 8.1094h20.266q21.188 0 31.094-8.8125 9.9219-8.8125 9.9219-27.562 0-18.859-9.9688-27.703-9.9531-8.8281-31.047-8.8281h-20.266z"/>
   <path d="m86.424 54.688h8.9844v-54.688h-8.9844zm0 21.297h8.9844v-11.391h-8.9844z"/>
   <path d="m156.79 44.188q3.375 6.0625 8.0625 8.9375t11.031 2.875q8.5469 0 13.188-5.9844 4.6406-5.9688 4.6406-17v-33.016h-9.0312v32.719q0 7.8594-2.7969 11.656-2.7812 3.8125-8.4844 3.8125-6.9844 0-11.047-4.6406-4.0469-4.625-4.0469-12.641v-30.906h-9.0312v32.719q0 7.9062-2.7812 11.688t-8.5938 3.7812q-6.8906 0-10.953-4.6562-4.0469-4.6562-4.0469-12.625v-30.906h-9.0312v54.688h9.0312v-8.5q3.0781 5.0312 7.375 7.4219 4.2969 2.3906 10.203 2.3906 5.9688 0 10.141-3.0312 4.1719-3.0156 6.1719-8.7812z"/>
   <path d="m258.4 29.594v-4.3906h-41.312q0.59375-9.2812 5.5938-14.141t13.938-4.8594q5.1719 0 10.031 1.2656 4.8594 1.2656 9.6562 3.8125v-8.5q-4.8438-2.0469-9.9219-3.125-5.0781-1.0781-10.297-1.0781-13.094 0-20.734 7.6094-7.6406 7.625-7.6406 20.625 0 13.422 7.25 21.297 7.25 7.8906 19.562 7.8906 11.031 0 17.453-7.1094 6.4219-7.0938 6.4219-19.297zm-8.9844 2.6406q-0.0937 7.3594-4.125 11.75-4.0312 4.4062-10.672 4.4062-7.5156 0-12.031-4.25-4.5156-4.25-5.2031-11.969z"/>
   <path d="m318.61 33.016v-33.016h-8.9844v32.719q0 7.7656-3.0312 11.609-3.0312 3.8594-9.0781 3.8594-7.2812 0-11.484-4.6406-4.2031-4.625-4.2031-12.641v-30.906h-9.0312v54.688h9.0312v-8.5q3.2344 4.9375 7.5938 7.375 4.375 2.4375 10.094 2.4375 9.4219 0 14.25-5.8281 4.8438-5.8281 4.8438-17.156z"/>
   <path d="m371.38 53.078v-8.5q-3.7969 1.9531-7.9062 2.9219-4.0938 0.98438-8.5 0.98438-6.6875 0-10.031-2.0469t-3.3438-6.1562q0-3.125 2.3906-4.9062 2.3906-1.7812 9.625-3.3906l3.0781-0.6875q9.5625-2.0469 13.594-5.7812t4.0312-10.422q0-7.625-6.0312-12.078-6.0312-4.4375-16.578-4.4375-4.3906 0-9.1562 0.85938-4.7656 0.85938-10.031 2.5625v9.2812q4.9844-2.5938 9.8125-3.8906 4.8281-1.2812 9.5781-1.2812 6.3438 0 9.75 2.1719 3.4219 2.1719 3.4219 6.125 0 3.6562-2.4688 5.6094-2.4531 1.9531-10.812 3.7656l-3.125 0.73438q-8.3438 1.75-12.062 5.3906-3.7031 3.6406-3.7031 9.9844 0 7.7188 5.4688 11.906 5.4688 4.2031 15.531 4.2031 4.9688 0 9.3594-0.73438 4.4062-0.71875 8.1094-2.1875z"/>
   <path d="m388.62 54.688h8.9844v-54.688h-8.9844zm0 21.297h8.9844v-11.391h-8.9844z"/>
   <path d="m437.59 48.391q-7.2188 0-11.422-5.6406-4.2031-5.6406-4.2031-15.453t4.1719-15.453q4.1875-5.6406 11.453-5.6406 7.1875 0 11.375 5.6562 4.2031 5.6719 4.2031 15.438 0 9.7188-4.2031 15.406-4.1875 5.6875-11.375 5.6875zm0 7.6094q11.719 0 18.406-7.625 6.7031-7.6094 6.7031-21.078 0-13.422-6.7031-21.078-6.6875-7.6406-18.406-7.6406-11.766 0-18.438 7.6406-6.6562 7.6562-6.6562 21.078 0 13.469 6.6562 21.078 6.6719 7.625 18.438 7.625z"/>
   <path d="m523.05 33.016v-33.016h-8.9844v32.719q0 7.7656-3.0312 11.609-3.0312 3.8594-9.0781 3.8594-7.2812 0-11.484-4.6406-4.2031-4.625-4.2031-12.641v-30.906h-9.0312v54.688h9.0312v-8.5q3.2344 4.9375 7.5938 7.375 4.375 2.4375 10.094 2.4375 9.4219 0 14.25-5.8281 4.8438-5.8281 4.8438-17.156z"/>
   <path d="m569.63 72.906h10.594l18.125-27.109 18.203 27.109h10.594l-23.438-35.016 25-37.891h-10.594l-20.5 31-20.656-31h-10.641l26.016 38.922z"/>
  </g>
  <path d="m36.403 335.59h-3.5" stroke="#000" stroke-width=".8"/>
  <!-- 5 -->
  <g transform="matrix(.1 0 0 -.1 23.041 339.39)">
   <path d="m10.797 72.906h38.719v-8.3125h-29.688v-17.859q2.1406 0.73438 4.2812 1.0938 2.1562 0.35938 4.3125 0.35938 12.203 0 19.328-6.6875 7.1406-6.6875 7.1406-18.109 0-11.766-7.3281-18.297-7.3281-6.5156-20.656-6.5156-4.5938 0-9.3594 0.78125-4.75 0.78125-9.8281 2.3438v9.9219q4.3906-2.3906 9.0781-3.5625t9.9062-1.1719q8.4531 0 13.375 4.4375 4.9375 4.4375 4.9375 12.062 0 7.6094-4.9375 12.047-4.9219 4.4531-13.375 4.4531-3.9531 0-7.8906-0.875-3.9219-0.875-8.0156-2.7344z" stroke-width=".015625"/>
  </g>
  <path d="m36.403 310.49h-3.5" stroke="#000" stroke-width=".8"/>
  <!-- 10 -->
  <g transform="matrix(.1 0 0 -.1 16.678 314.29)" stroke-width=".015625">
   <path d="m12.406 8.2969h16.109v55.625l-17.531-3.5156v8.9844l17.438 3.5156h9.8594v-64.609h16.109v-8.2969h-41.984z"/>
   <path d="m95.404 66.406q-7.6094 0-11.453-7.5-3.8281-7.4844-3.8281-22.531 0-14.984 3.8281-22.484 3.8438-7.5 11.453-7.5 7.6719 0 11.5 7.5 3.8438 7.5 3.8438 22.484 0 15.047-3.8438 22.531-3.8281 7.5-11.5 7.5zm0 7.8125q12.266 0 18.734-9.7031 6.4688-9.6875 6.4688-28.141 0-18.406-6.4688-28.109-6.4688-9.6875-18.734-9.6875-12.25 0-18.719 9.6875-6.4688 9.7031-6.4688 28.109 0 18.453 6.4688 28.141 6.4688 9.7031 18.719 9.7031z"/>
  </g>
  <path d="m36.403 285.4h-3.5" stroke="#000" stroke-width=".8"/>
  <!-- 15 -->
  <g transform="matrix(.1 0 0 -.1 16.678 289.2)" stroke-width=".015625">
   <path d="m12.406 8.2969h16.109v55.625l-17.531-3.5156v8.9844l17.438 3.5156h9.8594v-64.609h16.109v-8.2969h-41.984z"/>
   <path d="m74.42 72.906h38.719v-8.3125h-29.687v-17.859q2.1406 0.73438 4.2812 1.0938 2.1562 0.35938 4.3125 0.35938 12.203 0 19.328-6.6875 7.1406-6.6875 7.1406-18.109 0-11.766-7.3281-18.297-7.3281-6.5156-20.656-6.5156-4.5938 0-9.3594 0.78125-4.75 0.78125-9.8281 2.3438v9.9219q4.3906-2.3906 9.0781-3.5625t9.9062-1.1719q8.4531 0 13.375 4.4375 4.9375 4.4375 4.9375 12.062 0 7.6094-4.9375 12.047-4.9219 4.4531-13.375 4.4531-3.9531 0-7.8906-0.875-3.9219-0.875-8.0156-2.7344z"/>
  </g>
  <path d="m36.403 260.31h-3.5" stroke="#000" stroke-width=".8"/>
  <!-- 20 -->
  <g transform="matrix(.1 0 0 -.1 16.678 264.11)" stroke-width=".015625">
   <path d="m19.188 8.2969h34.422v-8.2969h-46.281v8.2969q5.6094 5.8125 15.297 15.594 9.7031 9.7969 12.188 12.641 4.7344 5.3125 6.6094 9 1.8906 3.6875 1.8906 7.25 0 5.8125-4.0781 9.4688-4.0781 3.6719-10.625 3.6719-4.6406 0-9.7969-1.6094-5.1406-1.6094-11-4.8906v9.9688q5.9531 2.3906 11.125 3.6094 5.1875 1.2188 9.4844 1.2188 11.328 0 18.062-5.6719 6.7344-5.6562 6.7344-15.125 0-4.5-1.6875-8.5312-1.6719-4.0156-6.125-9.4844-1.2188-1.4219-7.7656-8.1875-6.5312-6.7656-18.453-18.922z"/>
   <path d="m95.404 66.406q-7.6094 0-11.453-7.5-3.8281-7.4844-3.8281-22.531 0-14.984 3.8281-22.484 3.8438-7.5 11.453-7.5 7.6719 0 11.5 7.5 3.8438 7.5 3.8438 22.484 0 15.047-3.8438 22.531-3.8281 7.5-11.5 7.5zm0 7.8125q12.266 0 18.734-9.7031 6.4688-9.6875 6.4688-28.141 0-18.406-6.4688-28.109-6.4688-9.6875-18.734-9.6875-12.25 0-18.719 9.6875-6.4688 9.7031-6.4688 28.109 0 18.453 6.4688 28.141 6.4688 9.7031 18.719 9.7031z"/>
  </g>
  <path d="m36.403 235.21h-3.5" stroke="#000" stroke-width=".8"/>
  <!-- 25 -->
  <g transform="matrix(.1 0 0 -.1 16.678 239.01)" stroke-width=".015625">
   <path d="m19.188 8.2969h34.422v-8.2969h-46.281v8.2969q5.6094 5.8125 15.297 15.594 9.7031 9.7969 12.188 12.641 4.7344 5.3125 6.6094 9 1.8906 3.6875 1.8906 7.25 0 5.8125-4.0781 9.4688-4.0781 3.6719-10.625 3.6719-4.6406 0-9.7969-1.6094-5.1406-1.6094-11-4.8906v9.9688q5.9531 2.3906 11.125 3.6094 5.1875 1.2188 9.4844 1.2188 11.328 0 18.062-5.6719 6.7344-5.6562 6.7344-15.125 0-4.5-1.6875-8.5312-1.6719-4.0156-6.125-9.4844-1.2188-1.4219-7.7656-8.1875-6.5312-6.7656-18.453-18.922z"/>
   <path d="m74.42 72.906h38.719v-8.3125h-29.687v-17.859q2.1406 0.73438 4.2812 1.0938 2.1562 0.35938 4.3125 0.35938 12.203 0 19.328-6.6875 7.1406-6.6875 7.1406-18.109 0-11.766-7.3281-18.297-7.3281-6.5156-20.656-6.5156-4.5938 0-9.3594 0.78125-4.75 0.78125-9.8281 2.3438v9.9219q4.3906-2.3906 9.0781-3.5625t9.9062-1.1719q8.4531 0 13.375 4.4375 4.9375 4.4375 4.9375 12.062 0 7.6094-4.9375 12.047-4.9219 4.4531-13.375 4.4531-3.9531 0-7.8906-0.875-3.9219-0.875-8.0156-2.7344z"/>
  </g>
  <path d="m36.403 210.12h-3.5" stroke="#000" stroke-width=".8"/>
  <!-- 30 -->
  <g transform="matrix(.1 0 0 -.1 16.678 213.92)" stroke-width=".015625">
   <path d="m40.578 39.312q7.0781-1.5156 11.047-6.3125 3.9844-4.7812 3.9844-11.812 0-10.781-7.4219-16.703-7.4219-5.9062-21.094-5.9062-4.5781 0-9.4375 0.90625t-10.031 2.7188v9.5156q4.0938-2.3906 8.9688-3.6094 4.8906-1.2188 10.219-1.2188 9.2656 0 14.125 3.6562t4.8594 10.641q0 6.4531-4.5156 10.078-4.5156 3.6406-12.562 3.6406h-8.5v8.1094h8.8906q7.2656 0 11.125 2.9062t3.8594 8.375q0 5.6094-3.9844 8.6094-3.9688 3.0156-11.391 3.0156-4.0625 0-8.7031-0.89062-4.6406-0.875-10.203-2.7188v8.7812q5.625 1.5625 10.531 2.3438t9.25 0.78125q11.234 0 17.766-5.1094 6.5469-5.0938 6.5469-13.781 0-6.0625-3.4688-10.234t-9.8594-5.7812z"/>
   <path d="m95.404 66.406q-7.6094 0-11.453-7.5-3.8281-7.4844-3.8281-22.531 0-14.984 3.8281-22.484 3.8438-7.5 11.453-7.5 7.6719 0 11.5 7.5 3.8438 7.5 3.8438 22.484 0 15.047-3.8438 22.531-3.8281 7.5-11.5 7.5zm0 7.8125q12.266 0 18.734-9.7031 6.4688-9.6875 6.4688-28.141 0-18.406-6.4688-28.109-6.4688-9.6875-18.734-9.6875-12.25 0-18.719 9.6875-6.4688 9.7031-6.4688 28.109 0 18.453 6.4688 28.141 6.4688 9.7031 18.719 9.7031z"/>
  </g>
  <!-- Dimension Y -->
  <g transform="matrix(0 -.1 -.1 0 10.599 311.6)" stroke-width=".015625">
   <path d="m19.672 64.797v-56.688h11.922q15.094 0 22.094 6.8281 7 6.8438 7 21.594 0 14.641-7 21.453t-22.094 6.8125zm-9.8594 8.1094h20.266q21.188 0 31.094-8.8125 9.9219-8.8125 9.9219-27.562 0-18.859-9.9688-27.703-9.9531-8.8281-31.047-8.8281h-20.266z"/>
   <path d="m86.424 54.688h8.9844v-54.688h-8.9844zm0 21.297h8.9844v-11.391h-8.9844z"/>
   <path d="m156.79 44.188q3.375 6.0625 8.0625 8.9375t11.031 2.875q8.5469 0 13.188-5.9844 4.6406-5.9688 4.6406-17v-33.016h-9.0312v32.719q0 7.8594-2.7969 11.656-2.7812 3.8125-8.4844 3.8125-6.9844 0-11.047-4.6406-4.0469-4.625-4.0469-12.641v-30.906h-9.0312v32.719q0 7.9062-2.7812 11.688t-8.5938 3.7812q-6.8906 0-10.953-4.6562-4.0469-4.6562-4.0469-12.625v-30.906h-9.0312v54.688h9.0312v-8.5q3.0781 5.0312 7.375 7.4219 4.2969 2.3906 10.203 2.3906 5.9688 0 10.141-3.0312 4.1719-3.0156 6.1719-8.7812z"/>
   <path d="m258.4 29.594v-4.3906h-41.312q0.59375-9.2812 5.5938-14.141t13.938-4.8594q5.1719 0 10.031 1.2656 4.8594 1.2656 9.6562 3.8125v-8.5q-4.8438-2.0469-9.9219-3.125-5.0781-1.0781-10.297-1.0781-13.094 0-20.734 7.6094-7.6406 7.625-7.6406 20.625 0 13.422 7.25 21.297 7.25 7.8906 19.562 7.8906 11.031 0 17.453-7.1094 6.4219-7.0938 6.4219-19.297zm-8.9844 2.6406q-0.0937 7.3594-4.125 11.75-4.0312 4.4062-10.672 4.4062-7.5156 0-12.031-4.25-4.5156-4.25-5.2031-11.969z"/>
   <path d="m318.61 33.016v-33.016h-8.9844v32.719q0 7.7656-3.0312 11.609-3.0312 3.8594-9.0781 3.8594-7.2812 0-11.484-4.6406-4.2031-4.625-4.2031-12.641v-30.906h-9.0312v54.688h9.0312v-8.5q3.2344 4.9375 7.5938 7.375 4.375 2.4375 10.094 2.4375 9.4219 0 14.25-5.8281 4.8438-5.8281 4.8438-17.156z"/>
   <path d="m371.38 53.078v-8.5q-3.7969 1.9531-7.9062 2.9219-4.0938 0.98438-8.5 0.98438-6.6875 0-10.031-2.0469t-3.3438-6.1562q0-3.125 2.3906-4.9062 2.3906-1.7812 9.625-3.3906l3.0781-0.6875q9.5625-2.0469 13.594-5.7812t4.0312-10.422q0-7.625-6.0312-12.078-6.0312-4.4375-16.578-4.4375-4.3906 0-9.1562 0.85938-4.7656 0.85938-10.031 2.5625v9.2812q4.9844-2.5938 9.8125-3.8906 4.8281-1.2812 9.5781-1.2812 6.3438 0 9.75 2.1719 3.4219 2.1719 3.4219 6.125 0 3.6562-2.4688 5.6094-2.4531 1.9531-10.812 3.7656l-3.125 0.73438q-8.3438 1.75-12.062 5.3906-3.7031 3.6406-3.7031 9.9844 0 7.7188 5.4688 11.906 5.4688 4.2031 15.531 4.2031 4.9688 0 9.3594-0.73438 4.4062-0.71875 8.1094-2.1875z"/>
   <path d="m388.62 54.688h8.9844v-54.688h-8.9844zm0 21.297h8.9844v-11.391h-8.9844z"/>
   <path d="m437.59 48.391q-7.2188 0-11.422-5.6406-4.2031-5.6406-4.2031-15.453t4.1719-15.453q4.1875-5.6406 11.453-5.6406 7.1875 0 11.375 5.6562 4.2031 5.6719 4.2031 15.438 0 9.7188-4.2031 15.406-4.1875 5.6875-11.375 5.6875zm0 7.6094q11.719 0 18.406-7.625 6.7031-7.6094 6.7031-21.078 0-13.422-6.7031-21.078-6.6875-7.6406-18.406-7.6406-11.766 0-18.438 7.6406-6.6562 7.6562-6.6562 21.078 0 13.469 6.6562 21.078 6.6719 7.625 18.438 7.625z"/>
   <path d="m523.05 33.016v-33.016h-8.9844v32.719q0 7.7656-3.0312 11.609-3.0312 3.8594-9.0781 3.8594-7.2812 0-11.484-4.6406-4.2031-4.625-4.2031-12.641v-30.906h-9.0312v54.688h9.0312v-8.5q3.2344 4.9375 7.5938 7.375 4.375 2.4375 10.094 2.4375 9.4219 0 14.25-5.8281 4.8438-5.8281 4.8438-17.156z"/>
   <path d="m563.13 72.906h10.609l20.203-29.984 20.078 29.984h10.594l-25.781-38.188v-34.719h-9.9062v34.719z"/>
  </g>
  <path d="m36.403 350.64v-140.53" fill="none" stroke="#000" stroke-linecap="square" stroke-width=".8"/>
  <path d="m167.64 350.64v-140.53" fill="none" stroke="#000" stroke-linecap="square" stroke-width=".8"/>
  <path d="m36.403 350.64h131.23" fill="none" stroke="#000" stroke-linecap="square" stroke-width=".8"/>
  <path d="m36.403 210.12h131.23" fill="none" stroke="#000" stroke-linecap="square" stroke-width=".8"/>
  <!-- Test Inputs -->
  <g transform="matrix(.12 0 0 -.12 69.637 204.12)" stroke-width=".015625">
   <path d="m-0.29688 72.906h61.672v-8.3125h-25.875v-64.594h-9.9062v64.594h-25.891z"/>
   <path d="m100.29 29.594v-4.3906h-41.313q0.59375-9.2812 5.5938-14.141t13.938-4.8594q5.1719 0 10.031 1.2656t9.6562 3.8125v-8.5q-4.8438-2.0469-9.9219-3.125t-10.297-1.0781q-13.094 0-20.734 7.6094-7.6406 7.625-7.6406 20.625 0 13.422 7.25 21.297 7.25 7.8906 19.562 7.8906 11.031 0 17.453-7.1094 6.4219-7.0938 6.4219-19.297zm-8.9844 2.6406q-0.09375 7.3594-4.125 11.75-4.0312 4.4062-10.672 4.4062-7.5156 0-12.031-4.25t-5.2031-11.969z"/>
   <path d="m149.89 53.078v-8.5q-3.7969 1.9531-7.9062 2.9219-4.0938 0.98438-8.5 0.98438-6.6875 0-10.031-2.0469t-3.3438-6.1562q0-3.125 2.3906-4.9062 2.3906-1.7812 9.625-3.3906l3.0781-0.6875q9.5625-2.0469 13.594-5.7812t4.0312-10.422q0-7.625-6.0312-12.078-6.0312-4.4375-16.578-4.4375-4.3906 0-9.1562 0.85938-4.7656 0.85938-10.031 2.5625v9.2812q4.9844-2.5938 9.8125-3.8906 4.8281-1.2812 9.5781-1.2812 6.3438 0 9.75 2.1719 3.4219 2.1719 3.4219 6.125 0 3.6562-2.4688 5.6094-2.4531 1.9531-10.812 3.7656l-3.125 0.73438q-8.3438 1.75-12.062 5.3906-3.7031 3.6406-3.7031 9.9844 0 7.7188 5.4688 11.906 5.4688 4.2031 15.531 4.2031 4.9688 0 9.3594-0.73438 4.4062-0.71875 8.1094-2.1875z"/>
   <path d="m176.02 70.219v-15.531h18.5v-6.9844h-18.5v-29.688q0-6.6875 1.8281-8.5938 1.8281-1.9062 7.4531-1.9062h9.2188v-7.5156h-9.2188q-10.406 0-14.359 3.875-3.9531 3.8906-3.9531 14.141v29.688h-6.5938v6.9844h6.5938v15.531z"/>
   <path d="m238.52 72.906h9.8594v-72.906h-9.8594z"/>
   <path d="m313.09 33.016v-33.016h-8.9844v32.719q0 7.7656-3.0312 11.609-3.0312 3.8594-9.0781 3.8594-7.2812 0-11.484-4.6406-4.2031-4.625-4.2031-12.641v-30.906h-9.0312v54.688h9.0312v-8.5q3.2344 4.9375 7.5938 7.375 4.375 2.4375 10.094 2.4375 9.4219 0 14.25-5.8281 4.8438-5.8281 4.8438-17.156z"/>
   <path d="m339.68 8.2031v-29h-9.0312v75.484h9.0312v-8.2969q2.8438 4.875 7.1562 7.2344 4.3281 2.375 10.328 2.375 9.9688 0 16.188-7.9062 6.2344-7.9062 6.2344-20.797t-6.2344-20.812q-6.2188-7.9062-16.188-7.9062-6 0-10.328 2.375-4.3125 2.375-7.1562 7.25zm30.578 19.094q0 9.9062-4.0781 15.547-4.0781 5.6406-11.203 5.6406-7.1406 0-11.219-5.6406-4.0781-5.6406-4.0781-15.547t4.0781-15.547q4.0781-5.6406 11.219-5.6406 7.125 0 11.203 5.6406 4.0781 5.6406 4.0781 15.547z"/>
   <path d="m393.55 21.578v33.109h8.9844v-32.766q0-7.7656 3.0156-11.656 3.0312-3.875 9.0938-3.875 7.2656 0 11.484 4.6406 4.2344 4.6406 4.2344 12.656v31h8.9844v-54.688h-8.9844v8.4062q-3.2656-4.9844-7.5938-7.4062-4.3125-2.4219-10.031-2.4219-9.4219 0-14.312 5.8594-4.875 5.8594-4.875 17.141z"/>
   <path d="m466.74 70.219v-15.531h18.5v-6.9844h-18.5v-29.688q0-6.6875 1.8281-8.5938 1.8281-1.9062 7.4531-1.9062h9.2188v-7.5156h-9.2188q-10.406 0-14.359 3.875-3.9531 3.8906-3.9531 14.141v29.688h-6.5938v6.9844h6.5938v15.531z"/>
   <path d="m531.92 53.078v-8.5q-3.7969 1.9531-7.9062 2.9219-4.0938 0.98438-8.5 0.98438-6.6875 0-10.031-2.0469t-3.3438-6.1562q0-3.125 2.3906-4.9062 2.3906-1.7812 9.625-3.3906l3.0781-0.6875q9.5625-2.0469 13.594-5.7812t4.0312-10.422q0-7.625-6.0312-12.078-6.0312-4.4375-16.578-4.4375-4.3906 0-9.1562 0.85938-4.7656 0.85938-10.031 2.5625v9.2812q4.9844-2.5938 9.8125-3.8906 4.8281-1.2812 9.5781-1.2812 6.3438 0 9.75 2.1719 3.4219 2.1719 3.4219 6.125 0 3.6562-2.4688 5.6094-2.4531 1.9531-10.812 3.7656l-3.125 0.73438q-8.3438 1.75-12.062 5.3906-3.7031 3.6406-3.7031 9.9844 0 7.7188 5.4688 11.906 5.4688 4.2031 15.531 4.2031 4.9688 0 9.3594-0.73438 4.4062-0.71875 8.1094-2.1875z"/>
  </g>
  <path d="m219.4 350.64h131.23v-140.53h-131.23z" fill="#fff"/>
  <path d="m219.4 350.64h13.123v-14.053h-13.123v14.053" clip-path="url(#p849396da88)" fill="#4ec36b"/>
  <path d="m232.53 350.64h13.123v-14.053h-13.123v14.053" clip-path="url(#p849396da88)" fill="#482878"/>
  <path d="m245.65 350.64h13.123v-14.053h-13.123v14.053" clip-path="url(#p849396da88)" fill="#450457"/>
  <g fill="#440154">
   <path d="m258.77 350.64h13.123v-14.053h-13.123v14.053" clip-path="url(#p849396da88)"/>
   <path d="m271.9 350.64h13.123v-14.053h-13.123v14.053" clip-path="url(#p849396da88)"/>
   <path d="m285.02 350.64h13.123v-14.053h-13.123v14.053" clip-path="url(#p849396da88)"/>
   <path d="m298.14 350.64h13.123v-14.053h-13.123v14.053" clip-path="url(#p849396da88)"/>
   <path d="m311.27 350.64h13.123v-14.053h-13.123v14.053" clip-path="url(#p849396da88)"/>
   <path d="m324.39 350.64h13.123v-14.053h-13.123v14.053" clip-path="url(#p849396da88)"/>
   <path d="m337.51 350.64h13.123v-14.053h-13.123v14.053" clip-path="url(#p849396da88)"/>
  </g>
  <path d="m219.4 336.59h13.123v-14.053h-13.123v14.053" clip-path="url(#p849396da88)" fill="#472c7a"/>
  <path d="m232.53 336.59h13.123v-14.053h-13.123v14.053" clip-path="url(#p849396da88)" fill="#218e8d"/>
  <path d="m245.65 336.59h13.123v-14.053h-13.123v14.053" clip-path="url(#p849396da88)" fill="#46085c"/>
  <path d="m258.77 336.59h13.123v-14.053h-13.123v14.053" clip-path="url(#p849396da88)" fill="#482475"/>
  <g fill="#440154">
   <path d="m271.9 336.59h13.123v-14.053h-13.123v14.053" clip-path="url(#p849396da88)"/>
   <path d="m285.02 336.59h13.123v-14.053h-13.123v14.053" clip-path="url(#p849396da88)"/>
   <path d="m298.14 336.59h13.123v-14.053h-13.123v14.053" clip-path="url(#p849396da88)"/>
   <path d="m311.27 336.59h13.123v-14.053h-13.123v14.053" clip-path="url(#p849396da88)"/>
   <path d="m324.39 336.59h13.123v-14.053h-13.123v14.053" clip-path="url(#p849396da88)"/>
   <path d="m337.51 336.59h13.123v-14.053h-13.123v14.053" clip-path="url(#p849396da88)"/>
  </g>
  <path d="m219.4 322.54h13.123v-14.053h-13.123v14.053" clip-path="url(#p849396da88)" fill="#450457"/>
  <path d="m232.53 322.54h13.123v-14.053h-13.123v14.053" clip-path="url(#p849396da88)" fill="#471164"/>
  <path d="m245.65 322.54h13.123v-14.053h-13.123v14.053" clip-path="url(#p849396da88)" fill="#26828e"/>
  <path d="m258.77 322.54h13.123v-14.053h-13.123v14.053" clip-path="url(#p849396da88)" fill="#471164"/>
  <path d="m271.9 322.54h13.123v-14.053h-13.123v14.053" clip-path="url(#p849396da88)" fill="#440154"/>
  <path d="m285.02 322.54h13.123v-14.053h-13.123v14.053" clip-path="url(#p849396da88)" fill="#440154"/>
  <path d="m298.14 322.54h13.123v-14.053h-13.123v14.053" clip-path="url(#p849396da88)" fill="#450457"/>
  <g fill="#440154">
   <path d="m311.27 322.54h13.123v-14.053h-13.123v14.053" clip-path="url(#p849396da88)"/>
   <path d="m324.39 322.54h13.123v-14.053h-13.123v14.053" clip-path="url(#p849396da88)"/>
   <path d="m337.51 322.54h13.123v-14.053h-13.123v14.053" clip-path="url(#p849396da88)"/>
  </g>
  <path d="m219.4 308.49h13.123v-14.053h-13.123v14.053" clip-path="url(#p849396da88)" fill="#450457"/>
  <path d="m232.53 308.49h13.123v-14.053h-13.123v14.053" clip-path="url(#p849396da88)" fill="#481668"/>
  <path d="m245.65 308.49h13.123v-14.053h-13.123v14.053" clip-path="url(#p849396da88)" fill="#481c6e"/>
  <path d="m258.77 308.49h13.123v-14.053h-13.123v14.053" clip-path="url(#p849396da88)" fill="#fde725"/>
  <path d="m271.9 308.49h13.123v-14.053h-13.123v14.053" clip-path="url(#p849396da88)" fill="#46085c"/>
  <path d="m285.02 308.49h13.123v-14.053h-13.123v14.053" clip-path="url(#p849396da88)" fill="#450457"/>
  <path d="m298.14 308.49h13.123v-14.053h-13.123v14.053" clip-path="url(#p849396da88)" fill="#450457"/>
  <g fill="#440154">
   <path d="m311.27 308.49h13.123v-14.053h-13.123v14.053" clip-path="url(#p849396da88)"/>
   <path d="m324.39 308.49h13.123v-14.053h-13.123v14.053" clip-path="url(#p849396da88)"/>
   <path d="m337.51 308.49h13.123v-14.053h-13.123v14.053" clip-path="url(#p849396da88)"/>
   <path d="m219.4 294.43h13.123v-14.053h-13.123v14.053" clip-path="url(#p849396da88)"/>
  </g>
  <path d="m232.53 294.43h13.123v-14.053h-13.123v14.053" clip-path="url(#p849396da88)" fill="#450457"/>
  <path d="m245.65 294.43h13.123v-14.053h-13.123v14.053" clip-path="url(#p849396da88)" fill="#450457"/>
  <path d="m258.77 294.43h13.123v-14.053h-13.123v14.053" clip-path="url(#p849396da88)" fill="#471164"/>
  <path d="m271.9 294.43h13.123v-14.053h-13.123v14.053" clip-path="url(#p849396da88)" fill="#3a538b"/>
  <path d="m285.02 294.43h13.123v-14.053h-13.123v14.053" clip-path="url(#p849396da88)" fill="#481668"/>
  <g fill="#440154">
   <path d="m298.14 294.43h13.123v-14.053h-13.123v14.053" clip-path="url(#p849396da88)"/>
   <path d="m311.27 294.43h13.123v-14.053h-13.123v14.053" clip-path="url(#p849396da88)"/>
   <path d="m324.39 294.43h13.123v-14.053h-13.123v14.053" clip-path="url(#p849396da88)"/>
   <path d="m337.51 294.43h13.123v-14.053h-13.123v14.053" clip-path="url(#p849396da88)"/>
  </g>
  <path d="m219.4 280.38h13.123v-14.053h-13.123v14.053" clip-path="url(#p849396da88)" fill="#46085c"/>
  <path d="m232.53 280.38h13.123v-14.053h-13.123v14.053" clip-path="url(#p849396da88)" fill="#46085c"/>
  <path d="m245.65 280.38h13.123v-14.053h-13.123v14.053" clip-path="url(#p849396da88)" fill="#450457"/>
  <path d="m258.77 280.38h13.123v-14.053h-13.123v14.053" clip-path="url(#p849396da88)" fill="#470d60"/>
  <path d="m271.9 280.38h13.123v-14.053h-13.123v14.053" clip-path="url(#p849396da88)" fill="#471164"/>
  <path d="m285.02 280.38h13.123v-14.053h-13.123v14.053" clip-path="url(#p849396da88)" fill="#3d4d8a"/>
  <path d="m298.14 280.38h13.123v-14.053h-13.123v14.053" clip-path="url(#p849396da88)" fill="#450457"/>
  <g fill="#440154">
   <path d="m311.27 280.38h13.123v-14.053h-13.123v14.053" clip-path="url(#p849396da88)"/>
   <path d="m324.39 280.38h13.123v-14.053h-13.123v14.053" clip-path="url(#p849396da88)"/>
   <path d="m337.51 280.38h13.123v-14.053h-13.123v14.053" clip-path="url(#p849396da88)"/>
   <path d="m219.4 266.33h13.123v-14.053h-13.123v14.053" clip-path="url(#p849396da88)"/>
   <path d="m232.53 266.33h13.123v-14.053h-13.123v14.053" clip-path="url(#p849396da88)"/>
   <path d="m245.65 266.33h13.123v-14.053h-13.123v14.053" clip-path="url(#p849396da88)"/>
  </g>
  <path d="m258.77 266.33h13.123v-14.053h-13.123v14.053" clip-path="url(#p849396da88)" fill="#450457"/>
  <path d="m271.9 266.33h13.123v-14.053h-13.123v14.053" clip-path="url(#p849396da88)" fill="#440154"/>
  <path d="m285.02 266.33h13.123v-14.053h-13.123v14.053" clip-path="url(#p849396da88)" fill="#481668"/>
  <path d="m298.14 266.33h13.123v-14.053h-13.123v14.053" clip-path="url(#p849396da88)" fill="#3f4788"/>
  <path d="m311.27 266.33h13.123v-14.053h-13.123v14.053" clip-path="url(#p849396da88)" fill="#450457"/>
  <g fill="#440154">
   <path d="m324.39 266.33h13.123v-14.053h-13.123v14.053" clip-path="url(#p849396da88)"/>
   <path d="m337.51 266.33h13.123v-14.053h-13.123v14.053" clip-path="url(#p849396da88)"/>
   <path d="m219.4 252.28h13.123v-14.053h-13.123v14.053" clip-path="url(#p849396da88)"/>
  </g>
  <path d="m232.53 252.28h13.123v-14.053h-13.123v14.053" clip-path="url(#p849396da88)" fill="#450457"/>
  <g fill="#440154">
   <path d="m245.65 252.28h13.123v-14.053h-13.123v14.053" clip-path="url(#p849396da88)"/>
   <path d="m258.77 252.28h13.123v-14.053h-13.123v14.053" clip-path="url(#p849396da88)"/>
   <path d="m271.9 252.28h13.123v-14.053h-13.123v14.053" clip-path="url(#p849396da88)"/>
   <path d="m285.02 252.28h13.123v-14.053h-13.123v14.053" clip-path="url(#p849396da88)"/>
  </g>
  <path d="m298.14 252.28h13.123v-14.053h-13.123v14.053" clip-path="url(#p849396da88)" fill="#450457"/>
  <path d="m311.27 252.28h13.123v-14.053h-13.123v14.053" clip-path="url(#p849396da88)" fill="#470d60"/>
  <path d="m324.39 252.28h13.123v-14.053h-13.123v14.053" clip-path="url(#p849396da88)" fill="#440154"/>
  <path d="m337.51 252.28h13.123v-14.053h-13.123v14.053" clip-path="url(#p849396da88)" fill="#440154"/>
  <path d="m219.4 238.22h13.123v-14.053h-13.123v14.053" clip-path="url(#p849396da88)" fill="#450457"/>
  <path d="m232.53 238.22h13.123v-14.053h-13.123v14.053" clip-path="url(#p849396da88)" fill="#440154"/>
  <path d="m245.65 238.22h13.123v-14.053h-13.123v14.053" clip-path="url(#p849396da88)" fill="#440154"/>
  <path d="m258.77 238.22h13.123v-14.053h-13.123v14.053" clip-path="url(#p849396da88)" fill="#450457"/>
  <path d="m271.9 238.22h13.123v-14.053h-13.123v14.053" clip-path="url(#p849396da88)" fill="#440154"/>
  <path d="m285.02 238.22h13.123v-14.053h-13.123v14.053" clip-path="url(#p849396da88)" fill="#440154"/>
  <path d="m298.14 238.22h13.123v-14.053h-13.123v14.053" clip-path="url(#p849396da88)" fill="#450457"/>
  <path d="m311.27 238.22h13.123v-14.053h-13.123v14.053" clip-path="url(#p849396da88)" fill="#450457"/>
  <path d="m324.39 238.22h13.123v-14.053h-13.123v14.053" clip-path="url(#p849396da88)" fill="#481668"/>
  <g fill="#440154">
   <path d="m337.51 238.22h13.123v-14.053h-13.123v14.053" clip-path="url(#p849396da88)"/>
   <path d="m219.4 224.17h13.123v-14.053h-13.123v14.053" clip-path="url(#p849396da88)"/>
   <path d="m232.53 224.17h13.123v-14.053h-13.123v14.053" clip-path="url(#p849396da88)"/>
   <path d="m245.65 224.17h13.123v-14.053h-13.123v14.053" clip-path="url(#p849396da88)"/>
   <path d="m258.77 224.17h13.123v-14.053h-13.123v14.053" clip-path="url(#p849396da88)"/>
   <path d="m271.9 224.17h13.123v-14.053h-13.123v14.053" clip-path="url(#p849396da88)"/>
   <path d="m285.02 224.17h13.123v-14.053h-13.123v14.053" clip-path="url(#p849396da88)"/>
  </g>
  <path d="m298.14 224.17h13.123v-14.053h-13.123v14.053" clip-path="url(#p849396da88)" fill="#46085c"/>
  <path d="m311.27 224.17h13.123v-14.053h-13.123v14.053" clip-path="url(#p849396da88)" fill="#440154"/>
  <path d="m324.39 224.17h13.123v-14.053h-13.123v14.053" clip-path="url(#p849396da88)" fill="#440154"/>
  <path d="m337.51 224.17h13.123v-14.053h-13.123v14.053" clip-path="url(#p849396da88)" fill="#481c6e"/>
  <path d="m260.13 350.64v3.5" stroke="#000" stroke-width=".8"/>
  <!-- 10 -->
  <g transform="matrix(.1 0 0 -.1 253.77 365.24)" stroke-width=".015625">
   <path d="m12.406 8.2969h16.109v55.625l-17.531-3.5156v8.9844l17.438 3.5156h9.8594v-64.609h16.109v-8.2969h-41.984z"/>
   <path d="m95.404 66.406q-7.6094 0-11.453-7.5-3.8281-7.4844-3.8281-22.531 0-14.984 3.8281-22.484 3.8438-7.5 11.453-7.5 7.6719 0 11.5 7.5 3.8438 7.5 3.8438 22.484 0 15.047-3.8438 22.531-3.8281 7.5-11.5 7.5zm0 7.8125q12.266 0 18.734-9.7031 6.4688-9.6875 6.4688-28.141 0-18.406-6.4688-28.109-6.4688-9.6875-18.734-9.6875-12.25 0-18.719 9.6875-6.4688 9.7031-6.4688 28.109 0 18.453 6.4688 28.141 6.4688 9.7031 18.719 9.7031z"/>
  </g>
  <path d="m305.38 350.64v3.5" stroke="#000" stroke-width=".8"/>
  <!-- 20 -->
  <g transform="matrix(.1 0 0 -.1 299.02 365.24)" stroke-width=".015625">
   <path d="m19.188 8.2969h34.422v-8.2969h-46.281v8.2969q5.6094 5.8125 15.297 15.594 9.7031 9.7969 12.188 12.641 4.7344 5.3125 6.6094 9 1.8906 3.6875 1.8906 7.25 0 5.8125-4.0781 9.4688-4.0781 3.6719-10.625 3.6719-4.6406 0-9.7969-1.6094-5.1406-1.6094-11-4.8906v9.9688q5.9531 2.3906 11.125 3.6094 5.1875 1.2188 9.4844 1.2188 11.328 0 18.062-5.6719 6.7344-5.6562 6.7344-15.125 0-4.5-1.6875-8.5312-1.6719-4.0156-6.125-9.4844-1.2188-1.4219-7.7656-8.1875-6.5312-6.7656-18.453-18.922z"/>
   <path d="m95.404 66.406q-7.6094 0-11.453-7.5-3.8281-7.4844-3.8281-22.531 0-14.984 3.8281-22.484 3.8438-7.5 11.453-7.5 7.6719 0 11.5 7.5 3.8438 7.5 3.8438 22.484 0 15.047-3.8438 22.531-3.8281 7.5-11.5 7.5zm0 7.8125q12.266 0 18.734-9.7031 6.4688-9.6875 6.4688-28.141 0-18.406-6.4688-28.109-6.4688-9.6875-18.734-9.6875-12.25 0-18.719 9.6875-6.4688 9.7031-6.4688 28.109 0 18.453 6.4688 28.141 6.4688 9.7031 18.719 9.7031z"/>
  </g>
  <path d="m350.64 350.64v3.5" stroke="#000" stroke-width=".8"/>
  <!-- 30 -->
  <g transform="matrix(.1 0 0 -.1 344.27 365.24)" stroke-width=".015625">
   <path d="m40.578 39.312q7.0781-1.5156 11.047-6.3125 3.9844-4.7812 3.9844-11.812 0-10.781-7.4219-16.703-7.4219-5.9062-21.094-5.9062-4.5781 0-9.4375 0.90625t-10.031 2.7188v9.5156q4.0938-2.3906 8.9688-3.6094 4.8906-1.2188 10.219-1.2188 9.2656 0 14.125 3.6562t4.8594 10.641q0 6.4531-4.5156 10.078-4.5156 3.6406-12.562 3.6406h-8.5v8.1094h8.8906q7.2656 0 11.125 2.9062t3.8594 8.375q0 5.6094-3.9844 8.6094-3.9688 3.0156-11.391 3.0156-4.0625 0-8.7031-0.89062-4.6406-0.875-10.203-2.7188v8.7812q5.625 1.5625 10.531 2.3438t9.25 0.78125q11.234 0 17.766-5.1094 6.5469-5.0938 6.5469-13.781 0-6.0625-3.4688-10.234t-9.8594-5.7812z"/>
   <path d="m95.404 66.406q-7.6094 0-11.453-7.5-3.8281-7.4844-3.8281-22.531 0-14.984 3.8281-22.484 3.8438-7.5 11.453-7.5 7.6719 0 11.5 7.5 3.8438 7.5 3.8438 22.484 0 15.047-3.8438 22.531-3.8281 7.5-11.5 7.5zm0 7.8125q12.266 0 18.734-9.7031 6.4688-9.6875 6.4688-28.141 0-18.406-6.4688-28.109-6.4688-9.6875-18.734-9.6875-12.25 0-18.719 9.6875-6.4688 9.7031-6.4688 28.109 0 18.453 6.4688 28.141 6.4688 9.7031 18.719 9.7031z"/>
  </g>
  <!-- Dimension X -->
  <g transform="matrix(.1 0 0 -.1 253.43 378.92)" stroke-width=".015625">
   <path d="m19.672 64.797v-56.688h11.922q15.094 0 22.094 6.8281 7 6.8438 7 21.594 0 14.641-7 21.453t-22.094 6.8125zm-9.8594 8.1094h20.266q21.188 0 31.094-8.8125 9.9219-8.8125 9.9219-27.562 0-18.859-9.9688-27.703-9.9531-8.8281-31.047-8.8281h-20.266z"/>
   <path d="m86.424 54.688h8.9844v-54.688h-8.9844zm0 21.297h8.9844v-11.391h-8.9844z"/>
   <path d="m156.79 44.188q3.375 6.0625 8.0625 8.9375t11.031 2.875q8.5469 0 13.188-5.9844 4.6406-5.9688 4.6406-17v-33.016h-9.0312v32.719q0 7.8594-2.7969 11.656-2.7812 3.8125-8.4844 3.8125-6.9844 0-11.047-4.6406-4.0469-4.625-4.0469-12.641v-30.906h-9.0312v32.719q0 7.9062-2.7812 11.688t-8.5938 3.7812q-6.8906 0-10.953-4.6562-4.0469-4.6562-4.0469-12.625v-30.906h-9.0312v54.688h9.0312v-8.5q3.0781 5.0312 7.375 7.4219 4.2969 2.3906 10.203 2.3906 5.9688 0 10.141-3.0312 4.1719-3.0156 6.1719-8.7812z"/>
   <path d="m258.4 29.594v-4.3906h-41.312q0.59375-9.2812 5.5938-14.141t13.938-4.8594q5.1719 0 10.031 1.2656 4.8594 1.2656 9.6562 3.8125v-8.5q-4.8438-2.0469-9.9219-3.125-5.0781-1.0781-10.297-1.0781-13.094 0-20.734 7.6094-7.6406 7.625-7.6406 20.625 0 13.422 7.25 21.297 7.25 7.8906 19.562 7.8906 11.031 0 17.453-7.1094 6.4219-7.0938 6.4219-19.297zm-8.9844 2.6406q-0.0937 7.3594-4.125 11.75-4.0312 4.4062-10.672 4.4062-7.5156 0-12.031-4.25-4.5156-4.25-5.2031-11.969z"/>
   <path d="m318.61 33.016v-33.016h-8.9844v32.719q0 7.7656-3.0312 11.609-3.0312 3.8594-9.0781 3.8594-7.2812 0-11.484-4.6406-4.2031-4.625-4.2031-12.641v-30.906h-9.0312v54.688h9.0312v-8.5q3.2344 4.9375 7.5938 7.375 4.375 2.4375 10.094 2.4375 9.4219 0 14.25-5.8281 4.8438-5.8281 4.8438-17.156z"/>
   <path d="m371.38 53.078v-8.5q-3.7969 1.9531-7.9062 2.9219-4.0938 0.98438-8.5 0.98438-6.6875 0-10.031-2.0469t-3.3438-6.1562q0-3.125 2.3906-4.9062 2.3906-1.7812 9.625-3.3906l3.0781-0.6875q9.5625-2.0469 13.594-5.7812t4.0312-10.422q0-7.625-6.0312-12.078-6.0312-4.4375-16.578-4.4375-4.3906 0-9.1562 0.85938-4.7656 0.85938-10.031 2.5625v9.2812q4.9844-2.5938 9.8125-3.8906 4.8281-1.2812 9.5781-1.2812 6.3438 0 9.75 2.1719 3.4219 2.1719 3.4219 6.125 0 3.6562-2.4688 5.6094-2.4531 1.9531-10.812 3.7656l-3.125 0.73438q-8.3438 1.75-12.062 5.3906-3.7031 3.6406-3.7031 9.9844 0 7.7188 5.4688 11.906 5.4688 4.2031 15.531 4.2031 4.9688 0 9.3594-0.73438 4.4062-0.71875 8.1094-2.1875z"/>
   <path d="m388.62 54.688h8.9844v-54.688h-8.9844zm0 21.297h8.9844v-11.391h-8.9844z"/>
   <path d="m437.59 48.391q-7.2188 0-11.422-5.6406-4.2031-5.6406-4.2031-15.453t4.1719-15.453q4.1875-5.6406 11.453-5.6406 7.1875 0 11.375 5.6562 4.2031 5.6719 4.2031 15.438 0 9.7188-4.2031 15.406-4.1875 5.6875-11.375 5.6875zm0 7.6094q11.719 0 18.406-7.625 6.7031-7.6094 6.7031-21.078 0-13.422-6.7031-21.078-6.6875-7.6406-18.406-7.6406-11.766 0-18.438 7.6406-6.6562 7.6562-6.6562 21.078 0 13.469 6.6562 21.078 6.6719 7.625 18.438 7.625z"/>
   <path d="m523.05 33.016v-33.016h-8.9844v32.719q0 7.7656-3.0312 11.609-3.0312 3.8594-9.0781 3.8594-7.2812 0-11.484-4.6406-4.2031-4.625-4.2031-12.641v-30.906h-9.0312v54.688h9.0312v-8.5q3.2344 4.9375 7.5938 7.375 4.375 2.4375 10.094 2.4375 9.4219 0 14.25-5.8281 4.8438-5.8281 4.8438-17.156z"/>
   <path d="m569.63 72.906h10.594l18.125-27.109 18.203 27.109h10.594l-23.438-35.016 25-37.891h-10.594l-20.5 31-20.656-31h-10.641l26.016 38.922z"/>
  </g>
  <path d="m219.4 331.26h-3.5" stroke="#000" stroke-width=".8"/>
  <!-- 5 -->
  <g transform="matrix(.1 0 0 -.1 206.04 335.06)">
   <path d="m10.797 72.906h38.719v-8.3125h-29.688v-17.859q2.1406 0.73438 4.2812 1.0938 2.1562 0.35938 4.3125 0.35938 12.203 0 19.328-6.6875 7.1406-6.6875 7.1406-18.109 0-11.766-7.3281-18.297-7.3281-6.5156-20.656-6.5156-4.5938 0-9.3594 0.78125-4.75 0.78125-9.8281 2.3438v9.9219q4.3906-2.3906 9.0781-3.5625t9.9062-1.1719q8.4531 0 13.375 4.4375 4.9375 4.4375 4.9375 12.062 0 7.6094-4.9375 12.047-4.9219 4.4531-13.375 4.4531-3.9531 0-7.8906-0.875-3.9219-0.875-8.0156-2.7344z" stroke-width=".015625"/>
  </g>
  <path d="m219.4 307.03h-3.5" stroke="#000" stroke-width=".8"/>
  <!-- 10 -->
  <g transform="matrix(.1 0 0 -.1 199.68 310.83)" stroke-width=".015625">
   <path d="m12.406 8.2969h16.109v55.625l-17.531-3.5156v8.9844l17.438 3.5156h9.8594v-64.609h16.109v-8.2969h-41.984z"/>
   <path d="m95.404 66.406q-7.6094 0-11.453-7.5-3.8281-7.4844-3.8281-22.531 0-14.984 3.8281-22.484 3.8438-7.5 11.453-7.5 7.6719 0 11.5 7.5 3.8438 7.5 3.8438 22.484 0 15.047-3.8438 22.531-3.8281 7.5-11.5 7.5zm0 7.8125q12.266 0 18.734-9.7031 6.4688-9.6875 6.4688-28.141 0-18.406-6.4688-28.109-6.4688-9.6875-18.734-9.6875-12.25 0-18.719 9.6875-6.4688 9.7031-6.4688 28.109 0 18.453 6.4688 28.141 6.4688 9.7031 18.719 9.7031z"/>
  </g>
  <path d="m219.4 282.8h-3.5" stroke="#000" stroke-width=".8"/>
  <!-- 15 -->
  <g transform="matrix(.1 0 0 -.1 199.68 286.6)" stroke-width=".015625">
   <path d="m12.406 8.2969h16.109v55.625l-17.531-3.5156v8.9844l17.438 3.5156h9.8594v-64.609h16.109v-8.2969h-41.984z"/>
   <path d="m74.42 72.906h38.719v-8.3125h-29.687v-17.859q2.1406 0.73438 4.2812 1.0938 2.1562 0.35938 4.3125 0.35938 12.203 0 19.328-6.6875 7.1406-6.6875 7.1406-18.109 0-11.766-7.3281-18.297-7.3281-6.5156-20.656-6.5156-4.5938 0-9.3594 0.78125-4.75 0.78125-9.8281 2.3438v9.9219q4.3906-2.3906 9.0781-3.5625t9.9062-1.1719q8.4531 0 13.375 4.4375 4.9375 4.4375 4.9375 12.062 0 7.6094-4.9375 12.047-4.9219 4.4531-13.375 4.4531-3.9531 0-7.8906-0.875-3.9219-0.875-8.0156-2.7344z"/>
  </g>
  <path d="m219.4 258.58h-3.5" stroke="#000" stroke-width=".8"/>
  <!-- 20 -->
  <g transform="matrix(.1 0 0 -.1 199.68 262.37)" stroke-width=".015625">
   <path d="m19.188 8.2969h34.422v-8.2969h-46.281v8.2969q5.6094 5.8125 15.297 15.594 9.7031 9.7969 12.188 12.641 4.7344 5.3125 6.6094 9 1.8906 3.6875 1.8906 7.25 0 5.8125-4.0781 9.4688-4.0781 3.6719-10.625 3.6719-4.6406 0-9.7969-1.6094-5.1406-1.6094-11-4.8906v9.9688q5.9531 2.3906 11.125 3.6094 5.1875 1.2188 9.4844 1.2188 11.328 0 18.062-5.6719 6.7344-5.6562 6.7344-15.125 0-4.5-1.6875-8.5312-1.6719-4.0156-6.125-9.4844-1.2188-1.4219-7.7656-8.1875-6.5312-6.7656-18.453-18.922z"/>
   <path d="m95.404 66.406q-7.6094 0-11.453-7.5-3.8281-7.4844-3.8281-22.531 0-14.984 3.8281-22.484 3.8438-7.5 11.453-7.5 7.6719 0 11.5 7.5 3.8438 7.5 3.8438 22.484 0 15.047-3.8438 22.531-3.8281 7.5-11.5 7.5zm0 7.8125q12.266 0 18.734-9.7031 6.4688-9.6875 6.4688-28.141 0-18.406-6.4688-28.109-6.4688-9.6875-18.734-9.6875-12.25 0-18.719 9.6875-6.4688 9.7031-6.4688 28.109 0 18.453 6.4688 28.141 6.4688 9.7031 18.719 9.7031z"/>
  </g>
  <path d="m219.4 234.35h-3.5" stroke="#000" stroke-width=".8"/>
  <!-- 25 -->
  <g transform="matrix(.1 0 0 -.1 199.68 238.15)" stroke-width=".015625">
   <path d="m19.188 8.2969h34.422v-8.2969h-46.281v8.2969q5.6094 5.8125 15.297 15.594 9.7031 9.7969 12.188 12.641 4.7344 5.3125 6.6094 9 1.8906 3.6875 1.8906 7.25 0 5.8125-4.0781 9.4688-4.0781 3.6719-10.625 3.6719-4.6406 0-9.7969-1.6094-5.1406-1.6094-11-4.8906v9.9688q5.9531 2.3906 11.125 3.6094 5.1875 1.2188 9.4844 1.2188 11.328 0 18.062-5.6719 6.7344-5.6562 6.7344-15.125 0-4.5-1.6875-8.5312-1.6719-4.0156-6.125-9.4844-1.2188-1.4219-7.7656-8.1875-6.5312-6.7656-18.453-18.922z"/>
   <path d="m74.42 72.906h38.719v-8.3125h-29.687v-17.859q2.1406 0.73438 4.2812 1.0938 2.1562 0.35938 4.3125 0.35938 12.203 0 19.328-6.6875 7.1406-6.6875 7.1406-18.109 0-11.766-7.3281-18.297-7.3281-6.5156-20.656-6.5156-4.5938 0-9.3594 0.78125-4.75 0.78125-9.8281 2.3438v9.9219q4.3906-2.3906 9.0781-3.5625t9.9062-1.1719q8.4531 0 13.375 4.4375 4.9375 4.4375 4.9375 12.062 0 7.6094-4.9375 12.047-4.9219 4.4531-13.375 4.4531-3.9531 0-7.8906-0.875-3.9219-0.875-8.0156-2.7344z"/>
  </g>
  <path d="m219.4 210.12h-3.5" stroke="#000" stroke-width=".8"/>
  <!-- 30 -->
  <g transform="matrix(.1 0 0 -.1 199.68 213.92)" stroke-width=".015625">
   <path d="m40.578 39.312q7.0781-1.5156 11.047-6.3125 3.9844-4.7812 3.9844-11.812 0-10.781-7.4219-16.703-7.4219-5.9062-21.094-5.9062-4.5781 0-9.4375 0.90625t-10.031 2.7188v9.5156q4.0938-2.3906 8.9688-3.6094 4.8906-1.2188 10.219-1.2188 9.2656 0 14.125 3.6562t4.8594 10.641q0 6.4531-4.5156 10.078-4.5156 3.6406-12.562 3.6406h-8.5v8.1094h8.8906q7.2656 0 11.125 2.9062t3.8594 8.375q0 5.6094-3.9844 8.6094-3.9688 3.0156-11.391 3.0156-4.0625 0-8.7031-0.89062-4.6406-0.875-10.203-2.7188v8.7812q5.625 1.5625 10.531 2.3438t9.25 0.78125q11.234 0 17.766-5.1094 6.5469-5.0938 6.5469-13.781 0-6.0625-3.4688-10.234t-9.8594-5.7812z"/>
   <path d="m95.404 66.406q-7.6094 0-11.453-7.5-3.8281-7.4844-3.8281-22.531 0-14.984 3.8281-22.484 3.8438-7.5 11.453-7.5 7.6719 0 11.5 7.5 3.8438 7.5 3.8438 22.484 0 15.047-3.8438 22.531-3.8281 7.5-11.5 7.5zm0 7.8125q12.266 0 18.734-9.7031 6.4688-9.6875 6.4688-28.141 0-18.406-6.4688-28.109-6.4688-9.6875-18.734-9.6875-12.25 0-18.719 9.6875-6.4688 9.7031-6.4688 28.109 0 18.453 6.4688 28.141 6.4688 9.7031 18.719 9.7031z"/>
  </g>
  <!-- Dimension Y -->
  <g transform="matrix(0 -.1 -.1 0 193.6 311.6)" stroke-width=".015625">
   <path d="m19.672 64.797v-56.688h11.922q15.094 0 22.094 6.8281 7 6.8438 7 21.594 0 14.641-7 21.453t-22.094 6.8125zm-9.8594 8.1094h20.266q21.188 0 31.094-8.8125 9.9219-8.8125 9.9219-27.562 0-18.859-9.9688-27.703-9.9531-8.8281-31.047-8.8281h-20.266z"/>
   <path d="m86.424 54.688h8.9844v-54.688h-8.9844zm0 21.297h8.9844v-11.391h-8.9844z"/>
   <path d="m156.79 44.188q3.375 6.0625 8.0625 8.9375t11.031 2.875q8.5469 0 13.188-5.9844 4.6406-5.9688 4.6406-17v-33.016h-9.0312v32.719q0 7.8594-2.7969 11.656-2.7812 3.8125-8.4844 3.8125-6.9844 0-11.047-4.6406-4.0469-4.625-4.0469-12.641v-30.906h-9.0312v32.719q0 7.9062-2.7812 11.688t-8.5938 3.7812q-6.8906 0-10.953-4.6562-4.0469-4.6562-4.0469-12.625v-30.906h-9.0312v54.688h9.0312v-8.5q3.0781 5.0312 7.375 7.4219 4.2969 2.3906 10.203 2.3906 5.9688 0 10.141-3.0312 4.1719-3.0156 6.1719-8.7812z"/>
   <path d="m258.4 29.594v-4.3906h-41.312q0.59375-9.2812 5.5938-14.141t13.938-4.8594q5.1719 0 10.031 1.2656 4.8594 1.2656 9.6562 3.8125v-8.5q-4.8438-2.0469-9.9219-3.125-5.0781-1.0781-10.297-1.0781-13.094 0-20.734 7.6094-7.6406 7.625-7.6406 20.625 0 13.422 7.25 21.297 7.25 7.8906 19.562 7.8906 11.031 0 17.453-7.1094 6.4219-7.0938 6.4219-19.297zm-8.9844 2.6406q-0.0937 7.3594-4.125 11.75-4.0312 4.4062-10.672 4.4062-7.5156 0-12.031-4.25-4.5156-4.25-5.2031-11.969z"/>
   <path d="m318.61 33.016v-33.016h-8.9844v32.719q0 7.7656-3.0312 11.609-3.0312 3.8594-9.0781 3.8594-7.2812 0-11.484-4.6406-4.2031-4.625-4.2031-12.641v-30.906h-9.0312v54.688h9.0312v-8.5q3.2344 4.9375 7.5938 7.375 4.375 2.4375 10.094 2.4375 9.4219 0 14.25-5.8281 4.8438-5.8281 4.8438-17.156z"/>
   <path d="m371.38 53.078v-8.5q-3.7969 1.9531-7.9062 2.9219-4.0938 0.98438-8.5 0.98438-6.6875 0-10.031-2.0469t-3.3438-6.1562q0-3.125 2.3906-4.9062 2.3906-1.7812 9.625-3.3906l3.0781-0.6875q9.5625-2.0469 13.594-5.7812t4.0312-10.422q0-7.625-6.0312-12.078-6.0312-4.4375-16.578-4.4375-4.3906 0-9.1562 0.85938-4.7656 0.85938-10.031 2.5625v9.2812q4.9844-2.5938 9.8125-3.8906 4.8281-1.2812 9.5781-1.2812 6.3438 0 9.75 2.1719 3.4219 2.1719 3.4219 6.125 0 3.6562-2.4688 5.6094-2.4531 1.9531-10.812 3.7656l-3.125 0.73438q-8.3438 1.75-12.062 5.3906-3.7031 3.6406-3.7031 9.9844 0 7.7188 5.4688 11.906 5.4688 4.2031 15.531 4.2031 4.9688 0 9.3594-0.73438 4.4062-0.71875 8.1094-2.1875z"/>
   <path d="m388.62 54.688h8.9844v-54.688h-8.9844zm0 21.297h8.9844v-11.391h-8.9844z"/>
   <path d="m437.59 48.391q-7.2188 0-11.422-5.6406-4.2031-5.6406-4.2031-15.453t4.1719-15.453q4.1875-5.6406 11.453-5.6406 7.1875 0 11.375 5.6562 4.2031 5.6719 4.2031 15.438 0 9.7188-4.2031 15.406-4.1875 5.6875-11.375 5.6875zm0 7.6094q11.719 0 18.406-7.625 6.7031-7.6094 6.7031-21.078 0-13.422-6.7031-21.078-6.6875-7.6406-18.406-7.6406-11.766 0-18.438 7.6406-6.6562 7.6562-6.6562 21.078 0 13.469 6.6562 21.078 6.6719 7.625 18.438 7.625z"/>
   <path d="m523.05 33.016v-33.016h-8.9844v32.719q0 7.7656-3.0312 11.609-3.0312 3.8594-9.0781 3.8594-7.2812 0-11.484-4.6406-4.2031-4.625-4.2031-12.641v-30.906h-9.0312v54.688h9.0312v-8.5q3.2344 4.9375 7.5938 7.375 4.375 2.4375 10.094 2.4375 9.4219 0 14.25-5.8281 4.8438-5.8281 4.8438-17.156z"/>
   <path d="m563.13 72.906h10.609l20.203-29.984 20.078 29.984h10.594l-25.781-38.188v-34.719h-9.9062v34.719z"/>
  </g>
  <path d="m219.4 350.64v-140.53" fill="none" stroke="#000" stroke-linecap="square" stroke-width=".8"/>
  <path d="m350.64 350.64v-140.53" fill="none" stroke="#000" stroke-linecap="square" stroke-width=".8"/>
  <path d="m219.4 350.64h131.23" fill="none" stroke="#000" stroke-linecap="square" stroke-width=".8"/>
  <path d="m219.4 210.12h131.23" fill="none" stroke="#000" stroke-linecap="square" stroke-width=".8"/>
  <!-- Test Outputs -->
  <g transform="matrix(.12 0 0 -.12 247.33 204.12)" stroke-width=".015625">
   <path d="m-0.29688 72.906h61.672v-8.3125h-25.875v-64.594h-9.9062v64.594h-25.891z"/>
   <path d="m100.29 29.594v-4.3906h-41.313q0.59375-9.2812 5.5938-14.141t13.938-4.8594q5.1719 0 10.031 1.2656t9.6562 3.8125v-8.5q-4.8438-2.0469-9.9219-3.125t-10.297-1.0781q-13.094 0-20.734 7.6094-7.6406 7.625-7.6406 20.625 0 13.422 7.25 21.297 7.25 7.8906 19.562 7.8906 11.031 0 17.453-7.1094 6.4219-7.0938 6.4219-19.297zm-8.9844 2.6406q-0.09375 7.3594-4.125 11.75-4.0312 4.4062-10.672 4.4062-7.5156 0-12.031-4.25t-5.2031-11.969z"/>
   <path d="m149.89 53.078v-8.5q-3.7969 1.9531-7.9062 2.9219-4.0938 0.98438-8.5 0.98438-6.6875 0-10.031-2.0469t-3.3438-6.1562q0-3.125 2.3906-4.9062 2.3906-1.7812 9.625-3.3906l3.0781-0.6875q9.5625-2.0469 13.594-5.7812t4.0312-10.422q0-7.625-6.0312-12.078-6.0312-4.4375-16.578-4.4375-4.3906 0-9.1562 0.85938-4.7656 0.85938-10.031 2.5625v9.2812q4.9844-2.5938 9.8125-3.8906 4.8281-1.2812 9.5781-1.2812 6.3438 0 9.75 2.1719 3.4219 2.1719 3.4219 6.125 0 3.6562-2.4688 5.6094-2.4531 1.9531-10.812 3.7656l-3.125 0.73438q-8.3438 1.75-12.062 5.3906-3.7031 3.6406-3.7031 9.9844 0 7.7188 5.4688 11.906 5.4688 4.2031 15.531 4.2031 4.9688 0 9.3594-0.73438 4.4062-0.71875 8.1094-2.1875z"/>
   <path d="m176.02 70.219v-15.531h18.5v-6.9844h-18.5v-29.688q0-6.6875 1.8281-8.5938 1.8281-1.9062 7.4531-1.9062h9.2188v-7.5156h-9.2188q-10.406 0-14.359 3.875-3.9531 3.8906-3.9531 14.141v29.688h-6.5938v6.9844h6.5938v15.531z"/>
   <path d="m268.11 66.219q-10.75 0-17.078-8.0156-6.3125-8-6.3125-21.828 0-13.766 6.3125-21.781 6.3281-8 17.078-8 10.734 0 17.016 8 6.2812 8.0156 6.2812 21.781 0 13.828-6.2812 21.828-6.2812 8.0156-17.016 8.0156zm0 8q15.328 0 24.5-10.281 9.1875-10.281 9.1875-27.562 0-17.234-9.1875-27.516-9.1719-10.281-24.5-10.281-15.375 0-24.594 10.25-9.2031 10.266-9.2031 27.547t9.2031 27.562q9.2188 10.281 24.594 10.281z"/>
   <path d="m315.91 21.578v33.109h8.9844v-32.766q0-7.7656 3.0156-11.656 3.0312-3.875 9.0938-3.875 7.2656 0 11.484 4.6406 4.2344 4.6406 4.2344 12.656v31h8.9844v-54.688h-8.9844v8.4062q-3.2656-4.9844-7.5938-7.4062-4.3125-2.4219-10.031-2.4219-9.4219 0-14.312 5.8594-4.875 5.8594-4.875 17.141z"/>
   <path d="m389.11 70.219v-15.531h18.5v-6.9844h-18.5v-29.688q0-6.6875 1.8281-8.5938 1.8281-1.9062 7.4531-1.9062h9.2188v-7.5156h-9.2188q-10.406 0-14.359 3.875-3.9531 3.8906-3.9531 14.141v29.688h-6.5938v6.9844h6.5938v15.531z"/>
   <path d="m428.11 8.2031v-29h-9.0312v75.484h9.0312v-8.2969q2.8438 4.875 7.1562 7.2344 4.3281 2.375 10.328 2.375 9.9688 0 16.188-7.9062 6.2344-7.9062 6.2344-20.797t-6.2344-20.812q-6.2188-7.9062-16.188-7.9062-6 0-10.328 2.375-4.3125 2.375-7.1562 7.25zm30.578 19.094q0 9.9062-4.0781 15.547-4.0781 5.6406-11.203 5.6406-7.1406 0-11.219-5.6406-4.0781-5.6406-4.0781-15.547t4.0781-15.547q4.0781-5.6406 11.219-5.6406 7.125 0 11.203 5.6406 4.0781 5.6406 4.0781 15.547z"/>
   <path d="m481.98 21.578v33.109h8.9844v-32.766q0-7.7656 3.0156-11.656 3.0312-3.875 9.0938-3.875 7.2656 0 11.484 4.6406 4.2344 4.6406 4.2344 12.656v31h8.9844v-54.688h-8.9844v8.4062q-3.2656-4.9844-7.5938-7.4062-4.3125-2.4219-10.031-2.4219-9.4219 0-14.312 5.8594-4.875 5.8594-4.875 17.141z"/>
   <path d="m555.17 70.219v-15.531h18.5v-6.9844h-18.5v-29.688q0-6.6875 1.8281-8.5938 1.8281-1.9062 7.4531-1.9062h9.2188v-7.5156h-9.2188q-10.406 0-14.359 3.875-3.9531 3.8906-3.9531 14.141v29.688h-6.5938v6.9844h6.5938v15.531z"/>
   <path d="m620.35 53.078v-8.5q-3.7969 1.9531-7.9062 2.9219-4.0938 0.98438-8.5 0.98438-6.6875 0-10.031-2.0469t-3.3438-6.1562q0-3.125 2.3906-4.9062 2.3906-1.7812 9.625-3.3906l3.0781-0.6875q9.5625-2.0469 13.594-5.7812t4.0312-10.422q0-7.625-6.0312-12.078-6.0312-4.4375-16.578-4.4375-4.3906 0-9.1562 0.85938-4.7656 0.85938-10.031 2.5625v9.2812q4.9844-2.5938 9.8125-3.8906 4.8281-1.2812 9.5781-1.2812 6.3438 0 9.75 2.1719 3.4219 2.1719 3.4219 6.125 0 3.6562-2.4688 5.6094-2.4531 1.9531-10.812 3.7656l-3.125 0.73438q-8.3438 1.75-12.062 5.3906-3.7031 3.6406-3.7031 9.9844 0 7.7188 5.4688 11.906 5.4688 4.2031 15.531 4.2031 4.9688 0 9.3594-0.73438 4.4062-0.71875 8.1094-2.1875z"/>
  </g>
 </g>
 <defs>
  <clipPath id="p3991a967b4">
   <rect x="36.403" y="210.12" width="131.23" height="140.53"/>
  </clipPath>
  <clipPath id="p849396da88">
   <rect x="219.4" y="210.12" width="131.23" height="140.53"/>
  </clipPath>
 </defs>
</svg>
